<?xml version="1.0" encoding="UTF-8"?><svg id="Layer_1" xmlns="http://www.w3.org/2000/svg" viewBox="0 0 42.68 50"><defs><style>.cls-1{fill:#fff;stroke-width:0px;}</style></defs><g id="Group"><g id="g"><g id="path"><g id="path9_fill"><path id="path0_fill" class="cls-1" d="M1.74,26.15c0,1.56-.12,2.07-.45,2.44-.36.32-.82.5-1.3.5l.12.89c.74.01,1.47-.25,2.03-.74.3-.37.53-.8.66-1.26.13-.46.18-.94.12-1.42v-5.89h-1.19v5.48Z"/></g></g><g id="path-2"><g id="path10_fill"><path id="path1_fill" class="cls-1" d="M10.64,25.44c0,.67,0,1.26.05,1.78h-1.06l-.07-1.06c-.22.37-.54.68-.92.9-.38.21-.81.32-1.24.31-1.03,0-2.26-.56-2.26-2.85v-3.8h1.19v3.56c0,1.24.38,2.07,1.46,2.07.22,0,.44-.04.65-.12.21-.08.39-.21.55-.36.16-.16.28-.34.36-.55.08-.21.13-.43.12-.65v-3.99h1.19v4.73l-.03.04Z"/></g></g><g id="path-3"><g id="path11_fill"><path id="path2_fill" class="cls-1" d="M12.9,22.84c0-.83,0-1.5-.05-2.12h1.07l.05,1.11c.24-.4.58-.73.99-.95.41-.22.87-.33,1.34-.31,1.58,0,2.78,1.33,2.78,3.3,0,2.33-1.43,3.49-2.98,3.49-.4.02-.79-.07-1.14-.25-.35-.18-.66-.45-.88-.78h0v3.56h-1.18v-7.06ZM14.08,24.58c0,.16.02.32.05.48.1.4.33.75.65,1,.32.25.72.39,1.13.38,1.26,0,1.99-1.02,1.99-2.51,0-1.3-.69-2.41-1.95-2.41-.5.04-.96.26-1.31.62s-.55.83-.57,1.33v1.11Z"/></g></g><g id="path-4"><g id="path12_fill"><path id="path3_fill" class="cls-1" d="M21.21,20.72l1.43,3.84c.15.43.31.94.42,1.33.12-.39.26-.89.42-1.35l1.3-3.81h1.26l-1.78,4.63c-.89,2.23-1.43,3.37-2.25,4.07-.41.38-.92.64-1.46.77l-.29-1c.38-.13.73-.32,1.04-.58.43-.35.78-.81,1.01-1.32.05-.09.08-.19.1-.28-.01-.11-.04-.21-.08-.31l-2.42-5.99h1.3l.02.02Z"/></g></g><g id="path-5"><g id="path13_fill"><path id="path4_fill" class="cls-1" d="M29.2,18.85v1.87h1.71v.89h-1.71v3.51c0,.8.23,1.26.89,1.26.23,0,.47-.02.69-.08l.05.89c-.34.12-.7.17-1.06.16-.24.01-.48-.02-.7-.11-.22-.09-.42-.22-.59-.39-.36-.49-.53-1.09-.46-1.69v-3.56h-1.01v-.89h1.03v-1.58l1.16-.28Z"/></g></g><g id="path-6"><g id="path14_fill"><path id="path5_fill" class="cls-1" d="M33.11,24.18c-.02.3.02.61.12.89s.27.54.48.76c.21.21.47.38.76.48s.59.15.89.12c.61.01,1.22-.1,1.78-.34l.2.89c-.69.28-1.43.42-2.18.4-.44.03-.87-.03-1.28-.19-.41-.15-.78-.4-1.08-.71-.31-.31-.54-.68-.69-1.1-.15-.41-.21-.85-.17-1.28,0-1.96,1.17-3.51,3.07-3.51,2.14,0,2.67,1.87,2.67,3.06.01.18.01.37,0,.55h-4.6l.03-.04ZM36.6,23.29c.03-.24.02-.48-.05-.71-.07-.23-.18-.44-.34-.63-.16-.18-.35-.33-.57-.43-.22-.1-.46-.15-.7-.16-.49.04-.95.25-1.29.61-.34.36-.53.82-.54,1.32h3.48Z"/></g></g><g id="path-7"><g id="path15_fill"><path id="path6_fill" class="cls-1" d="M39.49,22.74c0-.77,0-1.42-.05-2.03h1.07v1.27h.05c.11-.39.34-.74.66-1,.32-.26.71-.4,1.12-.43.11-.01.23-.01.34,0v1.11c-.14-.02-.27-.02-.41,0-.4.02-.79.18-1.08.46-.29.28-.48.65-.51,1.06-.03.18-.05.37-.05.55v3.46h-1.18v-4.45h.04Z"/></g></g></g></g><g id="path-8"><g id="path16_fill"><path id="path7_fill" class="cls-1" d="M38.97,2.84c.04.6-.11,1.19-.41,1.71-.3.52-.75.93-1.29,1.19-.54.26-1.14.35-1.74.27-.59-.08-1.15-.34-1.59-.75-.45-.4-.76-.93-.91-1.51-.15-.58-.12-1.19.09-1.76.2-.56.57-1.05,1.05-1.41.48-.36,1.06-.56,1.66-.58.39-.02.79.03,1.16.17.37.13.71.33,1,.6.29.26.53.58.7.94s.27.74.28,1.13h0Z"/></g></g><g id="path-9"><g id="path17_fill"><path id="path8_fill" class="cls-1" d="M21.37,37.7c-8.01,0-15.05-2.88-18.7-7.12,1.41,3.82,3.96,7.12,7.3,9.44,3.34,2.33,7.32,3.58,11.39,3.58s8.05-1.25,11.39-3.58c3.34-2.33,5.89-5.62,7.3-9.44-3.63,4.25-10.65,7.12-18.7,7.12Z"/></g></g><g id="path-10"><g id="path18_fill"><path id="path9_fill-2" class="cls-1" d="M21.37,10.09c8.01,0,15.06,2.88,18.7,7.12-1.41-3.82-3.96-7.12-7.3-9.44-3.34-2.33-7.32-3.58-11.39-3.58s-8.05,1.25-11.39,3.58c-3.34,2.33-5.89,5.62-7.3,9.44,3.64-4.26,10.65-7.12,18.7-7.12Z"/></g></g><g id="path-11"><g id="path19_fill"><path id="path10_fill-2" class="cls-1" d="M10.34,45.97c.05.75-.13,1.5-.51,2.16-.38.65-.95,1.18-1.63,1.5-.68.33-1.44.45-2.19.34-.75-.11-1.45-.43-2.01-.94-.56-.5-.96-1.16-1.14-1.9-.18-.73-.15-1.5.11-2.21.25-.71.71-1.33,1.32-1.78.61-.45,1.33-.71,2.09-.74.49-.03.99.04,1.45.21.47.16.9.42,1.26.75.37.33.67.73.88,1.18.21.45.34.93.36,1.42h0Z"/></g></g><g id="path-12"><g id="path20_fill"><path id="path11_fill-2" class="cls-1" d="M3.58,9.12c-.43.01-.86-.1-1.22-.33-.37-.23-.66-.56-.83-.96-.18-.39-.23-.83-.16-1.26.07-.43.27-.82.56-1.14.29-.32.68-.54,1.1-.64.42-.1.86-.07,1.27.08.4.15.76.42,1.01.77.25.35.4.77.42,1.2.02.58-.2,1.15-.6,1.58-.4.43-.95.68-1.53.7Z"/></g></g></svg>