<?xml version="1.0" encoding="UTF-8"?><svg id="Layer_1" xmlns="http://www.w3.org/2000/svg" viewBox="0 0 924.39 924.41"><defs><style>.cls-1{fill:#979797;}.cls-2{fill:#1c3664;}.cls-3{fill:#1b3764;}</style></defs><g><path class="cls-3" d="M462.2,924.41C207.34,924.41,0,717.07,0,462.2H101.54c0,198.88,161.8,360.68,360.66,360.68v101.54Z"/><path class="cls-3" d="M924.39,462.2h-101.54c0-198.87-161.79-360.67-360.66-360.67V0c254.86,0,462.2,207.34,462.2,462.2Z"/></g><g><path class="cls-1" d="M198.84,462.2H97.3c0-201.2,163.69-364.89,364.9-364.89v101.54c-145.22,0-263.37,118.14-263.37,263.36Z"/><path class="cls-1" d="M462.21,827.11v-101.54c145.21,0,263.35-118.15,263.35-263.37h101.54c0,201.21-163.68,364.9-364.88,364.9Z"/></g><g><path class="cls-2" d="M599.57,443.51c-8.81,8.12-20.32,15.1-34.54,20.93-14.22,5.83-30.42,10.23-48.57,13.21-18.15,2.98-36.44,4.48-54.87,4.48s-36.24-1.56-54.26-4.67c-18.02-3.11-34.14-7.59-48.36-13.42-14.22-5.83-25.74-12.73-34.54-20.72-7.84-7.12-11.97-14.95-12.39-23.45v46.83c0,17.88,14.9,33.13,44.71,45.73,29.81,12.6,64.89,18.9,105.27,18.9s75.86-6.3,105.67-18.9c29.81-12.6,44.71-27.84,44.71-45.73v-49.99c.27,9.76-4,18.7-12.81,26.82h0Z"/><path class="cls-2" d="M599.57,533.74c-8.81,8.12-20.32,15.04-34.54,20.72-14.22,5.69-30.42,9.95-48.57,12.81-18.15,2.84-36.44,4.27-54.87,4.27s-36.24-1.49-54.26-4.48c-18.02-2.98-34.14-7.32-48.36-13-14.22-5.69-25.74-12.53-34.54-20.53-7.84-7.12-11.97-14.95-12.39-23.45v46.83c0,17.88,14.9,33.13,44.71,45.73,29.81,12.6,64.89,18.9,105.27,18.9s75.86-6.3,105.67-18.9c29.81-12.6,44.71-27.84,44.71-45.73v-49.99c.27,9.76-4,18.7-12.81,26.82Z"/><path class="cls-2" d="M570.51,324.43c-27.91-14.36-64.08-21.54-108.52-21.54s-80.88,7.18-108.52,21.54c-27.64,14.36-41.46,30.35-41.46,47.96s13.89,34.21,41.66,48.16c27.77,13.95,63.88,20.93,108.31,20.93s80.95-7.05,108.72-21.14c27.77-14.09,41.66-29.94,41.66-47.55s-13.95-34-41.86-48.36h.02Z"/></g></svg>