<?xml version="1.0" encoding="UTF-8"?><svg id="Components" xmlns="http://www.w3.org/2000/svg" viewBox="0 0 180 180"><defs><style>.cls-1{fill:#989898;}.cls-2{fill:#1c3664;}</style></defs><g id="Compute"><g><path class="cls-2" d="M68.09,121.5c0,2.48-2.18,4.5-4.86,4.5h0c-2.68,0-4.86-2.02-4.86-4.5V58.5c0-2.49,2.18-4.5,4.86-4.5h0c2.68,0,4.86,2.01,4.86,4.5v63Z"/><path class="cls-2" d="M121.63,121.5c0,2.48-2.18,4.5-4.85,4.5h0c-2.68,0-4.85-2.02-4.85-4.5V58.5c0-2.49,2.18-4.5,4.85-4.5h0c2.68,0,4.85,2.01,4.85,4.5v63Z"/><path class="cls-2" d="M81.03,74.08h-9.85c-1.15,0-2.08-.93-2.08-2.08s.93-2.08,2.08-2.08h9.85c1.15,0,2.08,.93,2.08,2.08s-.93,2.08-2.08,2.08Z"/><path class="cls-2" d="M109.55,92h-9.85c-1.15,0-2.08-.93-2.08-2.08s.93-2.08,2.08-2.08h9.85c1.15,0,2.08,.93,2.08,2.08s-.93,2.08-2.08,2.08Z"/><path class="cls-2" d="M95.13,110h-9.85c-1.15,0-2.08-.93-2.08-2.08s.93-2.08,2.08-2.08h9.85c1.15,0,2.08,.93,2.08,2.08s-.93,2.08-2.08,2.08Z"/><path class="cls-2" d="M90.2,80.89c-2.87,0-5.19-2.33-5.19-5.19v-7.2c0-2.87,2.33-5.19,5.19-5.19s5.19,2.33,5.19,5.19v7.2c0,2.87-2.33,5.19-5.19,5.19Z"/><path class="cls-2" d="M90.2,98.79c-2.87,0-5.19-2.33-5.19-5.19v-7.2c0-2.87,2.33-5.19,5.19-5.19s5.19,2.33,5.19,5.19v7.2c0,2.87-2.33,5.19-5.19,5.19Z"/><path class="cls-2" d="M104.63,116.72c-2.87,0-5.19-2.33-5.19-5.19v-7.2c0-2.87,2.33-5.19,5.19-5.19s5.19,2.33,5.19,5.19v7.2c0,2.87-2.33,5.19-5.19,5.19Z"/><path class="cls-2" d="M104.63,80.79c-2.87,0-5.19-2.33-5.19-5.19v-7.2c0-2.87,2.33-5.19,5.19-5.19s5.19,2.33,5.19,5.19v7.2c0,2.87-2.33,5.19-5.19,5.19Z"/><path class="cls-2" d="M76.11,98.72c-2.87,0-5.19-2.33-5.19-5.19v-7.2c0-2.87,2.33-5.19,5.19-5.19s5.19,2.33,5.19,5.19v7.2c0,2.87-2.33,5.19-5.19,5.19Z"/><path class="cls-2" d="M76.11,116.72c-2.87,0-5.19-2.33-5.19-5.19v-7.2c0-2.87,2.33-5.19,5.19-5.19s5.19,2.33,5.19,5.19v7.2c0,2.87-2.33,5.19-5.19,5.19Z"/></g><g id="sciserver_circles"><g><path class="cls-1" d="M37.16,90.53H19.16c0-39.06,31.78-70.84,70.84-70.84v18c-29.14,0-52.84,23.71-52.84,52.84Z"/><path class="cls-1" d="M90,161.37v-18c29.14,0,52.84-23.71,52.84-52.84h18c0,39.06-31.78,70.84-70.84,70.84Z"/></g><g><path class="cls-2" d="M90,180C40.37,180,0,139.63,0,90H18c0,39.7,32.3,72,72,72v18Z"/><path class="cls-2" d="M180,90h-18c0-39.7-32.3-72-72-72V0c49.63,0,90,40.37,90,90Z"/></g></g></g></svg>