<?xml version="1.0" encoding="UTF-8"?>
<svg id="Layer_1" data-name="Layer 1" xmlns="http://www.w3.org/2000/svg" viewBox="0 0 152.63 87.99">
  <defs>
    <style>
      .cls-1 {
        fill: #1d361a;
      }

      .cls-2 {
        fill: #231f20;
        stroke: #231f20;
        stroke-miterlimit: 10;
      }

      .cls-3 {
        opacity: .2;
      }

      .cls-4 {
        fill: #aa327a;
        opacity: .9;
      }
    </style>
  </defs>
  <path class="cls-1" d="M24.39,28.14v-1.39h1.39v1.39h-1.39Zm0,1.39v-1.39h1.39v1.39h-1.39Zm0,1.39v-1.39h1.39v1.39h-1.39Zm1.39,0v1.39h-1.39v-1.39h1.39Zm0,1.39v1.39h-1.39v-1.39h1.39Zm0,1.39v1.39h-1.39v-1.39h1.39Zm0,1.39v1.39h-1.39v-1.39h1.39Zm0,9.75v1.39h-1.39v-1.39h1.39Zm0,1.39v1.39h-1.39v-1.39h1.39Zm0,1.39v1.39h-1.39v-1.39h1.39Zm0,1.39v1.39h-1.39v-1.39h1.39Zm0-23.67v-1.39h1.39v1.39h-1.39Zm0,1.39v-1.39h1.39v1.39h-1.39Zm0,1.39v-1.39h1.39v1.39h-1.39Zm0,1.39v-1.39h1.39v1.39h-1.39Zm0,1.39v-1.39h1.39v1.39h-1.39Zm1.39,0v1.39h-1.39v-1.39h1.39Zm0,1.39v1.39h-1.39v-1.39h1.39Zm0,1.39v1.39h-1.39v-1.39h1.39Zm0,1.39v1.39h-1.39v-1.39h1.39Zm0,1.39v1.39h-1.39v-1.39h1.39Zm0,1.39v1.39h-1.39v-1.39h1.39Zm0,6.96v1.39h-1.39v-1.39h1.39Zm0,1.39v1.39h-1.39v-1.39h1.39Zm0,1.39v1.39h-1.39v-1.39h1.39Zm0,1.39v1.39h-1.39v-1.39h1.39Zm0,1.39v1.39h-1.39v-1.39h1.39Zm0,1.39v1.39h-1.39v-1.39h1.39Zm0-27.85v-1.39h1.39v1.39h-1.39Zm0,1.39v-1.39h1.39v1.39h-1.39Zm0,1.39v-1.39h1.39v1.39h-1.39Zm0,1.39v-1.39h1.39v1.39h-1.39Zm0,1.39v-1.39h1.39v1.39h-1.39Zm0,1.39v-1.39h1.39v1.39h-1.39Zm1.39,0v1.39h-1.39v-1.39h1.39Zm0,1.39v1.39h-1.39v-1.39h1.39Zm0,1.39v1.39h-1.39v-1.39h1.39Zm0,1.39v1.39h-1.39v-1.39h1.39Zm0,1.39v1.39h-1.39v-1.39h1.39Zm0,1.39v1.39h-1.39v-1.39h1.39Zm0,1.39v1.39h-1.39v-1.39h1.39Zm0,5.57v1.39h-1.39v-1.39h1.39Zm0,1.39v1.39h-1.39v-1.39h1.39Zm0,1.39v1.39h-1.39v-1.39h1.39Zm0,1.39v1.39h-1.39v-1.39h1.39Zm0,1.39v1.39h-1.39v-1.39h1.39Zm0,1.39v1.39h-1.39v-1.39h1.39Zm0,1.39v1.39h-1.39v-1.39h1.39Zm0-29.24v-1.39h1.39v1.39h-1.39Zm0,1.39v-1.39h1.39v1.39h-1.39Zm0,1.39v-1.39h1.39v1.39h-1.39Zm0,1.39v-1.39h1.39v1.39h-1.39Zm0,1.39v-1.39h1.39v1.39h-1.39Zm0,1.39v-1.39h1.39v1.39h-1.39Zm1.39,0v1.39h-1.39v-1.39h1.39Zm0,1.39v1.39h-1.39v-1.39h1.39Zm0,1.39v1.39h-1.39v-1.39h1.39Zm0,1.39v1.39h-1.39v-1.39h1.39Zm0,1.39v1.39h-1.39v-1.39h1.39Zm0,1.39v1.39h-1.39v-1.39h1.39Zm0,1.39v1.39h-1.39v-1.39h1.39Zm0,5.57v1.39h-1.39v-1.39h1.39Zm0,1.39v1.39h-1.39v-1.39h1.39Zm0,1.39v1.39h-1.39v-1.39h1.39Zm0,1.39v1.39h-1.39v-1.39h1.39Zm0,1.39v1.39h-1.39v-1.39h1.39Zm0,1.39v1.39h-1.39v-1.39h1.39Zm0,1.39v1.39h-1.39v-1.39h1.39Zm0-30.63v-1.39h1.39v1.39h-1.39Zm0,1.39v-1.39h1.39v1.39h-1.39Zm0,1.39v-1.39h1.39v1.39h-1.39Zm0,1.39v-1.39h1.39v1.39h-1.39Zm0,1.39v-1.39h1.39v1.39h-1.39Zm0,1.39v-1.39h1.39v1.39h-1.39Zm0,1.39v-1.39h1.39v1.39h-1.39Zm1.39,0v1.39h-1.39v-1.39h1.39Zm0,1.39v1.39h-1.39v-1.39h1.39Zm0,1.39v1.39h-1.39v-1.39h1.39Zm0,1.39v1.39h-1.39v-1.39h1.39Zm0,1.39v1.39h-1.39v-1.39h1.39Zm0,1.39v1.39h-1.39v-1.39h1.39Zm0,1.39v1.39h-1.39v-1.39h1.39Zm0,1.39v1.39h-1.39v-1.39h1.39Zm0,4.18v1.39h-1.39v-1.39h1.39Zm0,1.39v1.39h-1.39v-1.39h1.39Zm0,1.39v1.39h-1.39v-1.39h1.39Zm0,1.39v1.39h-1.39v-1.39h1.39Zm0,1.39v1.39h-1.39v-1.39h1.39Zm0,1.39v1.39h-1.39v-1.39h1.39Zm0,1.39v1.39h-1.39v-1.39h1.39Zm0,1.39v1.39h-1.39v-1.39h1.39Zm0-32.02v-1.39h1.39v1.39h-1.39Zm0,1.39v-1.39h1.39v1.39h-1.39Zm0,1.39v-1.39h1.39v1.39h-1.39Zm0,1.39v-1.39h1.39v1.39h-1.39Zm0,1.39v-1.39h1.39v1.39h-1.39Zm1.39,0v1.39h-1.39v-1.39h1.39Zm0,5.57v1.39h-1.39v-1.39h1.39Zm0,1.39v1.39h-1.39v-1.39h1.39Zm0,1.39v1.39h-1.39v-1.39h1.39Zm0,1.39v1.39h-1.39v-1.39h1.39Zm0,1.39v1.39h-1.39v-1.39h1.39Zm0,1.39v1.39h-1.39v-1.39h1.39Zm0,6.96v1.39h-1.39v-1.39h1.39Zm0,1.39v1.39h-1.39v-1.39h1.39Zm0,1.39v1.39h-1.39v-1.39h1.39Zm0,1.39v1.39h-1.39v-1.39h1.39Zm0,1.39v1.39h-1.39v-1.39h1.39Zm0,1.39v1.39h-1.39v-1.39h1.39Zm0-32.02v-1.39h1.39v1.39h-1.39Zm0,1.39v-1.39h1.39v1.39h-1.39Zm0,1.39v-1.39h1.39v1.39h-1.39Zm0,1.39v-1.39h1.39v1.39h-1.39Zm1.39,0v1.39h-1.39v-1.39h1.39Zm0,8.35v1.39h-1.39v-1.39h1.39Zm0,1.39v1.39h-1.39v-1.39h1.39Zm0,1.39v1.39h-1.39v-1.39h1.39Zm0,1.39v1.39h-1.39v-1.39h1.39Zm0,1.39v1.39h-1.39v-1.39h1.39Zm0,8.35v1.39h-1.39v-1.39h1.39Zm0,1.39v1.39h-1.39v-1.39h1.39Zm0,1.39v1.39h-1.39v-1.39h1.39Zm0,1.39v1.39h-1.39v-1.39h1.39Zm0,1.39v1.39h-1.39v-1.39h1.39Zm0-32.02v-1.39h1.39v1.39h-1.39Zm0,1.39v-1.39h1.39v1.39h-1.39Zm0,1.39v-1.39h1.39v1.39h-1.39Zm0,1.39v-1.39h1.39v1.39h-1.39Zm1.39,0v1.39h-1.39v-1.39h1.39Zm0,8.35v1.39h-1.39v-1.39h1.39Zm0,1.39v1.39h-1.39v-1.39h1.39Zm0,1.39v1.39h-1.39v-1.39h1.39Zm0,1.39v1.39h-1.39v-1.39h1.39Zm0,1.39v1.39h-1.39v-1.39h1.39Zm0,8.35v1.39h-1.39v-1.39h1.39Zm0,1.39v1.39h-1.39v-1.39h1.39Zm0,1.39v1.39h-1.39v-1.39h1.39Zm0,1.39v1.39h-1.39v-1.39h1.39Zm0,1.39v1.39h-1.39v-1.39h1.39Zm1.39-33.42v1.39h-1.39v-1.39h1.39Zm0,1.39v1.39h-1.39v-1.39h1.39Zm0,1.39v1.39h-1.39v-1.39h1.39Zm0,1.39v1.39h-1.39v-1.39h1.39Zm0,1.39v1.39h-1.39v-1.39h1.39Zm0,8.35v1.39h-1.39v-1.39h1.39Zm0,1.39v1.39h-1.39v-1.39h1.39Zm0,1.39v1.39h-1.39v-1.39h1.39Zm0,1.39v1.39h-1.39v-1.39h1.39Zm0,1.39v1.39h-1.39v-1.39h1.39Zm0,8.35v1.39h-1.39v-1.39h1.39Zm0,1.39v1.39h-1.39v-1.39h1.39Zm0,1.39v1.39h-1.39v-1.39h1.39Zm0,1.39v1.39h-1.39v-1.39h1.39Zm0,1.39v1.39h-1.39v-1.39h1.39Zm0-32.02v-1.39h1.39v1.39h-1.39Zm0,1.39v-1.39h1.39v1.39h-1.39Zm0,1.39v-1.39h1.39v1.39h-1.39Zm0,1.39v-1.39h1.39v1.39h-1.39Zm1.39,0v1.39h-1.39v-1.39h1.39Zm0,8.35v1.39h-1.39v-1.39h1.39Zm0,1.39v1.39h-1.39v-1.39h1.39Zm0,1.39v1.39h-1.39v-1.39h1.39Zm0,1.39v1.39h-1.39v-1.39h1.39Zm0,1.39v1.39h-1.39v-1.39h1.39Zm0,8.35v1.39h-1.39v-1.39h1.39Zm0,1.39v1.39h-1.39v-1.39h1.39Zm0,1.39v1.39h-1.39v-1.39h1.39Zm0,1.39v1.39h-1.39v-1.39h1.39Zm0,1.39v1.39h-1.39v-1.39h1.39Zm0-32.02v-1.39h1.39v1.39h-1.39Zm0,1.39v-1.39h1.39v1.39h-1.39Zm0,1.39v-1.39h1.39v1.39h-1.39Zm0,1.39v-1.39h1.39v1.39h-1.39Zm1.39,0v1.39h-1.39v-1.39h1.39Zm0,8.35v1.39h-1.39v-1.39h1.39Zm0,1.39v1.39h-1.39v-1.39h1.39Zm0,1.39v1.39h-1.39v-1.39h1.39Zm0,1.39v1.39h-1.39v-1.39h1.39Zm0,1.39v1.39h-1.39v-1.39h1.39Zm0,8.35v1.39h-1.39v-1.39h1.39Zm0,1.39v1.39h-1.39v-1.39h1.39Zm0,1.39v1.39h-1.39v-1.39h1.39Zm0,1.39v1.39h-1.39v-1.39h1.39Zm0,1.39v1.39h-1.39v-1.39h1.39Zm0-32.02v-1.39h1.39v1.39h-1.39Zm0,1.39v-1.39h1.39v1.39h-1.39Zm0,1.39v-1.39h1.39v1.39h-1.39Zm0,1.39v-1.39h1.39v1.39h-1.39Zm0,1.39v-1.39h1.39v1.39h-1.39Zm1.39,0v1.39h-1.39v-1.39h1.39Zm0,6.96v1.39h-1.39v-1.39h1.39Zm0,1.39v1.39h-1.39v-1.39h1.39Zm0,1.39v1.39h-1.39v-1.39h1.39Zm0,1.39v1.39h-1.39v-1.39h1.39Zm0,1.39v1.39h-1.39v-1.39h1.39Zm0,1.39v1.39h-1.39v-1.39h1.39Zm0,5.57v1.39h-1.39v-1.39h1.39Zm0,1.39v1.39h-1.39v-1.39h1.39Zm0,1.39v1.39h-1.39v-1.39h1.39Zm0,1.39v1.39h-1.39v-1.39h1.39Zm0,1.39v1.39h-1.39v-1.39h1.39Zm0,1.39v1.39h-1.39v-1.39h1.39Zm0-32.02v-1.39h1.39v1.39h-1.39Zm0,1.39v-1.39h1.39v1.39h-1.39Zm0,1.39v-1.39h1.39v1.39h-1.39Zm0,1.39v-1.39h1.39v1.39h-1.39Zm0,1.39v-1.39h1.39v1.39h-1.39Zm0,1.39v-1.39h1.39v1.39h-1.39Zm0,1.39v-1.39h1.39v1.39h-1.39Zm1.39,4.18v1.39h-1.39v-1.39h1.39Zm0,1.39v1.39h-1.39v-1.39h1.39Zm0,1.39v1.39h-1.39v-1.39h1.39Zm0,1.39v1.39h-1.39v-1.39h1.39Zm0,1.39v1.39h-1.39v-1.39h1.39Zm0,1.39v1.39h-1.39v-1.39h1.39Zm0,1.39v1.39h-1.39v-1.39h1.39Zm0,1.39v1.39h-1.39v-1.39h1.39Zm0,1.39v1.39h-1.39v-1.39h1.39Zm0,1.39v1.39h-1.39v-1.39h1.39Zm0,1.39v1.39h-1.39v-1.39h1.39Zm0,1.39v1.39h-1.39v-1.39h1.39Zm0,1.39v1.39h-1.39v-1.39h1.39Zm0,1.39v1.39h-1.39v-1.39h1.39Zm0,1.39v1.39h-1.39v-1.39h1.39Zm0-30.63v-1.39h1.39v1.39h-1.39Zm0,1.39v-1.39h1.39v1.39h-1.39Zm0,1.39v-1.39h1.39v1.39h-1.39Zm0,1.39v-1.39h1.39v1.39h-1.39Zm0,1.39v-1.39h1.39v1.39h-1.39Zm0,1.39v-1.39h1.39v1.39h-1.39Zm1.39,5.57v1.39h-1.39v-1.39h1.39Zm0,1.39v1.39h-1.39v-1.39h1.39Zm0,1.39v1.39h-1.39v-1.39h1.39Zm0,1.39v1.39h-1.39v-1.39h1.39Zm0,1.39v1.39h-1.39v-1.39h1.39Zm0,1.39v1.39h-1.39v-1.39h1.39Zm0,1.39v1.39h-1.39v-1.39h1.39Zm0,1.39v1.39h-1.39v-1.39h1.39Zm0,1.39v1.39h-1.39v-1.39h1.39Zm0,1.39v1.39h-1.39v-1.39h1.39Zm0,1.39v1.39h-1.39v-1.39h1.39Zm0,1.39v1.39h-1.39v-1.39h1.39Zm0,1.39v1.39h-1.39v-1.39h1.39Zm0-29.24v-1.39h1.39v1.39h-1.39Zm0,1.39v-1.39h1.39v1.39h-1.39Zm0,1.39v-1.39h1.39v1.39h-1.39Zm0,1.39v-1.39h1.39v1.39h-1.39Zm0,1.39v-1.39h1.39v1.39h-1.39Zm0,1.39v-1.39h1.39v1.39h-1.39Zm1.39,5.57v1.39h-1.39v-1.39h1.39Zm0,1.39v1.39h-1.39v-1.39h1.39Zm0,1.39v1.39h-1.39v-1.39h1.39Zm0,1.39v1.39h-1.39v-1.39h1.39Zm0,1.39v1.39h-1.39v-1.39h1.39Zm0,1.39v1.39h-1.39v-1.39h1.39Zm0,1.39v1.39h-1.39v-1.39h1.39Zm0,1.39v1.39h-1.39v-1.39h1.39Zm0,1.39v1.39h-1.39v-1.39h1.39Zm0,1.39v1.39h-1.39v-1.39h1.39Zm0,1.39v1.39h-1.39v-1.39h1.39Zm0,1.39v1.39h-1.39v-1.39h1.39Zm0,1.39v1.39h-1.39v-1.39h1.39Zm0-27.85v-1.39h1.39v1.39h-1.39Zm0,1.39v-1.39h1.39v1.39h-1.39Zm0,1.39v-1.39h1.39v1.39h-1.39Zm0,1.39v-1.39h1.39v1.39h-1.39Zm0,1.39v-1.39h1.39v1.39h-1.39Zm1.39,6.96v1.39h-1.39v-1.39h1.39Zm0,1.39v1.39h-1.39v-1.39h1.39Zm0,1.39v1.39h-1.39v-1.39h1.39Zm0,1.39v1.39h-1.39v-1.39h1.39Zm0,1.39v1.39h-1.39v-1.39h1.39Zm0,1.39v1.39h-1.39v-1.39h1.39Zm0,1.39v1.39h-1.39v-1.39h1.39Zm0,1.39v1.39h-1.39v-1.39h1.39Zm0,1.39v1.39h-1.39v-1.39h1.39Zm0,1.39v1.39h-1.39v-1.39h1.39Zm0,1.39v1.39h-1.39v-1.39h1.39Zm0-23.67v-1.39h1.39v1.39h-1.39Zm0,1.39v-1.39h1.39v1.39h-1.39Zm0,1.39v-1.39h1.39v1.39h-1.39Zm1.39,9.75v1.39h-1.39v-1.39h1.39Zm0,1.39v1.39h-1.39v-1.39h1.39Zm0,1.39v1.39h-1.39v-1.39h1.39Zm0,1.39v1.39h-1.39v-1.39h1.39Zm0,1.39v1.39h-1.39v-1.39h1.39Zm0,1.39v1.39h-1.39v-1.39h1.39Zm0,1.39v1.39h-1.39v-1.39h1.39Z"/>
  <path class="cls-1" d="M53.63,35.1v1.39h-1.39v-1.39h1.39Zm0,1.39v1.39h-1.39v-1.39h1.39Zm0,1.39v1.39h-1.39v-1.39h1.39Zm0,1.39v1.39h-1.39v-1.39h1.39Zm0,1.39v1.39h-1.39v-1.39h1.39Zm0,1.39v1.39h-1.39v-1.39h1.39Zm0,1.39v1.39h-1.39v-1.39h1.39Zm0,1.39v1.39h-1.39v-1.39h1.39Zm0,1.39v1.39h-1.39v-1.39h1.39Zm0,1.39v1.39h-1.39v-1.39h1.39Zm0,1.39v1.39h-1.39v-1.39h1.39Zm1.39-16.71v1.39h-1.39v-1.39h1.39Zm0,1.39v1.39h-1.39v-1.39h1.39Zm0,1.39v1.39h-1.39v-1.39h1.39Zm0,1.39v1.39h-1.39v-1.39h1.39Zm0,1.39v1.39h-1.39v-1.39h1.39Zm0,1.39v1.39h-1.39v-1.39h1.39Zm0,1.39v1.39h-1.39v-1.39h1.39Zm0,1.39v1.39h-1.39v-1.39h1.39Zm0,1.39v1.39h-1.39v-1.39h1.39Zm0,1.39v1.39h-1.39v-1.39h1.39Zm0,1.39v1.39h-1.39v-1.39h1.39Zm0,1.39v1.39h-1.39v-1.39h1.39Zm0,1.39v1.39h-1.39v-1.39h1.39Zm0,1.39v1.39h-1.39v-1.39h1.39Zm0,1.39v1.39h-1.39v-1.39h1.39Zm1.39-20.88v1.39h-1.39v-1.39h1.39Zm0,1.39v1.39h-1.39v-1.39h1.39Zm0,1.39v1.39h-1.39v-1.39h1.39Zm0,1.39v1.39h-1.39v-1.39h1.39Zm0,1.39v1.39h-1.39v-1.39h1.39Zm0,1.39v1.39h-1.39v-1.39h1.39Zm0,1.39v1.39h-1.39v-1.39h1.39Zm0,1.39v1.39h-1.39v-1.39h1.39Zm0,1.39v1.39h-1.39v-1.39h1.39Zm0,1.39v1.39h-1.39v-1.39h1.39Zm0,1.39v1.39h-1.39v-1.39h1.39Zm0,1.39v1.39h-1.39v-1.39h1.39Zm0,1.39v1.39h-1.39v-1.39h1.39Zm0,1.39v1.39h-1.39v-1.39h1.39Zm0,1.39v1.39h-1.39v-1.39h1.39Zm0,1.39v1.39h-1.39v-1.39h1.39Zm0,1.39v1.39h-1.39v-1.39h1.39Zm1.39-22.28v1.39h-1.39v-1.39h1.39Zm0,1.39v1.39h-1.39v-1.39h1.39Zm0,1.39v1.39h-1.39v-1.39h1.39Zm0,1.39v1.39h-1.39v-1.39h1.39Zm0,1.39v1.39h-1.39v-1.39h1.39Zm0,1.39v1.39h-1.39v-1.39h1.39Zm0,1.39v1.39h-1.39v-1.39h1.39Zm0,1.39v1.39h-1.39v-1.39h1.39Zm0,1.39v1.39h-1.39v-1.39h1.39Zm0,1.39v1.39h-1.39v-1.39h1.39Zm0,1.39v1.39h-1.39v-1.39h1.39Zm0,1.39v1.39h-1.39v-1.39h1.39Zm0,1.39v1.39h-1.39v-1.39h1.39Zm0,1.39v1.39h-1.39v-1.39h1.39Zm0,1.39v1.39h-1.39v-1.39h1.39Zm0,1.39v1.39h-1.39v-1.39h1.39Zm0,1.39v1.39h-1.39v-1.39h1.39Zm1.39-23.67v1.39h-1.39v-1.39h1.39Zm0,1.39v1.39h-1.39v-1.39h1.39Zm0,1.39v1.39h-1.39v-1.39h1.39Zm0,1.39v1.39h-1.39v-1.39h1.39Zm0,1.39v1.39h-1.39v-1.39h1.39Zm0,1.39v1.39h-1.39v-1.39h1.39Zm0,1.39v1.39h-1.39v-1.39h1.39Zm0,1.39v1.39h-1.39v-1.39h1.39Zm0,1.39v1.39h-1.39v-1.39h1.39Zm0,1.39v1.39h-1.39v-1.39h1.39Zm0,1.39v1.39h-1.39v-1.39h1.39Zm0,1.39v1.39h-1.39v-1.39h1.39Zm0,1.39v1.39h-1.39v-1.39h1.39Zm0,1.39v1.39h-1.39v-1.39h1.39Zm0,1.39v1.39h-1.39v-1.39h1.39Zm0,1.39v1.39h-1.39v-1.39h1.39Zm0,1.39v1.39h-1.39v-1.39h1.39Zm0,1.39v1.39h-1.39v-1.39h1.39Zm0,1.39v1.39h-1.39v-1.39h1.39Zm1.39-25.06v1.39h-1.39v-1.39h1.39Zm0,1.39v1.39h-1.39v-1.39h1.39Zm0,1.39v1.39h-1.39v-1.39h1.39Zm0,1.39v1.39h-1.39v-1.39h1.39Zm0,1.39v1.39h-1.39v-1.39h1.39Zm0,13.92v1.39h-1.39v-1.39h1.39Zm0,1.39v1.39h-1.39v-1.39h1.39Zm0,1.39v1.39h-1.39v-1.39h1.39Zm0,1.39v1.39h-1.39v-1.39h1.39Zm0,1.39v1.39h-1.39v-1.39h1.39Zm1.39-25.06v1.39h-1.39v-1.39h1.39Zm0,1.39v1.39h-1.39v-1.39h1.39Zm0,1.39v1.39h-1.39v-1.39h1.39Zm0,1.39v1.39h-1.39v-1.39h1.39Zm0,16.71v1.39h-1.39v-1.39h1.39Zm0,1.39v1.39h-1.39v-1.39h1.39Zm0,1.39v1.39h-1.39v-1.39h1.39Zm0,1.39v1.39h-1.39v-1.39h1.39Zm1.39-25.06v1.39h-1.39v-1.39h1.39Zm0,1.39v1.39h-1.39v-1.39h1.39Zm0,1.39v1.39h-1.39v-1.39h1.39Zm0,1.39v1.39h-1.39v-1.39h1.39Zm0,16.71v1.39h-1.39v-1.39h1.39Zm0,1.39v1.39h-1.39v-1.39h1.39Zm0,1.39v1.39h-1.39v-1.39h1.39Zm0,1.39v1.39h-1.39v-1.39h1.39Zm1.39-25.06v1.39h-1.39v-1.39h1.39Zm0,1.39v1.39h-1.39v-1.39h1.39Zm0,1.39v1.39h-1.39v-1.39h1.39Zm0,1.39v1.39h-1.39v-1.39h1.39Zm0,16.71v1.39h-1.39v-1.39h1.39Zm0,1.39v1.39h-1.39v-1.39h1.39Zm0,1.39v1.39h-1.39v-1.39h1.39Zm0,1.39v1.39h-1.39v-1.39h1.39Zm1.39-25.06v1.39h-1.39v-1.39h1.39Zm0,1.39v1.39h-1.39v-1.39h1.39Zm0,1.39v1.39h-1.39v-1.39h1.39Zm0,1.39v1.39h-1.39v-1.39h1.39Zm0,16.71v1.39h-1.39v-1.39h1.39Zm0,1.39v1.39h-1.39v-1.39h1.39Zm0,1.39v1.39h-1.39v-1.39h1.39Zm0,1.39v1.39h-1.39v-1.39h1.39Zm1.39-25.06v1.39h-1.39v-1.39h1.39Zm0,1.39v1.39h-1.39v-1.39h1.39Zm0,1.39v1.39h-1.39v-1.39h1.39Zm0,1.39v1.39h-1.39v-1.39h1.39Zm0,1.39v1.39h-1.39v-1.39h1.39Zm0,13.92v1.39h-1.39v-1.39h1.39Zm0,1.39v1.39h-1.39v-1.39h1.39Zm0,1.39v1.39h-1.39v-1.39h1.39Zm0,1.39v1.39h-1.39v-1.39h1.39Zm0,1.39v1.39h-1.39v-1.39h1.39Zm1.39-25.06v1.39h-1.39v-1.39h1.39Zm0,1.39v1.39h-1.39v-1.39h1.39Zm0,1.39v1.39h-1.39v-1.39h1.39Zm0,1.39v1.39h-1.39v-1.39h1.39Zm0,1.39v1.39h-1.39v-1.39h1.39Zm0,1.39v1.39h-1.39v-1.39h1.39Zm0,1.39v1.39h-1.39v-1.39h1.39Zm0,8.35v1.39h-1.39v-1.39h1.39Zm0,1.39v1.39h-1.39v-1.39h1.39Zm0,1.39v1.39h-1.39v-1.39h1.39Zm0,1.39v1.39h-1.39v-1.39h1.39Zm0,1.39v1.39h-1.39v-1.39h1.39Zm0,1.39v1.39h-1.39v-1.39h1.39Zm0,1.39v1.39h-1.39v-1.39h1.39Zm1.39-23.67v1.39h-1.39v-1.39h1.39Zm0,1.39v1.39h-1.39v-1.39h1.39Zm0,1.39v1.39h-1.39v-1.39h1.39Zm0,1.39v1.39h-1.39v-1.39h1.39Zm0,1.39v1.39h-1.39v-1.39h1.39Zm0,1.39v1.39h-1.39v-1.39h1.39Zm0,8.35v1.39h-1.39v-1.39h1.39Zm0,1.39v1.39h-1.39v-1.39h1.39Zm0,1.39v1.39h-1.39v-1.39h1.39Zm0,1.39v1.39h-1.39v-1.39h1.39Zm0,1.39v1.39h-1.39v-1.39h1.39Zm0,1.39v1.39h-1.39v-1.39h1.39Zm1.39-22.28v1.39h-1.39v-1.39h1.39Zm0,1.39v1.39h-1.39v-1.39h1.39Zm0,1.39v1.39h-1.39v-1.39h1.39Zm0,1.39v1.39h-1.39v-1.39h1.39Zm0,1.39v1.39h-1.39v-1.39h1.39Zm0,1.39v1.39h-1.39v-1.39h1.39Zm0,8.35v1.39h-1.39v-1.39h1.39Zm0,1.39v1.39h-1.39v-1.39h1.39Zm0,1.39v1.39h-1.39v-1.39h1.39Zm0,1.39v1.39h-1.39v-1.39h1.39Zm0,1.39v1.39h-1.39v-1.39h1.39Zm0,1.39v1.39h-1.39v-1.39h1.39Zm1.39-20.88v1.39h-1.39v-1.39h1.39Zm0,1.39v1.39h-1.39v-1.39h1.39Zm0,1.39v1.39h-1.39v-1.39h1.39Zm0,1.39v1.39h-1.39v-1.39h1.39Zm0,1.39v1.39h-1.39v-1.39h1.39Zm0,8.35v1.39h-1.39v-1.39h1.39Zm0,1.39v1.39h-1.39v-1.39h1.39Zm0,1.39v1.39h-1.39v-1.39h1.39Zm0,1.39v1.39h-1.39v-1.39h1.39Zm0,1.39v1.39h-1.39v-1.39h1.39Zm1.39-16.71v1.39h-1.39v-1.39h1.39Zm0,1.39v1.39h-1.39v-1.39h1.39Zm0,1.39v1.39h-1.39v-1.39h1.39Zm0,8.35v1.39h-1.39v-1.39h1.39Zm0,1.39v1.39h-1.39v-1.39h1.39Zm0,1.39v1.39h-1.39v-1.39h1.39Z"/>
  <path class="cls-1" d="M80.08,30.93v1.39h-1.39v-1.39h1.39Zm0,1.39v1.39h-1.39v-1.39h1.39Zm0,1.39v1.39h-1.39v-1.39h1.39Zm0,1.39v1.39h-1.39v-1.39h1.39Zm0,1.39v1.39h-1.39v-1.39h1.39Zm0,1.39v1.39h-1.39v-1.39h1.39Zm0,1.39v1.39h-1.39v-1.39h1.39Zm0,1.39v1.39h-1.39v-1.39h1.39Zm0,1.39v1.39h-1.39v-1.39h1.39Zm0,1.39v1.39h-1.39v-1.39h1.39Zm0,1.39v1.39h-1.39v-1.39h1.39Zm0,1.39v1.39h-1.39v-1.39h1.39Zm0,1.39v1.39h-1.39v-1.39h1.39Zm0,1.39v1.39h-1.39v-1.39h1.39Zm0,1.39v1.39h-1.39v-1.39h1.39Zm0,1.39v1.39h-1.39v-1.39h1.39Zm0,1.39v1.39h-1.39v-1.39h1.39Zm0,1.39v1.39h-1.39v-1.39h1.39Zm1.39-23.67v1.39h-1.39v-1.39h1.39Zm0,1.39v1.39h-1.39v-1.39h1.39Zm0,1.39v1.39h-1.39v-1.39h1.39Zm0,1.39v1.39h-1.39v-1.39h1.39Zm0,1.39v1.39h-1.39v-1.39h1.39Zm0,1.39v1.39h-1.39v-1.39h1.39Zm0,1.39v1.39h-1.39v-1.39h1.39Zm0,1.39v1.39h-1.39v-1.39h1.39Zm0,1.39v1.39h-1.39v-1.39h1.39Zm0,1.39v1.39h-1.39v-1.39h1.39Zm0,1.39v1.39h-1.39v-1.39h1.39Zm0,1.39v1.39h-1.39v-1.39h1.39Zm0,1.39v1.39h-1.39v-1.39h1.39Zm0,1.39v1.39h-1.39v-1.39h1.39Zm0,1.39v1.39h-1.39v-1.39h1.39Zm0,1.39v1.39h-1.39v-1.39h1.39Zm0,1.39v1.39h-1.39v-1.39h1.39Zm0,1.39v1.39h-1.39v-1.39h1.39Zm1.39-23.67v1.39h-1.39v-1.39h1.39Zm0,1.39v1.39h-1.39v-1.39h1.39Zm0,1.39v1.39h-1.39v-1.39h1.39Zm0,1.39v1.39h-1.39v-1.39h1.39Zm0,1.39v1.39h-1.39v-1.39h1.39Zm0,1.39v1.39h-1.39v-1.39h1.39Zm0,1.39v1.39h-1.39v-1.39h1.39Zm0,1.39v1.39h-1.39v-1.39h1.39Zm0,1.39v1.39h-1.39v-1.39h1.39Zm0,1.39v1.39h-1.39v-1.39h1.39Zm0,1.39v1.39h-1.39v-1.39h1.39Zm0,1.39v1.39h-1.39v-1.39h1.39Zm0,1.39v1.39h-1.39v-1.39h1.39Zm0,1.39v1.39h-1.39v-1.39h1.39Zm0,1.39v1.39h-1.39v-1.39h1.39Zm0,1.39v1.39h-1.39v-1.39h1.39Zm0,1.39v1.39h-1.39v-1.39h1.39Zm0,1.39v1.39h-1.39v-1.39h1.39Zm1.39-23.67v1.39h-1.39v-1.39h1.39Zm0,1.39v1.39h-1.39v-1.39h1.39Zm0,1.39v1.39h-1.39v-1.39h1.39Zm0,1.39v1.39h-1.39v-1.39h1.39Zm0,1.39v1.39h-1.39v-1.39h1.39Zm0,1.39v1.39h-1.39v-1.39h1.39Zm0,1.39v1.39h-1.39v-1.39h1.39Zm0,1.39v1.39h-1.39v-1.39h1.39Zm0,1.39v1.39h-1.39v-1.39h1.39Zm0,1.39v1.39h-1.39v-1.39h1.39Zm0,1.39v1.39h-1.39v-1.39h1.39Zm0,1.39v1.39h-1.39v-1.39h1.39Zm0,1.39v1.39h-1.39v-1.39h1.39Zm0,1.39v1.39h-1.39v-1.39h1.39Zm0,1.39v1.39h-1.39v-1.39h1.39Zm0,1.39v1.39h-1.39v-1.39h1.39Zm0,1.39v1.39h-1.39v-1.39h1.39Zm0,1.39v1.39h-1.39v-1.39h1.39Zm1.39-23.67v1.39h-1.39v-1.39h1.39Zm0,1.39v1.39h-1.39v-1.39h1.39Zm0,1.39v1.39h-1.39v-1.39h1.39Zm0,1.39v1.39h-1.39v-1.39h1.39Zm0,1.39v1.39h-1.39v-1.39h1.39Zm0,1.39v1.39h-1.39v-1.39h1.39Zm0,1.39v1.39h-1.39v-1.39h1.39Zm0,1.39v1.39h-1.39v-1.39h1.39Zm0,1.39v1.39h-1.39v-1.39h1.39Zm0,1.39v1.39h-1.39v-1.39h1.39Zm0,1.39v1.39h-1.39v-1.39h1.39Zm0,1.39v1.39h-1.39v-1.39h1.39Zm0,1.39v1.39h-1.39v-1.39h1.39Zm0,1.39v1.39h-1.39v-1.39h1.39Zm0,1.39v1.39h-1.39v-1.39h1.39Zm0,1.39v1.39h-1.39v-1.39h1.39Zm0,1.39v1.39h-1.39v-1.39h1.39Zm0,1.39v1.39h-1.39v-1.39h1.39Z"/>
  <path class="cls-1" d="M0,60.14v-1.39H1.28v1.39H0Zm0,1.39v-1.39H1.28v1.39H0Zm0,1.39v-1.39H1.28v1.39H0Zm1.28,0v1.39H0v-1.39H1.28Zm0,1.39v1.39H0v-1.39H1.28Zm0,1.39v1.39H0v-1.39H1.28Zm0,1.39v1.39H0v-1.39H1.28Zm0,9.75v1.39H0v-1.39H1.28Zm0,1.39v1.39H0v-1.39H1.28Zm0,1.39v1.39H0v-1.39H1.28Zm0,1.39v1.39H0v-1.39H1.28Zm0-23.67v-1.39h1.28v1.39H1.28Zm0,1.39v-1.39h1.28v1.39H1.28Zm0,1.39v-1.39h1.28v1.39H1.28Zm0,1.39v-1.39h1.28v1.39H1.28Zm0,1.39v-1.39h1.28v1.39H1.28Zm1.28,0v1.39H1.28v-1.39h1.28Zm0,1.39v1.39H1.28v-1.39h1.28Zm0,1.39v1.39H1.28v-1.39h1.28Zm0,1.39v1.39H1.28v-1.39h1.28Zm0,1.39v1.39H1.28v-1.39h1.28Zm0,1.39v1.39H1.28v-1.39h1.28Zm0,6.96v1.39H1.28v-1.39h1.28Zm0,1.39v1.39H1.28v-1.39h1.28Zm0,1.39v1.39H1.28v-1.39h1.28Zm0,1.39v1.39H1.28v-1.39h1.28Zm0,1.39v1.39H1.28v-1.39h1.28Zm0,1.39v1.39H1.28v-1.39h1.28Zm0-27.85v-1.39h1.28v1.39h-1.28Zm0,1.39v-1.39h1.28v1.39h-1.28Zm0,1.39v-1.39h1.28v1.39h-1.28Zm0,1.39v-1.39h1.28v1.39h-1.28Zm0,1.39v-1.39h1.28v1.39h-1.28Zm0,1.39v-1.39h1.28v1.39h-1.28Zm1.28,0v1.39h-1.28v-1.39h1.28Zm0,1.39v1.39h-1.28v-1.39h1.28Zm0,1.39v1.39h-1.28v-1.39h1.28Zm0,1.39v1.39h-1.28v-1.39h1.28Zm0,1.39v1.39h-1.28v-1.39h1.28Zm0,1.39v1.39h-1.28v-1.39h1.28Zm0,1.39v1.39h-1.28v-1.39h1.28Zm0,5.57v1.39h-1.28v-1.39h1.28Zm0,1.39v1.39h-1.28v-1.39h1.28Zm0,1.39v1.39h-1.28v-1.39h1.28Zm0,1.39v1.39h-1.28v-1.39h1.28Zm0,1.39v1.39h-1.28v-1.39h1.28Zm0,1.39v1.39h-1.28v-1.39h1.28Zm0,1.39v1.39h-1.28v-1.39h1.28Zm0-29.24v-1.39h1.28v1.39h-1.28Zm0,1.39v-1.39h1.28v1.39h-1.28Zm0,1.39v-1.39h1.28v1.39h-1.28Zm0,1.39v-1.39h1.28v1.39h-1.28Zm0,1.39v-1.39h1.28v1.39h-1.28Zm0,1.39v-1.39h1.28v1.39h-1.28Zm1.28,0v1.39h-1.28v-1.39h1.28Zm0,1.39v1.39h-1.28v-1.39h1.28Zm0,1.39v1.39h-1.28v-1.39h1.28Zm0,1.39v1.39h-1.28v-1.39h1.28Zm0,1.39v1.39h-1.28v-1.39h1.28Zm0,1.39v1.39h-1.28v-1.39h1.28Zm0,1.39v1.39h-1.28v-1.39h1.28Zm0,5.57v1.39h-1.28v-1.39h1.28Zm0,1.39v1.39h-1.28v-1.39h1.28Zm0,1.39v1.39h-1.28v-1.39h1.28Zm0,1.39v1.39h-1.28v-1.39h1.28Zm0,1.39v1.39h-1.28v-1.39h1.28Zm0,1.39v1.39h-1.28v-1.39h1.28Zm0,1.39v1.39h-1.28v-1.39h1.28Zm0-30.63v-1.39h1.28v1.39h-1.28Zm0,1.39v-1.39h1.28v1.39h-1.28Zm0,1.39v-1.39h1.28v1.39h-1.28Zm0,1.39v-1.39h1.28v1.39h-1.28Zm0,1.39v-1.39h1.28v1.39h-1.28Zm0,1.39v-1.39h1.28v1.39h-1.28Zm0,1.39v-1.39h1.28v1.39h-1.28Zm1.28,0v1.39h-1.28v-1.39h1.28Zm0,1.39v1.39h-1.28v-1.39h1.28Zm0,1.39v1.39h-1.28v-1.39h1.28Zm0,1.39v1.39h-1.28v-1.39h1.28Zm0,1.39v1.39h-1.28v-1.39h1.28Zm0,1.39v1.39h-1.28v-1.39h1.28Zm0,1.39v1.39h-1.28v-1.39h1.28Zm0,1.39v1.39h-1.28v-1.39h1.28Zm0,4.18v1.39h-1.28v-1.39h1.28Zm0,1.39v1.39h-1.28v-1.39h1.28Zm0,1.39v1.39h-1.28v-1.39h1.28Zm0,1.39v1.39h-1.28v-1.39h1.28Zm0,1.39v1.39h-1.28v-1.39h1.28Zm0,1.39v1.39h-1.28v-1.39h1.28Zm0,1.39v1.39h-1.28v-1.39h1.28Zm0,1.39v1.39h-1.28v-1.39h1.28Zm0-32.02v-1.39h1.28v1.39h-1.28Zm0,1.39v-1.39h1.28v1.39h-1.28Zm0,1.39v-1.39h1.28v1.39h-1.28Zm0,1.39v-1.39h1.28v1.39h-1.28Zm0,1.39v-1.39h1.28v1.39h-1.28Zm1.28,0v1.39h-1.28v-1.39h1.28Zm0,5.57v1.39h-1.28v-1.39h1.28Zm0,1.39v1.39h-1.28v-1.39h1.28Zm0,1.39v1.39h-1.28v-1.39h1.28Zm0,1.39v1.39h-1.28v-1.39h1.28Zm0,1.39v1.39h-1.28v-1.39h1.28Zm0,1.39v1.39h-1.28v-1.39h1.28Zm0,6.96v1.39h-1.28v-1.39h1.28Zm0,1.39v1.39h-1.28v-1.39h1.28Zm0,1.39v1.39h-1.28v-1.39h1.28Zm0,1.39v1.39h-1.28v-1.39h1.28Zm0,1.39v1.39h-1.28v-1.39h1.28Zm0,1.39v1.39h-1.28v-1.39h1.28Zm0-32.02v-1.39h1.28v1.39h-1.28Zm0,1.39v-1.39h1.28v1.39h-1.28Zm0,1.39v-1.39h1.28v1.39h-1.28Zm0,1.39v-1.39h1.28v1.39h-1.28Zm1.28,0v1.39h-1.28v-1.39h1.28Zm0,8.35v1.39h-1.28v-1.39h1.28Zm0,1.39v1.39h-1.28v-1.39h1.28Zm0,1.39v1.39h-1.28v-1.39h1.28Zm0,1.39v1.39h-1.28v-1.39h1.28Zm0,1.39v1.39h-1.28v-1.39h1.28Zm0,8.35v1.39h-1.28v-1.39h1.28Zm0,1.39v1.39h-1.28v-1.39h1.28Zm0,1.39v1.39h-1.28v-1.39h1.28Zm0,1.39v1.39h-1.28v-1.39h1.28Zm0,1.39v1.39h-1.28v-1.39h1.28Zm0-32.02v-1.39h1.28v1.39h-1.28Zm0,1.39v-1.39h1.28v1.39h-1.28Zm0,1.39v-1.39h1.28v1.39h-1.28Zm0,1.39v-1.39h1.28v1.39h-1.28Zm1.28,0v1.39h-1.28v-1.39h1.28Zm0,8.35v1.39h-1.28v-1.39h1.28Zm0,1.39v1.39h-1.28v-1.39h1.28Zm0,1.39v1.39h-1.28v-1.39h1.28Zm0,1.39v1.39h-1.28v-1.39h1.28Zm0,1.39v1.39h-1.28v-1.39h1.28Zm0,8.35v1.39h-1.28v-1.39h1.28Zm0,1.39v1.39h-1.28v-1.39h1.28Zm0,1.39v1.39h-1.28v-1.39h1.28Zm0,1.39v1.39h-1.28v-1.39h1.28Zm0,1.39v1.39h-1.28v-1.39h1.28Zm1.28-33.42v1.39h-1.28v-1.39h1.28Zm0,1.39v1.39h-1.28v-1.39h1.28Zm0,1.39v1.39h-1.28v-1.39h1.28Zm0,1.39v1.39h-1.28v-1.39h1.28Zm0,1.39v1.39h-1.28v-1.39h1.28Zm0,8.35v1.39h-1.28v-1.39h1.28Zm0,1.39v1.39h-1.28v-1.39h1.28Zm0,1.39v1.39h-1.28v-1.39h1.28Zm0,1.39v1.39h-1.28v-1.39h1.28Zm0,1.39v1.39h-1.28v-1.39h1.28Zm0,8.35v1.39h-1.28v-1.39h1.28Zm0,1.39v1.39h-1.28v-1.39h1.28Zm0,1.39v1.39h-1.28v-1.39h1.28Zm0,1.39v1.39h-1.28v-1.39h1.28Zm0,1.39v1.39h-1.28v-1.39h1.28Zm0-32.02v-1.39h1.28v1.39h-1.28Zm0,1.39v-1.39h1.28v1.39h-1.28Zm0,1.39v-1.39h1.28v1.39h-1.28Zm0,1.39v-1.39h1.28v1.39h-1.28Zm1.28,0v1.39h-1.28v-1.39h1.28Zm0,8.35v1.39h-1.28v-1.39h1.28Zm0,1.39v1.39h-1.28v-1.39h1.28Zm0,1.39v1.39h-1.28v-1.39h1.28Zm0,1.39v1.39h-1.28v-1.39h1.28Zm0,1.39v1.39h-1.28v-1.39h1.28Zm0,8.35v1.39h-1.28v-1.39h1.28Zm0,1.39v1.39h-1.28v-1.39h1.28Zm0,1.39v1.39h-1.28v-1.39h1.28Zm0,1.39v1.39h-1.28v-1.39h1.28Zm0,1.39v1.39h-1.28v-1.39h1.28Zm0-32.02v-1.39h1.28v1.39h-1.28Zm0,1.39v-1.39h1.28v1.39h-1.28Zm0,1.39v-1.39h1.28v1.39h-1.28Zm0,1.39v-1.39h1.28v1.39h-1.28Zm1.28,0v1.39h-1.28v-1.39h1.28Zm0,8.35v1.39h-1.28v-1.39h1.28Zm0,1.39v1.39h-1.28v-1.39h1.28Zm0,1.39v1.39h-1.28v-1.39h1.28Zm0,1.39v1.39h-1.28v-1.39h1.28Zm0,1.39v1.39h-1.28v-1.39h1.28Zm0,8.35v1.39h-1.28v-1.39h1.28Zm0,1.39v1.39h-1.28v-1.39h1.28Zm0,1.39v1.39h-1.28v-1.39h1.28Zm0,1.39v1.39h-1.28v-1.39h1.28Zm0,1.39v1.39h-1.28v-1.39h1.28Zm0-32.02v-1.39h1.28v1.39h-1.28Zm0,1.39v-1.39h1.28v1.39h-1.28Zm0,1.39v-1.39h1.28v1.39h-1.28Zm0,1.39v-1.39h1.28v1.39h-1.28Zm0,1.39v-1.39h1.28v1.39h-1.28Zm1.28,0v1.39h-1.28v-1.39h1.28Zm0,6.96v1.39h-1.28v-1.39h1.28Zm0,1.39v1.39h-1.28v-1.39h1.28Zm0,1.39v1.39h-1.28v-1.39h1.28Zm0,1.39v1.39h-1.28v-1.39h1.28Zm0,1.39v1.39h-1.28v-1.39h1.28Zm0,1.39v1.39h-1.28v-1.39h1.28Zm0,5.57v1.39h-1.28v-1.39h1.28Zm0,1.39v1.39h-1.28v-1.39h1.28Zm0,1.39v1.39h-1.28v-1.39h1.28Zm0,1.39v1.39h-1.28v-1.39h1.28Zm0,1.39v1.39h-1.28v-1.39h1.28Zm0,1.39v1.39h-1.28v-1.39h1.28Zm0-32.02v-1.39h1.28v1.39h-1.28Zm0,1.39v-1.39h1.28v1.39h-1.28Zm0,1.39v-1.39h1.28v1.39h-1.28Zm0,1.39v-1.39h1.28v1.39h-1.28Zm0,1.39v-1.39h1.28v1.39h-1.28Zm0,1.39v-1.39h1.28v1.39h-1.28Zm0,1.39v-1.39h1.28v1.39h-1.28Zm1.28,4.18v1.39h-1.28v-1.39h1.28Zm0,1.39v1.39h-1.28v-1.39h1.28Zm0,1.39v1.39h-1.28v-1.39h1.28Zm0,1.39v1.39h-1.28v-1.39h1.28Zm0,1.39v1.39h-1.28v-1.39h1.28Zm0,1.39v1.39h-1.28v-1.39h1.28Zm0,1.39v1.39h-1.28v-1.39h1.28Zm0,1.39v1.39h-1.28v-1.39h1.28Zm0,1.39v1.39h-1.28v-1.39h1.28Zm0,1.39v1.39h-1.28v-1.39h1.28Zm0,1.39v1.39h-1.28v-1.39h1.28Zm0,1.39v1.39h-1.28v-1.39h1.28Zm0,1.39v1.39h-1.28v-1.39h1.28Zm0,1.39v1.39h-1.28v-1.39h1.28Zm0,1.39v1.39h-1.28v-1.39h1.28Zm0-30.63v-1.39h1.28v1.39h-1.28Zm0,1.39v-1.39h1.28v1.39h-1.28Zm0,1.39v-1.39h1.28v1.39h-1.28Zm0,1.39v-1.39h1.28v1.39h-1.28Zm0,1.39v-1.39h1.28v1.39h-1.28Zm0,1.39v-1.39h1.28v1.39h-1.28Zm1.28,5.57v1.39h-1.28v-1.39h1.28Zm0,1.39v1.39h-1.28v-1.39h1.28Zm0,1.39v1.39h-1.28v-1.39h1.28Zm0,1.39v1.39h-1.28v-1.39h1.28Zm0,1.39v1.39h-1.28v-1.39h1.28Zm0,1.39v1.39h-1.28v-1.39h1.28Zm0,1.39v1.39h-1.28v-1.39h1.28Zm0,1.39v1.39h-1.28v-1.39h1.28Zm0,1.39v1.39h-1.28v-1.39h1.28Zm0,1.39v1.39h-1.28v-1.39h1.28Zm0,1.39v1.39h-1.28v-1.39h1.28Zm0,1.39v1.39h-1.28v-1.39h1.28Zm0,1.39v1.39h-1.28v-1.39h1.28Zm0-29.24v-1.39h1.28v1.39h-1.28Zm0,1.39v-1.39h1.28v1.39h-1.28Zm0,1.39v-1.39h1.28v1.39h-1.28Zm0,1.39v-1.39h1.28v1.39h-1.28Zm0,1.39v-1.39h1.28v1.39h-1.28Zm0,1.39v-1.39h1.28v1.39h-1.28Zm1.28,5.57v1.39h-1.28v-1.39h1.28Zm0,1.39v1.39h-1.28v-1.39h1.28Zm0,1.39v1.39h-1.28v-1.39h1.28Zm0,1.39v1.39h-1.28v-1.39h1.28Zm0,1.39v1.39h-1.28v-1.39h1.28Zm0,1.39v1.39h-1.28v-1.39h1.28Zm0,1.39v1.39h-1.28v-1.39h1.28Zm0,1.39v1.39h-1.28v-1.39h1.28Zm0,1.39v1.39h-1.28v-1.39h1.28Zm0,1.39v1.39h-1.28v-1.39h1.28Zm0,1.39v1.39h-1.28v-1.39h1.28Zm0,1.39v1.39h-1.28v-1.39h1.28Zm0,1.39v1.39h-1.28v-1.39h1.28Zm0-27.85v-1.39h1.28v1.39h-1.28Zm0,1.39v-1.39h1.28v1.39h-1.28Zm0,1.39v-1.39h1.28v1.39h-1.28Zm0,1.39v-1.39h1.28v1.39h-1.28Zm0,1.39v-1.39h1.28v1.39h-1.28Zm1.28,6.96v1.39h-1.28v-1.39h1.28Zm0,1.39v1.39h-1.28v-1.39h1.28Zm0,1.39v1.39h-1.28v-1.39h1.28Zm0,1.39v1.39h-1.28v-1.39h1.28Zm0,1.39v1.39h-1.28v-1.39h1.28Zm0,1.39v1.39h-1.28v-1.39h1.28Zm0,1.39v1.39h-1.28v-1.39h1.28Zm0,1.39v1.39h-1.28v-1.39h1.28Zm0,1.39v1.39h-1.28v-1.39h1.28Zm0,1.39v1.39h-1.28v-1.39h1.28Zm0,1.39v1.39h-1.28v-1.39h1.28Zm0-23.67v-1.39h1.28v1.39h-1.28Zm0,1.39v-1.39h1.28v1.39h-1.28Zm0,1.39v-1.39h1.28v1.39h-1.28Zm1.28,9.75v1.39h-1.28v-1.39h1.28Zm0,1.39v1.39h-1.28v-1.39h1.28Zm0,1.39v1.39h-1.28v-1.39h1.28Zm0,1.39v1.39h-1.28v-1.39h1.28Zm0,1.39v1.39h-1.28v-1.39h1.28Zm0,1.39v1.39h-1.28v-1.39h1.28Zm0,1.39v1.39h-1.28v-1.39h1.28Z"/>
  <path class="cls-1" d="M26.97,67.1v1.39h-1.28v-1.39h1.28Zm0,1.39v1.39h-1.28v-1.39h1.28Zm0,1.39v1.39h-1.28v-1.39h1.28Zm0,1.39v1.39h-1.28v-1.39h1.28Zm0,1.39v1.39h-1.28v-1.39h1.28Zm0,1.39v1.39h-1.28v-1.39h1.28Zm0,1.39v1.39h-1.28v-1.39h1.28Zm0,1.39v1.39h-1.28v-1.39h1.28Zm0,1.39v1.39h-1.28v-1.39h1.28Zm0,1.39v1.39h-1.28v-1.39h1.28Zm0,1.39v1.39h-1.28v-1.39h1.28Zm1.28-16.71v1.39h-1.28v-1.39h1.28Zm0,1.39v1.39h-1.28v-1.39h1.28Zm0,1.39v1.39h-1.28v-1.39h1.28Zm0,1.39v1.39h-1.28v-1.39h1.28Zm0,1.39v1.39h-1.28v-1.39h1.28Zm0,1.39v1.39h-1.28v-1.39h1.28Zm0,1.39v1.39h-1.28v-1.39h1.28Zm0,1.39v1.39h-1.28v-1.39h1.28Zm0,1.39v1.39h-1.28v-1.39h1.28Zm0,1.39v1.39h-1.28v-1.39h1.28Zm0,1.39v1.39h-1.28v-1.39h1.28Zm0,1.39v1.39h-1.28v-1.39h1.28Zm0,1.39v1.39h-1.28v-1.39h1.28Zm0,1.39v1.39h-1.28v-1.39h1.28Zm0,1.39v1.39h-1.28v-1.39h1.28Zm1.28-20.88v1.39h-1.28v-1.39h1.28Zm0,1.39v1.39h-1.28v-1.39h1.28Zm0,1.39v1.39h-1.28v-1.39h1.28Zm0,1.39v1.39h-1.28v-1.39h1.28Zm0,1.39v1.39h-1.28v-1.39h1.28Zm0,1.39v1.39h-1.28v-1.39h1.28Zm0,1.39v1.39h-1.28v-1.39h1.28Zm0,1.39v1.39h-1.28v-1.39h1.28Zm0,1.39v1.39h-1.28v-1.39h1.28Zm0,1.39v1.39h-1.28v-1.39h1.28Zm0,1.39v1.39h-1.28v-1.39h1.28Zm0,1.39v1.39h-1.28v-1.39h1.28Zm0,1.39v1.39h-1.28v-1.39h1.28Zm0,1.39v1.39h-1.28v-1.39h1.28Zm0,1.39v1.39h-1.28v-1.39h1.28Zm0,1.39v1.39h-1.28v-1.39h1.28Zm0,1.39v1.39h-1.28v-1.39h1.28Zm1.28-22.28v1.39h-1.28v-1.39h1.28Zm0,1.39v1.39h-1.28v-1.39h1.28Zm0,1.39v1.39h-1.28v-1.39h1.28Zm0,1.39v1.39h-1.28v-1.39h1.28Zm0,1.39v1.39h-1.28v-1.39h1.28Zm0,1.39v1.39h-1.28v-1.39h1.28Zm0,1.39v1.39h-1.28v-1.39h1.28Zm0,1.39v1.39h-1.28v-1.39h1.28Zm0,1.39v1.39h-1.28v-1.39h1.28Zm0,1.39v1.39h-1.28v-1.39h1.28Zm0,1.39v1.39h-1.28v-1.39h1.28Zm0,1.39v1.39h-1.28v-1.39h1.28Zm0,1.39v1.39h-1.28v-1.39h1.28Zm0,1.39v1.39h-1.28v-1.39h1.28Zm0,1.39v1.39h-1.28v-1.39h1.28Zm0,1.39v1.39h-1.28v-1.39h1.28Zm0,1.39v1.39h-1.28v-1.39h1.28Zm1.28-23.67v1.39h-1.28v-1.39h1.28Zm0,1.39v1.39h-1.28v-1.39h1.28Zm0,1.39v1.39h-1.28v-1.39h1.28Zm0,1.39v1.39h-1.28v-1.39h1.28Zm0,1.39v1.39h-1.28v-1.39h1.28Zm0,1.39v1.39h-1.28v-1.39h1.28Zm0,1.39v1.39h-1.28v-1.39h1.28Zm0,1.39v1.39h-1.28v-1.39h1.28Zm0,1.39v1.39h-1.28v-1.39h1.28Zm0,1.39v1.39h-1.28v-1.39h1.28Zm0,1.39v1.39h-1.28v-1.39h1.28Zm0,1.39v1.39h-1.28v-1.39h1.28Zm0,1.39v1.39h-1.28v-1.39h1.28Zm0,1.39v1.39h-1.28v-1.39h1.28Zm0,1.39v1.39h-1.28v-1.39h1.28Zm0,1.39v1.39h-1.28v-1.39h1.28Zm0,1.39v1.39h-1.28v-1.39h1.28Zm0,1.39v1.39h-1.28v-1.39h1.28Zm0,1.39v1.39h-1.28v-1.39h1.28Zm1.28-25.06v1.39h-1.28v-1.39h1.28Zm0,1.39v1.39h-1.28v-1.39h1.28Zm0,1.39v1.39h-1.28v-1.39h1.28Zm0,1.39v1.39h-1.28v-1.39h1.28Zm0,1.39v1.39h-1.28v-1.39h1.28Zm0,5.57v1.39h-1.28v-1.39h1.28Zm0,1.39v1.39h-1.28v-1.39h1.28Zm0,1.39v1.39h-1.28v-1.39h1.28Zm0,5.57v1.39h-1.28v-1.39h1.28Zm0,1.39v1.39h-1.28v-1.39h1.28Zm0,1.39v1.39h-1.28v-1.39h1.28Zm0,1.39v1.39h-1.28v-1.39h1.28Zm0,1.39v1.39h-1.28v-1.39h1.28Zm1.28-25.06v1.39h-1.28v-1.39h1.28Zm0,1.39v1.39h-1.28v-1.39h1.28Zm0,1.39v1.39h-1.28v-1.39h1.28Zm0,1.39v1.39h-1.28v-1.39h1.28Zm0,6.96v1.39h-1.28v-1.39h1.28Zm0,1.39v1.39h-1.28v-1.39h1.28Zm0,1.39v1.39h-1.28v-1.39h1.28Zm0,6.96v1.39h-1.28v-1.39h1.28Zm0,1.39v1.39h-1.28v-1.39h1.28Zm0,1.39v1.39h-1.28v-1.39h1.28Zm0,1.39v1.39h-1.28v-1.39h1.28Zm1.28-25.06v1.39h-1.28v-1.39h1.28Zm0,1.39v1.39h-1.28v-1.39h1.28Zm0,1.39v1.39h-1.28v-1.39h1.28Zm0,1.39v1.39h-1.28v-1.39h1.28Zm0,6.96v1.39h-1.28v-1.39h1.28Zm0,1.39v1.39h-1.28v-1.39h1.28Zm0,1.39v1.39h-1.28v-1.39h1.28Zm0,6.96v1.39h-1.28v-1.39h1.28Zm0,1.39v1.39h-1.28v-1.39h1.28Zm0,1.39v1.39h-1.28v-1.39h1.28Zm0,1.39v1.39h-1.28v-1.39h1.28Zm1.28-25.06v1.39h-1.28v-1.39h1.28Zm0,1.39v1.39h-1.28v-1.39h1.28Zm0,1.39v1.39h-1.28v-1.39h1.28Zm0,1.39v1.39h-1.28v-1.39h1.28Zm0,6.96v1.39h-1.28v-1.39h1.28Zm0,1.39v1.39h-1.28v-1.39h1.28Zm0,1.39v1.39h-1.28v-1.39h1.28Zm0,6.96v1.39h-1.28v-1.39h1.28Zm0,1.39v1.39h-1.28v-1.39h1.28Zm0,1.39v1.39h-1.28v-1.39h1.28Zm0,1.39v1.39h-1.28v-1.39h1.28Zm1.28-25.06v1.39h-1.28v-1.39h1.28Zm0,1.39v1.39h-1.28v-1.39h1.28Zm0,1.39v1.39h-1.28v-1.39h1.28Zm0,1.39v1.39h-1.28v-1.39h1.28Zm0,6.96v1.39h-1.28v-1.39h1.28Zm0,1.39v1.39h-1.28v-1.39h1.28Zm0,1.39v1.39h-1.28v-1.39h1.28Zm0,6.96v1.39h-1.28v-1.39h1.28Zm0,1.39v1.39h-1.28v-1.39h1.28Zm0,1.39v1.39h-1.28v-1.39h1.28Zm0,1.39v1.39h-1.28v-1.39h1.28Zm1.28-25.06v1.39h-1.28v-1.39h1.28Zm0,1.39v1.39h-1.28v-1.39h1.28Zm0,1.39v1.39h-1.28v-1.39h1.28Zm0,1.39v1.39h-1.28v-1.39h1.28Zm0,1.39v1.39h-1.28v-1.39h1.28Zm0,5.57v1.39h-1.28v-1.39h1.28Zm0,1.39v1.39h-1.28v-1.39h1.28Zm0,1.39v1.39h-1.28v-1.39h1.28Zm0,5.57v1.39h-1.28v-1.39h1.28Zm0,1.39v1.39h-1.28v-1.39h1.28Zm0,1.39v1.39h-1.28v-1.39h1.28Zm0,1.39v1.39h-1.28v-1.39h1.28Zm0,1.39v1.39h-1.28v-1.39h1.28Zm1.28-25.06v1.39h-1.28v-1.39h1.28Zm0,1.39v1.39h-1.28v-1.39h1.28Zm0,1.39v1.39h-1.28v-1.39h1.28Zm0,1.39v1.39h-1.28v-1.39h1.28Zm0,1.39v1.39h-1.28v-1.39h1.28Zm0,1.39v1.39h-1.28v-1.39h1.28Zm0,1.39v1.39h-1.28v-1.39h1.28Zm0,1.39v1.39h-1.28v-1.39h1.28Zm0,1.39v1.39h-1.28v-1.39h1.28Zm0,1.39v1.39h-1.28v-1.39h1.28Zm0,1.39v1.39h-1.28v-1.39h1.28Zm0,4.18v1.39h-1.28v-1.39h1.28Zm0,1.39v1.39h-1.28v-1.39h1.28Zm0,1.39v1.39h-1.28v-1.39h1.28Zm0,1.39v1.39h-1.28v-1.39h1.28Zm0,1.39v1.39h-1.28v-1.39h1.28Zm0,1.39v1.39h-1.28v-1.39h1.28Zm1.28-23.67v1.39h-1.28v-1.39h1.28Zm0,1.39v1.39h-1.28v-1.39h1.28Zm0,1.39v1.39h-1.28v-1.39h1.28Zm0,1.39v1.39h-1.28v-1.39h1.28Zm0,1.39v1.39h-1.28v-1.39h1.28Zm0,1.39v1.39h-1.28v-1.39h1.28Zm0,1.39v1.39h-1.28v-1.39h1.28Zm0,1.39v1.39h-1.28v-1.39h1.28Zm0,1.39v1.39h-1.28v-1.39h1.28Zm0,1.39v1.39h-1.28v-1.39h1.28Zm0,4.18v1.39h-1.28v-1.39h1.28Zm0,1.39v1.39h-1.28v-1.39h1.28Zm0,1.39v1.39h-1.28v-1.39h1.28Zm0,1.39v1.39h-1.28v-1.39h1.28Zm0,1.39v1.39h-1.28v-1.39h1.28Zm1.28-22.28v1.39h-1.28v-1.39h1.28Zm0,1.39v1.39h-1.28v-1.39h1.28Zm0,1.39v1.39h-1.28v-1.39h1.28Zm0,1.39v1.39h-1.28v-1.39h1.28Zm0,1.39v1.39h-1.28v-1.39h1.28Zm0,1.39v1.39h-1.28v-1.39h1.28Zm0,1.39v1.39h-1.28v-1.39h1.28Zm0,1.39v1.39h-1.28v-1.39h1.28Zm0,1.39v1.39h-1.28v-1.39h1.28Zm0,1.39v1.39h-1.28v-1.39h1.28Zm0,4.18v1.39h-1.28v-1.39h1.28Zm0,1.39v1.39h-1.28v-1.39h1.28Zm0,1.39v1.39h-1.28v-1.39h1.28Zm0,1.39v1.39h-1.28v-1.39h1.28Zm0,1.39v1.39h-1.28v-1.39h1.28Zm1.28-20.88v1.39h-1.28v-1.39h1.28Zm0,1.39v1.39h-1.28v-1.39h1.28Zm0,1.39v1.39h-1.28v-1.39h1.28Zm0,1.39v1.39h-1.28v-1.39h1.28Zm0,1.39v1.39h-1.28v-1.39h1.28Zm0,1.39v1.39h-1.28v-1.39h1.28Zm0,1.39v1.39h-1.28v-1.39h1.28Zm0,1.39v1.39h-1.28v-1.39h1.28Zm0,1.39v1.39h-1.28v-1.39h1.28Zm0,4.18v1.39h-1.28v-1.39h1.28Zm0,1.39v1.39h-1.28v-1.39h1.28Zm0,1.39v1.39h-1.28v-1.39h1.28Zm0,1.39v1.39h-1.28v-1.39h1.28Zm1.28-16.71v1.39h-1.28v-1.39h1.28Zm0,1.39v1.39h-1.28v-1.39h1.28Zm0,1.39v1.39h-1.28v-1.39h1.28Zm0,1.39v1.39h-1.28v-1.39h1.28Zm0,1.39v1.39h-1.28v-1.39h1.28Zm0,1.39v1.39h-1.28v-1.39h1.28Zm0,1.39v1.39h-1.28v-1.39h1.28Zm0,4.18v1.39h-1.28v-1.39h1.28Zm0,1.39v1.39h-1.28v-1.39h1.28Z"/>
  <path class="cls-1" d="M51.37,61.53v1.39h-1.28v-1.39h1.28Zm0,1.39v1.39h-1.28v-1.39h1.28Zm0,1.39v1.39h-1.28v-1.39h1.28Zm0,1.39v1.39h-1.28v-1.39h1.28Zm0,1.39v1.39h-1.28v-1.39h1.28Zm0,1.39v1.39h-1.28v-1.39h1.28Zm0,1.39v1.39h-1.28v-1.39h1.28Zm0,1.39v1.39h-1.28v-1.39h1.28Zm0,1.39v1.39h-1.28v-1.39h1.28Zm0,1.39v1.39h-1.28v-1.39h1.28Zm0,1.39v1.39h-1.28v-1.39h1.28Zm0,1.39v1.39h-1.28v-1.39h1.28Zm0,1.39v1.39h-1.28v-1.39h1.28Zm0,1.39v1.39h-1.28v-1.39h1.28Zm0,1.39v1.39h-1.28v-1.39h1.28Zm0,1.39v1.39h-1.28v-1.39h1.28Zm0,1.39v1.39h-1.28v-1.39h1.28Zm0,1.39v1.39h-1.28v-1.39h1.28Zm0,1.39v1.39h-1.28v-1.39h1.28Zm1.28-25.06v1.39h-1.28v-1.39h1.28Zm0,1.39v1.39h-1.28v-1.39h1.28Zm0,1.39v1.39h-1.28v-1.39h1.28Zm0,1.39v1.39h-1.28v-1.39h1.28Zm0,1.39v1.39h-1.28v-1.39h1.28Zm0,1.39v1.39h-1.28v-1.39h1.28Zm0,1.39v1.39h-1.28v-1.39h1.28Zm0,1.39v1.39h-1.28v-1.39h1.28Zm0,1.39v1.39h-1.28v-1.39h1.28Zm0,1.39v1.39h-1.28v-1.39h1.28Zm0,1.39v1.39h-1.28v-1.39h1.28Zm0,1.39v1.39h-1.28v-1.39h1.28Zm0,1.39v1.39h-1.28v-1.39h1.28Zm0,1.39v1.39h-1.28v-1.39h1.28Zm0,1.39v1.39h-1.28v-1.39h1.28Zm0,1.39v1.39h-1.28v-1.39h1.28Zm0,1.39v1.39h-1.28v-1.39h1.28Zm0,1.39v1.39h-1.28v-1.39h1.28Zm0,1.39v1.39h-1.28v-1.39h1.28Zm1.28-25.06v1.39h-1.28v-1.39h1.28Zm0,1.39v1.39h-1.28v-1.39h1.28Zm0,1.39v1.39h-1.28v-1.39h1.28Zm0,1.39v1.39h-1.28v-1.39h1.28Zm0,1.39v1.39h-1.28v-1.39h1.28Zm0,1.39v1.39h-1.28v-1.39h1.28Zm0,1.39v1.39h-1.28v-1.39h1.28Zm0,1.39v1.39h-1.28v-1.39h1.28Zm0,1.39v1.39h-1.28v-1.39h1.28Zm0,1.39v1.39h-1.28v-1.39h1.28Zm0,1.39v1.39h-1.28v-1.39h1.28Zm0,1.39v1.39h-1.28v-1.39h1.28Zm0,1.39v1.39h-1.28v-1.39h1.28Zm0,1.39v1.39h-1.28v-1.39h1.28Zm0,1.39v1.39h-1.28v-1.39h1.28Zm0,1.39v1.39h-1.28v-1.39h1.28Zm0,1.39v1.39h-1.28v-1.39h1.28Zm0,1.39v1.39h-1.28v-1.39h1.28Zm0,1.39v1.39h-1.28v-1.39h1.28Zm1.28-25.06v1.39h-1.28v-1.39h1.28Zm0,1.39v1.39h-1.28v-1.39h1.28Zm0,1.39v1.39h-1.28v-1.39h1.28Zm0,1.39v1.39h-1.28v-1.39h1.28Zm0,1.39v1.39h-1.28v-1.39h1.28Zm0,1.39v1.39h-1.28v-1.39h1.28Zm0,1.39v1.39h-1.28v-1.39h1.28Zm0,1.39v1.39h-1.28v-1.39h1.28Zm0,1.39v1.39h-1.28v-1.39h1.28Zm0,1.39v1.39h-1.28v-1.39h1.28Zm0,1.39v1.39h-1.28v-1.39h1.28Zm0,1.39v1.39h-1.28v-1.39h1.28Zm0,1.39v1.39h-1.28v-1.39h1.28Zm0,1.39v1.39h-1.28v-1.39h1.28Zm0,1.39v1.39h-1.28v-1.39h1.28Zm0,1.39v1.39h-1.28v-1.39h1.28Zm0,1.39v1.39h-1.28v-1.39h1.28Zm0,1.39v1.39h-1.28v-1.39h1.28Zm0,1.39v1.39h-1.28v-1.39h1.28Zm1.28-25.06v1.39h-1.28v-1.39h1.28Zm0,1.39v1.39h-1.28v-1.39h1.28Zm0,1.39v1.39h-1.28v-1.39h1.28Zm0,1.39v1.39h-1.28v-1.39h1.28Zm0,1.39v1.39h-1.28v-1.39h1.28Zm0,1.39v1.39h-1.28v-1.39h1.28Zm0,1.39v1.39h-1.28v-1.39h1.28Zm0,1.39v1.39h-1.28v-1.39h1.28Zm0,1.39v1.39h-1.28v-1.39h1.28Zm0,1.39v1.39h-1.28v-1.39h1.28Zm0,1.39v1.39h-1.28v-1.39h1.28Zm0,1.39v1.39h-1.28v-1.39h1.28Zm0,1.39v1.39h-1.28v-1.39h1.28Zm0,1.39v1.39h-1.28v-1.39h1.28Zm0,1.39v1.39h-1.28v-1.39h1.28Zm0,1.39v1.39h-1.28v-1.39h1.28Zm0,1.39v1.39h-1.28v-1.39h1.28Zm0,1.39v1.39h-1.28v-1.39h1.28Zm0,1.39v1.39h-1.28v-1.39h1.28Zm1.28-23.67v1.39h-1.28v-1.39h1.28Zm0,1.39v1.39h-1.28v-1.39h1.28Zm0,1.39v1.39h-1.28v-1.39h1.28Zm0,1.39v1.39h-1.28v-1.39h1.28Zm1.28-5.57v1.39h-1.28v-1.39h1.28Zm0,1.39v1.39h-1.28v-1.39h1.28Zm0,1.39v1.39h-1.28v-1.39h1.28Zm0,1.39v1.39h-1.28v-1.39h1.28Zm1.28-4.18v1.39h-1.28v-1.39h1.28Zm0,1.39v1.39h-1.28v-1.39h1.28Zm0,1.39v1.39h-1.28v-1.39h1.28Zm0,1.39v1.39h-1.28v-1.39h1.28Zm1.28-4.18v1.39h-1.28v-1.39h1.28Zm0,1.39v1.39h-1.28v-1.39h1.28Zm0,1.39v1.39h-1.28v-1.39h1.28Zm0,1.39v1.39h-1.28v-1.39h1.28Zm1.28-4.18v1.39h-1.28v-1.39h1.28Zm0,1.39v1.39h-1.28v-1.39h1.28Zm0,1.39v1.39h-1.28v-1.39h1.28Zm0,1.39v1.39h-1.28v-1.39h1.28Zm0,1.39v1.39h-1.28v-1.39h1.28Zm1.28-5.57v1.39h-1.28v-1.39h1.28Zm0,1.39v1.39h-1.28v-1.39h1.28Zm0,1.39v1.39h-1.28v-1.39h1.28Zm0,1.39v1.39h-1.28v-1.39h1.28Zm0,1.39v1.39h-1.28v-1.39h1.28Zm0,1.39v1.39h-1.28v-1.39h1.28Zm1.28-6.96v1.39h-1.28v-1.39h1.28Zm0,1.39v1.39h-1.28v-1.39h1.28Zm0,1.39v1.39h-1.28v-1.39h1.28Zm0,1.39v1.39h-1.28v-1.39h1.28Zm0,1.39v1.39h-1.28v-1.39h1.28Zm1.28-4.18v1.39h-1.28v-1.39h1.28Zm0,1.39v1.39h-1.28v-1.39h1.28Zm0,1.39v1.39h-1.28v-1.39h1.28Zm1.28-1.39v1.39h-1.28v-1.39h1.28Z"/>
  <path class="cls-1" d="M71.5,61.53v1.39h-1.28v-1.39h1.28Zm0,1.39v1.39h-1.28v-1.39h1.28Zm0,1.39v1.39h-1.28v-1.39h1.28Zm0,1.39v1.39h-1.28v-1.39h1.28Zm0,1.39v1.39h-1.28v-1.39h1.28Zm0,1.39v1.39h-1.28v-1.39h1.28Zm0,1.39v1.39h-1.28v-1.39h1.28Zm0,1.39v1.39h-1.28v-1.39h1.28Zm0,1.39v1.39h-1.28v-1.39h1.28Zm0,1.39v1.39h-1.28v-1.39h1.28Zm0,1.39v1.39h-1.28v-1.39h1.28Zm0,1.39v1.39h-1.28v-1.39h1.28Zm0,1.39v1.39h-1.28v-1.39h1.28Zm1.28-16.71v1.39h-1.28v-1.39h1.28Zm0,1.39v1.39h-1.28v-1.39h1.28Zm0,1.39v1.39h-1.28v-1.39h1.28Zm0,1.39v1.39h-1.28v-1.39h1.28Zm0,1.39v1.39h-1.28v-1.39h1.28Zm0,1.39v1.39h-1.28v-1.39h1.28Zm0,1.39v1.39h-1.28v-1.39h1.28Zm0,1.39v1.39h-1.28v-1.39h1.28Zm0,1.39v1.39h-1.28v-1.39h1.28Zm0,1.39v1.39h-1.28v-1.39h1.28Zm0,1.39v1.39h-1.28v-1.39h1.28Zm0,1.39v1.39h-1.28v-1.39h1.28Zm0,1.39v1.39h-1.28v-1.39h1.28Zm0,1.39v1.39h-1.28v-1.39h1.28Zm1.28-18.1v1.39h-1.28v-1.39h1.28Zm0,1.39v1.39h-1.28v-1.39h1.28Zm0,1.39v1.39h-1.28v-1.39h1.28Zm0,1.39v1.39h-1.28v-1.39h1.28Zm0,1.39v1.39h-1.28v-1.39h1.28Zm0,1.39v1.39h-1.28v-1.39h1.28Zm0,1.39v1.39h-1.28v-1.39h1.28Zm0,1.39v1.39h-1.28v-1.39h1.28Zm0,1.39v1.39h-1.28v-1.39h1.28Zm0,1.39v1.39h-1.28v-1.39h1.28Zm0,1.39v1.39h-1.28v-1.39h1.28Zm0,1.39v1.39h-1.28v-1.39h1.28Zm0,1.39v1.39h-1.28v-1.39h1.28Zm0,1.39v1.39h-1.28v-1.39h1.28Zm0,1.39v1.39h-1.28v-1.39h1.28Zm1.28-19.49v1.39h-1.28v-1.39h1.28Zm0,1.39v1.39h-1.28v-1.39h1.28Zm0,1.39v1.39h-1.28v-1.39h1.28Zm0,1.39v1.39h-1.28v-1.39h1.28Zm0,1.39v1.39h-1.28v-1.39h1.28Zm0,1.39v1.39h-1.28v-1.39h1.28Zm0,1.39v1.39h-1.28v-1.39h1.28Zm0,1.39v1.39h-1.28v-1.39h1.28Zm0,1.39v1.39h-1.28v-1.39h1.28Zm0,1.39v1.39h-1.28v-1.39h1.28Zm0,1.39v1.39h-1.28v-1.39h1.28Zm0,1.39v1.39h-1.28v-1.39h1.28Zm0,1.39v1.39h-1.28v-1.39h1.28Zm0,1.39v1.39h-1.28v-1.39h1.28Zm0,1.39v1.39h-1.28v-1.39h1.28Zm0,1.39v1.39h-1.28v-1.39h1.28Zm1.28-20.88v1.39h-1.28v-1.39h1.28Zm0,1.39v1.39h-1.28v-1.39h1.28Zm0,1.39v1.39h-1.28v-1.39h1.28Zm0,1.39v1.39h-1.28v-1.39h1.28Zm0,1.39v1.39h-1.28v-1.39h1.28Zm0,1.39v1.39h-1.28v-1.39h1.28Zm0,1.39v1.39h-1.28v-1.39h1.28Zm0,1.39v1.39h-1.28v-1.39h1.28Zm0,1.39v1.39h-1.28v-1.39h1.28Zm0,1.39v1.39h-1.28v-1.39h1.28Zm0,1.39v1.39h-1.28v-1.39h1.28Zm0,1.39v1.39h-1.28v-1.39h1.28Zm0,1.39v1.39h-1.28v-1.39h1.28Zm0,1.39v1.39h-1.28v-1.39h1.28Zm0,1.39v1.39h-1.28v-1.39h1.28Zm0,1.39v1.39h-1.28v-1.39h1.28Zm0,1.39v1.39h-1.28v-1.39h1.28Zm1.28-5.57v1.39h-1.28v-1.39h1.28Zm0,1.39v1.39h-1.28v-1.39h1.28Zm0,1.39v1.39h-1.28v-1.39h1.28Zm0,1.39v1.39h-1.28v-1.39h1.28Zm0,1.39v1.39h-1.28v-1.39h1.28Zm0,1.39v1.39h-1.28v-1.39h1.28Zm1.28-5.57v1.39h-1.28v-1.39h1.28Zm0,1.39v1.39h-1.28v-1.39h1.28Zm0,1.39v1.39h-1.28v-1.39h1.28Zm0,1.39v1.39h-1.28v-1.39h1.28Zm0,1.39v1.39h-1.28v-1.39h1.28Zm0,1.39v1.39h-1.28v-1.39h1.28Zm1.28-5.57v1.39h-1.28v-1.39h1.28Zm0,1.39v1.39h-1.28v-1.39h1.28Zm0,1.39v1.39h-1.28v-1.39h1.28Zm0,1.39v1.39h-1.28v-1.39h1.28Zm0,1.39v1.39h-1.28v-1.39h1.28Zm1.28-5.57v1.39h-1.28v-1.39h1.28Zm0,1.39v1.39h-1.28v-1.39h1.28Zm0,1.39v1.39h-1.28v-1.39h1.28Zm0,1.39v1.39h-1.28v-1.39h1.28Zm0,1.39v1.39h-1.28v-1.39h1.28Zm1.29-6.96v1.39h-1.29v-1.39h1.29Zm0,1.39v1.39h-1.29v-1.39h1.29Zm0,1.39v1.39h-1.29v-1.39h1.29Zm0,1.39v1.39h-1.29v-1.39h1.29Zm0,1.39v1.39h-1.29v-1.39h1.29Zm0,1.39v1.39h-1.29v-1.39h1.29Zm1.28-8.35v1.39h-1.28v-1.39h1.28Zm0,1.39v1.39h-1.28v-1.39h1.28Zm0,1.39v1.39h-1.28v-1.39h1.28Zm0,1.39v1.39h-1.28v-1.39h1.28Zm0,1.39v1.39h-1.28v-1.39h1.28Zm0,1.39v1.39h-1.28v-1.39h1.28Zm1.28-23.67v1.39h-1.28v-1.39h1.28Zm0,1.39v1.39h-1.28v-1.39h1.28Zm0,1.39v1.39h-1.28v-1.39h1.28Zm0,1.39v1.39h-1.28v-1.39h1.28Zm0,1.39v1.39h-1.28v-1.39h1.28Zm0,1.39v1.39h-1.28v-1.39h1.28Zm0,1.39v1.39h-1.28v-1.39h1.28Zm0,1.39v1.39h-1.28v-1.39h1.28Zm0,1.39v1.39h-1.28v-1.39h1.28Zm0,1.39v1.39h-1.28v-1.39h1.28Zm0,1.39v1.39h-1.28v-1.39h1.28Zm0,1.39v1.39h-1.28v-1.39h1.28Zm0,1.39v1.39h-1.28v-1.39h1.28Zm0,1.39v1.39h-1.28v-1.39h1.28Zm0,1.39v1.39h-1.28v-1.39h1.28Zm0,1.39v1.39h-1.28v-1.39h1.28Zm0,1.39v1.39h-1.28v-1.39h1.28Zm1.28-22.28v1.39h-1.28v-1.39h1.28Zm0,1.39v1.39h-1.28v-1.39h1.28Zm0,1.39v1.39h-1.28v-1.39h1.28Zm0,1.39v1.39h-1.28v-1.39h1.28Zm0,1.39v1.39h-1.28v-1.39h1.28Zm0,1.39v1.39h-1.28v-1.39h1.28Zm0,1.39v1.39h-1.28v-1.39h1.28Zm0,1.39v1.39h-1.28v-1.39h1.28Zm0,1.39v1.39h-1.28v-1.39h1.28Zm0,1.39v1.39h-1.28v-1.39h1.28Zm0,1.39v1.39h-1.28v-1.39h1.28Zm0,1.39v1.39h-1.28v-1.39h1.28Zm0,1.39v1.39h-1.28v-1.39h1.28Zm0,1.39v1.39h-1.28v-1.39h1.28Zm0,1.39v1.39h-1.28v-1.39h1.28Zm0,1.39v1.39h-1.28v-1.39h1.28Zm1.28-20.88v1.39h-1.28v-1.39h1.28Zm0,1.39v1.39h-1.28v-1.39h1.28Zm0,1.39v1.39h-1.28v-1.39h1.28Zm0,1.39v1.39h-1.28v-1.39h1.28Zm0,1.39v1.39h-1.28v-1.39h1.28Zm0,1.39v1.39h-1.28v-1.39h1.28Zm0,1.39v1.39h-1.28v-1.39h1.28Zm0,1.39v1.39h-1.28v-1.39h1.28Zm0,1.39v1.39h-1.28v-1.39h1.28Zm0,1.39v1.39h-1.28v-1.39h1.28Zm0,1.39v1.39h-1.28v-1.39h1.28Zm0,1.39v1.39h-1.28v-1.39h1.28Zm0,1.39v1.39h-1.28v-1.39h1.28Zm0,1.39v1.39h-1.28v-1.39h1.28Zm0,1.39v1.39h-1.28v-1.39h1.28Zm1.28-19.49v1.39h-1.28v-1.39h1.28Zm0,1.39v1.39h-1.28v-1.39h1.28Zm0,1.39v1.39h-1.28v-1.39h1.28Zm0,1.39v1.39h-1.28v-1.39h1.28Zm0,1.39v1.39h-1.28v-1.39h1.28Zm0,1.39v1.39h-1.28v-1.39h1.28Zm0,1.39v1.39h-1.28v-1.39h1.28Zm0,1.39v1.39h-1.28v-1.39h1.28Zm0,1.39v1.39h-1.28v-1.39h1.28Zm0,1.39v1.39h-1.28v-1.39h1.28Zm0,1.39v1.39h-1.28v-1.39h1.28Zm0,1.39v1.39h-1.28v-1.39h1.28Zm0,1.39v1.39h-1.28v-1.39h1.28Zm0,1.39v1.39h-1.28v-1.39h1.28Zm1.29-18.1v1.39h-1.29v-1.39h1.29Zm0,1.39v1.39h-1.29v-1.39h1.29Zm0,1.39v1.39h-1.29v-1.39h1.29Zm0,1.39v1.39h-1.29v-1.39h1.29Zm0,1.39v1.39h-1.29v-1.39h1.29Zm0,1.39v1.39h-1.29v-1.39h1.29Zm0,1.39v1.39h-1.29v-1.39h1.29Zm0,1.39v1.39h-1.29v-1.39h1.29Zm0,1.39v1.39h-1.29v-1.39h1.29Zm0,1.39v1.39h-1.29v-1.39h1.29Zm0,1.39v1.39h-1.29v-1.39h1.29Zm0,1.39v1.39h-1.29v-1.39h1.29Zm0,1.39v1.39h-1.29v-1.39h1.29Z"/>
  <path class="cls-1" d="M95.9,67.1v1.39h-1.29v-1.39h1.29Zm0,1.39v1.39h-1.29v-1.39h1.29Zm0,1.39v1.39h-1.29v-1.39h1.29Zm0,1.39v1.39h-1.29v-1.39h1.29Zm0,1.39v1.39h-1.29v-1.39h1.29Zm0,1.39v1.39h-1.29v-1.39h1.29Zm0,1.39v1.39h-1.29v-1.39h1.29Zm0,1.39v1.39h-1.29v-1.39h1.29Zm0,1.39v1.39h-1.29v-1.39h1.29Zm0,1.39v1.39h-1.29v-1.39h1.29Zm0,1.39v1.39h-1.29v-1.39h1.29Zm1.28-16.71v1.39h-1.28v-1.39h1.28Zm0,1.39v1.39h-1.28v-1.39h1.28Zm0,1.39v1.39h-1.28v-1.39h1.28Zm0,1.39v1.39h-1.28v-1.39h1.28Zm0,1.39v1.39h-1.28v-1.39h1.28Zm0,1.39v1.39h-1.28v-1.39h1.28Zm0,1.39v1.39h-1.28v-1.39h1.28Zm0,1.39v1.39h-1.28v-1.39h1.28Zm0,1.39v1.39h-1.28v-1.39h1.28Zm0,1.39v1.39h-1.28v-1.39h1.28Zm0,1.39v1.39h-1.28v-1.39h1.28Zm0,1.39v1.39h-1.28v-1.39h1.28Zm0,1.39v1.39h-1.28v-1.39h1.28Zm0,1.39v1.39h-1.28v-1.39h1.28Zm0,1.39v1.39h-1.28v-1.39h1.28Zm1.28-20.88v1.39h-1.28v-1.39h1.28Zm0,1.39v1.39h-1.28v-1.39h1.28Zm0,1.39v1.39h-1.28v-1.39h1.28Zm0,1.39v1.39h-1.28v-1.39h1.28Zm0,1.39v1.39h-1.28v-1.39h1.28Zm0,1.39v1.39h-1.28v-1.39h1.28Zm0,1.39v1.39h-1.28v-1.39h1.28Zm0,1.39v1.39h-1.28v-1.39h1.28Zm0,1.39v1.39h-1.28v-1.39h1.28Zm0,1.39v1.39h-1.28v-1.39h1.28Zm0,1.39v1.39h-1.28v-1.39h1.28Zm0,1.39v1.39h-1.28v-1.39h1.28Zm0,1.39v1.39h-1.28v-1.39h1.28Zm0,1.39v1.39h-1.28v-1.39h1.28Zm0,1.39v1.39h-1.28v-1.39h1.28Zm0,1.39v1.39h-1.28v-1.39h1.28Zm0,1.39v1.39h-1.28v-1.39h1.28Zm1.28-22.28v1.39h-1.28v-1.39h1.28Zm0,1.39v1.39h-1.28v-1.39h1.28Zm0,1.39v1.39h-1.28v-1.39h1.28Zm0,1.39v1.39h-1.28v-1.39h1.28Zm0,1.39v1.39h-1.28v-1.39h1.28Zm0,1.39v1.39h-1.28v-1.39h1.28Zm0,1.39v1.39h-1.28v-1.39h1.28Zm0,1.39v1.39h-1.28v-1.39h1.28Zm0,1.39v1.39h-1.28v-1.39h1.28Zm0,1.39v1.39h-1.28v-1.39h1.28Zm0,1.39v1.39h-1.28v-1.39h1.28Zm0,1.39v1.39h-1.28v-1.39h1.28Zm0,1.39v1.39h-1.28v-1.39h1.28Zm0,1.39v1.39h-1.28v-1.39h1.28Zm0,1.39v1.39h-1.28v-1.39h1.28Zm0,1.39v1.39h-1.28v-1.39h1.28Zm0,1.39v1.39h-1.28v-1.39h1.28Zm1.28-23.67v1.39h-1.28v-1.39h1.28Zm0,1.39v1.39h-1.28v-1.39h1.28Zm0,1.39v1.39h-1.28v-1.39h1.28Zm0,1.39v1.39h-1.28v-1.39h1.28Zm0,1.39v1.39h-1.28v-1.39h1.28Zm0,1.39v1.39h-1.28v-1.39h1.28Zm0,1.39v1.39h-1.28v-1.39h1.28Zm0,1.39v1.39h-1.28v-1.39h1.28Zm0,1.39v1.39h-1.28v-1.39h1.28Zm0,1.39v1.39h-1.28v-1.39h1.28Zm0,1.39v1.39h-1.28v-1.39h1.28Zm0,1.39v1.39h-1.28v-1.39h1.28Zm0,1.39v1.39h-1.28v-1.39h1.28Zm0,1.39v1.39h-1.28v-1.39h1.28Zm0,1.39v1.39h-1.28v-1.39h1.28Zm0,1.39v1.39h-1.28v-1.39h1.28Zm0,1.39v1.39h-1.28v-1.39h1.28Zm0,1.39v1.39h-1.28v-1.39h1.28Zm0,1.39v1.39h-1.28v-1.39h1.28Zm1.29-25.06v1.39h-1.29v-1.39h1.29Zm0,1.39v1.39h-1.29v-1.39h1.29Zm0,1.39v1.39h-1.29v-1.39h1.29Zm0,1.39v1.39h-1.29v-1.39h1.29Zm0,1.39v1.39h-1.29v-1.39h1.29Zm0,5.57v1.39h-1.29v-1.39h1.29Zm0,1.39v1.39h-1.29v-1.39h1.29Zm0,1.39v1.39h-1.29v-1.39h1.29Zm0,5.57v1.39h-1.29v-1.39h1.29Zm0,1.39v1.39h-1.29v-1.39h1.29Zm0,1.39v1.39h-1.29v-1.39h1.29Zm0,1.39v1.39h-1.29v-1.39h1.29Zm0,1.39v1.39h-1.29v-1.39h1.29Zm1.28-25.06v1.39h-1.28v-1.39h1.28Zm0,1.39v1.39h-1.28v-1.39h1.28Zm0,1.39v1.39h-1.28v-1.39h1.28Zm0,1.39v1.39h-1.28v-1.39h1.28Zm0,6.96v1.39h-1.28v-1.39h1.28Zm0,1.39v1.39h-1.28v-1.39h1.28Zm0,1.39v1.39h-1.28v-1.39h1.28Zm0,6.96v1.39h-1.28v-1.39h1.28Zm0,1.39v1.39h-1.28v-1.39h1.28Zm0,1.39v1.39h-1.28v-1.39h1.28Zm0,1.39v1.39h-1.28v-1.39h1.28Zm1.28-25.06v1.39h-1.28v-1.39h1.28Zm0,1.39v1.39h-1.28v-1.39h1.28Zm0,1.39v1.39h-1.28v-1.39h1.28Zm0,1.39v1.39h-1.28v-1.39h1.28Zm0,6.96v1.39h-1.28v-1.39h1.28Zm0,1.39v1.39h-1.28v-1.39h1.28Zm0,1.39v1.39h-1.28v-1.39h1.28Zm0,6.96v1.39h-1.28v-1.39h1.28Zm0,1.39v1.39h-1.28v-1.39h1.28Zm0,1.39v1.39h-1.28v-1.39h1.28Zm0,1.39v1.39h-1.28v-1.39h1.28Zm1.28-25.06v1.39h-1.28v-1.39h1.28Zm0,1.39v1.39h-1.28v-1.39h1.28Zm0,1.39v1.39h-1.28v-1.39h1.28Zm0,1.39v1.39h-1.28v-1.39h1.28Zm0,6.96v1.39h-1.28v-1.39h1.28Zm0,1.39v1.39h-1.28v-1.39h1.28Zm0,1.39v1.39h-1.28v-1.39h1.28Zm0,6.96v1.39h-1.28v-1.39h1.28Zm0,1.39v1.39h-1.28v-1.39h1.28Zm0,1.39v1.39h-1.28v-1.39h1.28Zm0,1.39v1.39h-1.28v-1.39h1.28Zm1.28-25.06v1.39h-1.28v-1.39h1.28Zm0,1.39v1.39h-1.28v-1.39h1.28Zm0,1.39v1.39h-1.28v-1.39h1.28Zm0,1.39v1.39h-1.28v-1.39h1.28Zm0,6.96v1.39h-1.28v-1.39h1.28Zm0,1.39v1.39h-1.28v-1.39h1.28Zm0,1.39v1.39h-1.28v-1.39h1.28Zm0,6.96v1.39h-1.28v-1.39h1.28Zm0,1.39v1.39h-1.28v-1.39h1.28Zm0,1.39v1.39h-1.28v-1.39h1.28Zm0,1.39v1.39h-1.28v-1.39h1.28Zm1.29-25.06v1.39h-1.29v-1.39h1.29Zm0,1.39v1.39h-1.29v-1.39h1.29Zm0,1.39v1.39h-1.29v-1.39h1.29Zm0,1.39v1.39h-1.29v-1.39h1.29Zm0,1.39v1.39h-1.29v-1.39h1.29Zm0,5.57v1.39h-1.29v-1.39h1.29Zm0,1.39v1.39h-1.29v-1.39h1.29Zm0,1.39v1.39h-1.29v-1.39h1.29Zm0,5.57v1.39h-1.29v-1.39h1.29Zm0,1.39v1.39h-1.29v-1.39h1.29Zm0,1.39v1.39h-1.29v-1.39h1.29Zm0,1.39v1.39h-1.29v-1.39h1.29Zm0,1.39v1.39h-1.29v-1.39h1.29Zm1.28-25.06v1.39h-1.28v-1.39h1.28Zm0,1.39v1.39h-1.28v-1.39h1.28Zm0,1.39v1.39h-1.28v-1.39h1.28Zm0,1.39v1.39h-1.28v-1.39h1.28Zm0,1.39v1.39h-1.28v-1.39h1.28Zm0,1.39v1.39h-1.28v-1.39h1.28Zm0,1.39v1.39h-1.28v-1.39h1.28Zm0,1.39v1.39h-1.28v-1.39h1.28Zm0,1.39v1.39h-1.28v-1.39h1.28Zm0,1.39v1.39h-1.28v-1.39h1.28Zm0,1.39v1.39h-1.28v-1.39h1.28Zm0,4.18v1.39h-1.28v-1.39h1.28Zm0,1.39v1.39h-1.28v-1.39h1.28Zm0,1.39v1.39h-1.28v-1.39h1.28Zm0,1.39v1.39h-1.28v-1.39h1.28Zm0,1.39v1.39h-1.28v-1.39h1.28Zm0,1.39v1.39h-1.28v-1.39h1.28Zm1.28-23.67v1.39h-1.28v-1.39h1.28Zm0,1.39v1.39h-1.28v-1.39h1.28Zm0,1.39v1.39h-1.28v-1.39h1.28Zm0,1.39v1.39h-1.28v-1.39h1.28Zm0,1.39v1.39h-1.28v-1.39h1.28Zm0,1.39v1.39h-1.28v-1.39h1.28Zm0,1.39v1.39h-1.28v-1.39h1.28Zm0,1.39v1.39h-1.28v-1.39h1.28Zm0,1.39v1.39h-1.28v-1.39h1.28Zm0,1.39v1.39h-1.28v-1.39h1.28Zm0,4.18v1.39h-1.28v-1.39h1.28Zm0,1.39v1.39h-1.28v-1.39h1.28Zm0,1.39v1.39h-1.28v-1.39h1.28Zm0,1.39v1.39h-1.28v-1.39h1.28Zm0,1.39v1.39h-1.28v-1.39h1.28Zm1.28-22.28v1.39h-1.28v-1.39h1.28Zm0,1.39v1.39h-1.28v-1.39h1.28Zm0,1.39v1.39h-1.28v-1.39h1.28Zm0,1.39v1.39h-1.28v-1.39h1.28Zm0,1.39v1.39h-1.28v-1.39h1.28Zm0,1.39v1.39h-1.28v-1.39h1.28Zm0,1.39v1.39h-1.28v-1.39h1.28Zm0,1.39v1.39h-1.28v-1.39h1.28Zm0,1.39v1.39h-1.28v-1.39h1.28Zm0,1.39v1.39h-1.28v-1.39h1.28Zm0,4.18v1.39h-1.28v-1.39h1.28Zm0,1.39v1.39h-1.28v-1.39h1.28Zm0,1.39v1.39h-1.28v-1.39h1.28Zm0,1.39v1.39h-1.28v-1.39h1.28Zm0,1.39v1.39h-1.28v-1.39h1.28Zm1.28-20.88v1.39h-1.28v-1.39h1.28Zm0,1.39v1.39h-1.28v-1.39h1.28Zm0,1.39v1.39h-1.28v-1.39h1.28Zm0,1.39v1.39h-1.28v-1.39h1.28Zm0,1.39v1.39h-1.28v-1.39h1.28Zm0,1.39v1.39h-1.28v-1.39h1.28Zm0,1.39v1.39h-1.28v-1.39h1.28Zm0,1.39v1.39h-1.28v-1.39h1.28Zm0,1.39v1.39h-1.28v-1.39h1.28Zm0,4.18v1.39h-1.28v-1.39h1.28Zm0,1.39v1.39h-1.28v-1.39h1.28Zm0,1.39v1.39h-1.28v-1.39h1.28Zm0,1.39v1.39h-1.28v-1.39h1.28Zm1.28-16.71v1.39h-1.28v-1.39h1.28Zm0,1.39v1.39h-1.28v-1.39h1.28Zm0,1.39v1.39h-1.28v-1.39h1.28Zm0,1.39v1.39h-1.28v-1.39h1.28Zm0,1.39v1.39h-1.28v-1.39h1.28Zm0,1.39v1.39h-1.28v-1.39h1.28Zm0,1.39v1.39h-1.28v-1.39h1.28Zm0,4.18v1.39h-1.28v-1.39h1.28Zm0,1.39v1.39h-1.28v-1.39h1.28Z"/>
  <path class="cls-1" d="M120.31,61.53v1.39h-1.28v-1.39h1.28Zm0,1.39v1.39h-1.28v-1.39h1.28Zm0,1.39v1.39h-1.28v-1.39h1.28Zm0,1.39v1.39h-1.28v-1.39h1.28Zm0,1.39v1.39h-1.28v-1.39h1.28Zm0,1.39v1.39h-1.28v-1.39h1.28Zm0,1.39v1.39h-1.28v-1.39h1.28Zm0,1.39v1.39h-1.28v-1.39h1.28Zm0,1.39v1.39h-1.28v-1.39h1.28Zm0,1.39v1.39h-1.28v-1.39h1.28Zm0,1.39v1.39h-1.28v-1.39h1.28Zm0,1.39v1.39h-1.28v-1.39h1.28Zm0,1.39v1.39h-1.28v-1.39h1.28Zm0,1.39v1.39h-1.28v-1.39h1.28Zm0,1.39v1.39h-1.28v-1.39h1.28Zm0,1.39v1.39h-1.28v-1.39h1.28Zm0,1.39v1.39h-1.28v-1.39h1.28Zm0,1.39v1.39h-1.28v-1.39h1.28Zm0,1.39v1.39h-1.28v-1.39h1.28Zm1.29-25.06v1.39h-1.29v-1.39h1.29Zm0,1.39v1.39h-1.29v-1.39h1.29Zm0,1.39v1.39h-1.29v-1.39h1.29Zm0,1.39v1.39h-1.29v-1.39h1.29Zm0,1.39v1.39h-1.29v-1.39h1.29Zm0,1.39v1.39h-1.29v-1.39h1.29Zm0,1.39v1.39h-1.29v-1.39h1.29Zm0,1.39v1.39h-1.29v-1.39h1.29Zm0,1.39v1.39h-1.29v-1.39h1.29Zm0,1.39v1.39h-1.29v-1.39h1.29Zm0,1.39v1.39h-1.29v-1.39h1.29Zm0,1.39v1.39h-1.29v-1.39h1.29Zm0,1.39v1.39h-1.29v-1.39h1.29Zm0,1.39v1.39h-1.29v-1.39h1.29Zm0,1.39v1.39h-1.29v-1.39h1.29Zm0,1.39v1.39h-1.29v-1.39h1.29Zm0,1.39v1.39h-1.29v-1.39h1.29Zm0,1.39v1.39h-1.29v-1.39h1.29Zm0,1.39v1.39h-1.29v-1.39h1.29Zm1.28-25.06v1.39h-1.28v-1.39h1.28Zm0,1.39v1.39h-1.28v-1.39h1.28Zm0,1.39v1.39h-1.28v-1.39h1.28Zm0,1.39v1.39h-1.28v-1.39h1.28Zm0,1.39v1.39h-1.28v-1.39h1.28Zm0,1.39v1.39h-1.28v-1.39h1.28Zm0,1.39v1.39h-1.28v-1.39h1.28Zm0,1.39v1.39h-1.28v-1.39h1.28Zm0,1.39v1.39h-1.28v-1.39h1.28Zm0,1.39v1.39h-1.28v-1.39h1.28Zm0,1.39v1.39h-1.28v-1.39h1.28Zm0,1.39v1.39h-1.28v-1.39h1.28Zm0,1.39v1.39h-1.28v-1.39h1.28Zm0,1.39v1.39h-1.28v-1.39h1.28Zm0,1.39v1.39h-1.28v-1.39h1.28Zm0,1.39v1.39h-1.28v-1.39h1.28Zm0,1.39v1.39h-1.28v-1.39h1.28Zm0,1.39v1.39h-1.28v-1.39h1.28Zm0,1.39v1.39h-1.28v-1.39h1.28Zm1.28-25.06v1.39h-1.28v-1.39h1.28Zm0,1.39v1.39h-1.28v-1.39h1.28Zm0,1.39v1.39h-1.28v-1.39h1.28Zm0,1.39v1.39h-1.28v-1.39h1.28Zm0,1.39v1.39h-1.28v-1.39h1.28Zm0,1.39v1.39h-1.28v-1.39h1.28Zm0,1.39v1.39h-1.28v-1.39h1.28Zm0,1.39v1.39h-1.28v-1.39h1.28Zm0,1.39v1.39h-1.28v-1.39h1.28Zm0,1.39v1.39h-1.28v-1.39h1.28Zm0,1.39v1.39h-1.28v-1.39h1.28Zm0,1.39v1.39h-1.28v-1.39h1.28Zm0,1.39v1.39h-1.28v-1.39h1.28Zm0,1.39v1.39h-1.28v-1.39h1.28Zm0,1.39v1.39h-1.28v-1.39h1.28Zm0,1.39v1.39h-1.28v-1.39h1.28Zm0,1.39v1.39h-1.28v-1.39h1.28Zm0,1.39v1.39h-1.28v-1.39h1.28Zm0,1.39v1.39h-1.28v-1.39h1.28Zm1.28-25.06v1.39h-1.28v-1.39h1.28Zm0,1.39v1.39h-1.28v-1.39h1.28Zm0,1.39v1.39h-1.28v-1.39h1.28Zm0,1.39v1.39h-1.28v-1.39h1.28Zm0,1.39v1.39h-1.28v-1.39h1.28Zm0,1.39v1.39h-1.28v-1.39h1.28Zm0,1.39v1.39h-1.28v-1.39h1.28Zm0,1.39v1.39h-1.28v-1.39h1.28Zm0,1.39v1.39h-1.28v-1.39h1.28Zm0,1.39v1.39h-1.28v-1.39h1.28Zm0,1.39v1.39h-1.28v-1.39h1.28Zm0,1.39v1.39h-1.28v-1.39h1.28Zm0,1.39v1.39h-1.28v-1.39h1.28Zm0,1.39v1.39h-1.28v-1.39h1.28Zm0,1.39v1.39h-1.28v-1.39h1.28Zm0,1.39v1.39h-1.28v-1.39h1.28Zm0,1.39v1.39h-1.28v-1.39h1.28Zm0,1.39v1.39h-1.28v-1.39h1.28Zm0,1.39v1.39h-1.28v-1.39h1.28Zm1.28-23.67v1.39h-1.28v-1.39h1.28Zm0,1.39v1.39h-1.28v-1.39h1.28Zm0,1.39v1.39h-1.28v-1.39h1.28Zm0,1.39v1.39h-1.28v-1.39h1.28Zm1.28-5.57v1.39h-1.28v-1.39h1.28Zm0,1.39v1.39h-1.28v-1.39h1.28Zm0,1.39v1.39h-1.28v-1.39h1.28Zm0,1.39v1.39h-1.28v-1.39h1.28Zm1.29-4.18v1.39h-1.29v-1.39h1.29Zm0,1.39v1.39h-1.29v-1.39h1.29Zm0,1.39v1.39h-1.29v-1.39h1.29Zm0,1.39v1.39h-1.29v-1.39h1.29Zm1.28-4.18v1.39h-1.28v-1.39h1.28Zm0,1.39v1.39h-1.28v-1.39h1.28Zm0,1.39v1.39h-1.28v-1.39h1.28Zm0,1.39v1.39h-1.28v-1.39h1.28Zm1.28-4.18v1.39h-1.28v-1.39h1.28Zm0,1.39v1.39h-1.28v-1.39h1.28Zm0,1.39v1.39h-1.28v-1.39h1.28Zm0,1.39v1.39h-1.28v-1.39h1.28Zm0,1.39v1.39h-1.28v-1.39h1.28Zm1.28-5.57v1.39h-1.28v-1.39h1.28Zm0,1.39v1.39h-1.28v-1.39h1.28Zm0,1.39v1.39h-1.28v-1.39h1.28Zm0,1.39v1.39h-1.28v-1.39h1.28Zm0,1.39v1.39h-1.28v-1.39h1.28Zm0,1.39v1.39h-1.28v-1.39h1.28Zm1.28-6.96v1.39h-1.28v-1.39h1.28Zm0,1.39v1.39h-1.28v-1.39h1.28Zm0,1.39v1.39h-1.28v-1.39h1.28Zm0,1.39v1.39h-1.28v-1.39h1.28Zm0,1.39v1.39h-1.28v-1.39h1.28Zm1.29-4.18v1.39h-1.29v-1.39h1.29Zm0,1.39v1.39h-1.29v-1.39h1.29Zm0,1.39v1.39h-1.29v-1.39h1.29Zm1.28-1.39v1.39h-1.28v-1.39h1.28Z"/>
  <g class="cls-3">
    <path class="cls-2" d="M110.04,84.68c-7.65,0-11.78-21.69-11.78-42.09S102.39,.5,110.04,.5s11.78,21.69,11.78,42.09-4.13,42.09-11.78,42.09Zm0-81.83c-4.46,0-9.43,16.32-9.43,39.74s4.97,39.74,9.43,39.74,9.43-16.32,9.43-39.74S114.5,2.85,110.04,2.85Z"/>
    <path class="cls-2" d="M110.04,54.37c-20.41,0-42.09-4.13-42.09-11.78s21.69-11.78,42.09-11.78,42.09,4.13,42.09,11.78-21.69,11.78-42.09,11.78Zm0-21.21c-23.42,0-39.74,4.97-39.74,9.43s16.32,9.43,39.74,9.43,39.74-4.97,39.74-9.43-16.32-9.43-39.74-9.43Z"/>
    <path class="cls-2" d="M83.9,73.66c-1.45,0-2.7-.38-3.62-1.3-5.41-5.41,7-23.67,21.43-38.09,7.8-7.8,15.93-14.35,22.89-18.44,5.22-3.07,12.1-6.09,15.2-2.99,3.1,3.1,.09,9.98-2.99,15.2-4.1,6.96-10.65,15.09-18.44,22.89-7.8,7.8-15.93,14.35-22.89,18.44-3.67,2.16-8.16,4.29-11.58,4.29ZM136.15,13.88c-2.03,0-5.4,1.05-10.36,3.97-6.8,4-14.76,10.42-22.42,18.08-16.56,16.56-24.59,31.62-21.43,34.77,1.19,1.19,5.06,.94,12.35-3.35,6.8-4,14.76-10.42,22.42-18.08,7.66-7.66,14.08-15.62,18.08-22.42,4.29-7.29,4.54-11.16,3.35-12.35-.38-.38-1.04-.62-1.99-.62Z"/>
    <path class="cls-2" d="M136.18,73.66c-3.42,0-7.91-2.13-11.58-4.29-6.96-4.1-15.09-10.65-22.89-18.44-14.43-14.43-26.84-32.68-21.43-38.09,3.1-3.11,9.98-.09,15.2,2.99,6.96,4.1,15.09,10.65,22.89,18.44,7.8,7.8,14.35,15.93,18.44,22.89,3.07,5.23,6.09,12.1,2.99,15.2-.92,.92-2.18,1.3-3.62,1.3ZM83.93,13.88c-.96,0-1.61,.23-1.99,.62-3.15,3.15,4.87,18.21,21.43,34.77,7.66,7.66,15.62,14.08,22.42,18.08,7.29,4.29,11.16,4.54,12.35,3.35s.94-5.06-3.35-12.35c-4-6.8-10.42-14.76-18.08-22.42-7.66-7.66-15.62-14.08-22.42-18.08-4.95-2.91-8.33-3.97-10.36-3.97Z"/>
  </g>
  <circle class="cls-4" cx="82.19" cy="23.99" r="4.5"/>
</svg>