<?xml version="1.0" encoding="utf-8"?>
<!-- Generator: Adobe Illustrator 27.0.0, SVG Export Plug-In . SVG Version: 6.00 Build 0)  -->
<svg version="1.1" id="Layer_1" xmlns="http://www.w3.org/2000/svg" xmlns:xlink="http://www.w3.org/1999/xlink" x="0px" y="0px"
	 viewBox="0 0 152.6 88" style="enable-background:new 0 0 152.6 88;" xml:space="preserve">
<style type="text/css">
	.st0{fill:#0E3659;}
	.st1{opacity:0.2;}
	.st2{fill:#231F20;stroke:#231F20;stroke-miterlimit:10;}
	.st3{opacity:0.9;fill:#398CBF;enable-background:new    ;}
</style>
<path class="st0" d="M24.4,28.1v-1.4h1.4v1.4H24.4z M24.4,29.5v-1.4h1.4v1.4H24.4z M24.4,30.9v-1.4h1.4v1.4H24.4z M25.8,30.9v1.4
	h-1.4v-1.4H25.8z M25.8,32.3v1.4h-1.4v-1.4H25.8z M25.8,33.7v1.4h-1.4v-1.4H25.8z M25.8,35.1v1.4h-1.4v-1.4H25.8z M25.8,44.8v1.4
	h-1.4v-1.4H25.8z M25.8,46.2v1.4h-1.4v-1.4H25.8z M25.8,47.6V49h-1.4v-1.4H25.8z M25.8,49v1.4h-1.4V49H25.8z M25.8,25.3v-1.4h1.4
	v1.4H25.8z M25.8,26.7v-1.4h1.4v1.4H25.8z M25.8,28.1v-1.4h1.4v1.4H25.8z M25.8,29.5v-1.4h1.4v1.4H25.8z M25.8,30.9v-1.4h1.4v1.4
	H25.8z M27.2,30.9v1.4h-1.4v-1.4C25.8,30.9,27.2,30.9,27.2,30.9z M27.2,32.3v1.4h-1.4v-1.4H27.2z M27.2,33.7v1.4h-1.4v-1.4H27.2z
	 M27.2,35.1v1.4h-1.4v-1.4H27.2z M27.2,36.5v1.4h-1.4v-1.4H27.2z M27.2,37.8v1.4h-1.4v-1.4H27.2z M27.2,44.8v1.4h-1.4v-1.4H27.2z
	 M27.2,46.2v1.4h-1.4v-1.4H27.2z M27.2,47.6V49h-1.4v-1.4H27.2z M27.2,49v1.4h-1.4V49H27.2z M27.2,50.4v1.4h-1.4v-1.4H27.2z
	 M27.2,51.8v1.4h-1.4v-1.4H27.2z M27.2,23.9v-1.4h1.4v1.4H27.2z M27.2,25.3v-1.4h1.4v1.4H27.2z M27.2,26.7v-1.4h1.4v1.4H27.2z
	 M27.2,28.1v-1.4h1.4v1.4H27.2z M27.2,29.5v-1.4h1.4v1.4H27.2z M27.2,30.9v-1.4h1.4v1.4H27.2z M28.6,30.9v1.4h-1.4v-1.4
	C27.2,30.9,28.6,30.9,28.6,30.9z M28.6,32.2v1.4h-1.4v-1.4H28.6z M28.6,33.6V35h-1.4v-1.4H28.6z M28.6,35v1.4h-1.4V35H28.6z
	 M28.6,36.4v1.4h-1.4v-1.4H28.6z M28.6,37.8v1.4h-1.4v-1.4H28.6z M28.6,39.2v1.4h-1.4v-1.4H28.6z M28.6,44.8v1.4h-1.4v-1.4H28.6z
	 M28.6,46.2v1.4h-1.4v-1.4H28.6z M28.6,47.5v1.4h-1.4v-1.4H28.6z M28.6,48.9v1.4h-1.4v-1.4H28.6z M28.6,50.3v1.4h-1.4v-1.4H28.6z
	 M28.6,51.7v1.4h-1.4v-1.4H28.6z M28.6,53.1v1.4h-1.4v-1.4H28.6z M28.6,23.9v-1.4h1.4v1.4H28.6z M28.6,25.3v-1.4h1.4v1.4H28.6z
	 M28.6,26.6v-1.4h1.4v1.4H28.6z M28.6,28v-1.4h1.4V28H28.6z M28.6,29.4V28h1.4v1.4H28.6z M28.6,30.8v-1.4h1.4v1.4H28.6z M29.9,30.8
	v1.4h-1.4v-1.4C28.6,30.8,29.9,30.8,29.9,30.8z M29.9,32.2v1.4h-1.4v-1.4H29.9z M29.9,33.6V35h-1.4v-1.4H29.9z M29.9,35v1.4h-1.4V35
	H29.9z M29.9,36.4v1.4h-1.4v-1.4H29.9z M29.9,37.8v1.4h-1.4v-1.4H29.9z M29.9,39.2v1.4h-1.4v-1.4H29.9z M29.9,44.7v1.4h-1.4v-1.4
	H29.9z M29.9,46.1v1.4h-1.4v-1.4H29.9z M29.9,47.5v1.4h-1.4v-1.4H29.9z M29.9,48.9v1.4h-1.4v-1.4H29.9z M29.9,50.3v1.4h-1.4v-1.4
	H29.9z M29.9,51.7v1.4h-1.4v-1.4H29.9z M29.9,53.1v1.4h-1.4v-1.4H29.9z M29.9,22.4V21h1.4v1.4H29.9z M29.9,23.8v-1.4h1.4v1.4H29.9z
	 M29.9,25.2v-1.4h1.4v1.4H29.9z M29.9,26.6v-1.4h1.4v1.4H29.9z M29.9,28v-1.4h1.4V28H29.9z M29.9,29.4V28h1.4v1.4H29.9z M29.9,30.8
	v-1.4h1.4v1.4H29.9z M31.3,30.8v1.4h-1.4v-1.4C29.9,30.8,31.3,30.8,31.3,30.8z M31.3,32.2v1.4h-1.4v-1.4H31.3z M31.3,33.6v1.4h-1.4
	v-1.4H31.3z M31.3,34.9v1.4h-1.4v-1.4H31.3z M31.3,36.3v1.4h-1.4v-1.4H31.3z M31.3,37.7v1.4h-1.4v-1.4H31.3z M31.3,39.1v1.4h-1.4
	v-1.4H31.3z M31.3,40.5v1.4h-1.4v-1.4H31.3z M31.3,44.7v1.4h-1.4v-1.4H31.3z M31.3,46.1v1.4h-1.4v-1.4H31.3z M31.3,47.5v1.4h-1.4
	v-1.4H31.3z M31.3,48.9v1.4h-1.4v-1.4H31.3z M31.3,50.2v1.4h-1.4v-1.4H31.3z M31.3,51.6V53h-1.4v-1.4H31.3z M31.3,53v1.4h-1.4V53
	H31.3z M31.3,54.4v1.4h-1.4v-1.4H31.3z M31.3,22.4V21h1.4v1.4H31.3z M31.3,23.8v-1.4h1.4v1.4H31.3z M31.3,25.2v-1.4h1.4v1.4H31.3z
	 M31.3,26.6v-1.4h1.4v1.4H31.3z M31.3,28v-1.4h1.4V28H31.3z M32.7,28v1.4h-1.4V28H32.7z M32.7,33.5v1.4h-1.4v-1.4H32.7z M32.7,34.9
	v1.4h-1.4v-1.4H32.7z M32.7,36.3v1.4h-1.4v-1.4H32.7z M32.7,37.7v1.4h-1.4v-1.4H32.7z M32.7,39.1v1.4h-1.4v-1.4H32.7z M32.7,40.5
	v1.4h-1.4v-1.4H32.7z M32.7,47.4v1.4h-1.4v-1.4H32.7z M32.7,48.8v1.4h-1.4v-1.4H32.7z M32.7,50.2v1.4h-1.4v-1.4H32.7z M32.7,51.6V53
	h-1.4v-1.4H32.7z M32.7,53v1.4h-1.4V53H32.7z M32.7,54.4v1.4h-1.4v-1.4H32.7z M32.7,22.4V21h1.4v1.4H32.7z M32.7,23.8v-1.4h1.4v1.4
	H32.7z M32.7,25.1v-1.4h1.4v1.4H32.7z M32.7,26.5v-1.4h1.4v1.4H32.7z M34.1,26.5v1.4h-1.4v-1.4H34.1z M34.1,34.9v1.4h-1.4v-1.4H34.1
	z M34.1,36.3v1.4h-1.4v-1.4H34.1z M34.1,37.7v1.4h-1.4v-1.4H34.1z M34.1,39.1v1.4h-1.4v-1.4H34.1z M34.1,40.4v1.4h-1.4v-1.4H34.1z
	 M34.1,48.8v1.4h-1.4v-1.4H34.1z M34.1,50.2v1.4h-1.4v-1.4H34.1z M34.1,51.6V53h-1.4v-1.4H34.1z M34.1,53v1.4h-1.4V53H34.1z
	 M34.1,54.4v1.4h-1.4v-1.4H34.1z M34.1,22.3v-1.4h1.4v1.4H34.1z M34.1,23.7v-1.4h1.4v1.4H34.1z M34.1,25.1v-1.4h1.4v1.4H34.1z
	 M34.1,26.5v-1.4h1.4v1.4H34.1z M35.5,26.5v1.4h-1.4v-1.4H35.5z M35.5,34.9v1.4h-1.4v-1.4H35.5z M35.5,36.2v1.4h-1.4v-1.4H35.5z
	 M35.5,37.6V39h-1.4v-1.4H35.5z M35.5,39v1.4h-1.4V39H35.5z M35.5,40.4v1.4h-1.4v-1.4H35.5z M35.5,48.8v1.4h-1.4v-1.4H35.5z
	 M35.5,50.2v1.4h-1.4v-1.4H35.5z M35.5,51.5v1.4h-1.4v-1.4H35.5z M35.5,52.9v1.4h-1.4v-1.4H35.5z M35.5,54.3v1.4h-1.4v-1.4H35.5z
	 M36.9,20.9v1.4h-1.4v-1.4H36.9z M36.9,22.3v1.4h-1.4v-1.4H36.9z M36.9,23.7v1.4h-1.4v-1.4H36.9z M36.9,25.1v1.4h-1.4v-1.4H36.9z
	 M36.9,26.5v1.4h-1.4v-1.4H36.9z M36.9,34.8v1.4h-1.4v-1.4H36.9z M36.9,36.2v1.4h-1.4v-1.4H36.9z M36.9,37.6V39h-1.4v-1.4H36.9z
	 M36.9,39v1.4h-1.4V39H36.9z M36.9,40.4v1.4h-1.4v-1.4H36.9z M36.9,48.7v1.4h-1.4v-1.4H36.9z M36.9,50.1v1.4h-1.4v-1.4H36.9z
	 M36.9,51.5v1.4h-1.4v-1.4H36.9z M36.9,52.9v1.4h-1.4v-1.4H36.9z M36.9,54.3v1.4h-1.4v-1.4H36.9z M36.9,22.3v-1.4h1.4v1.4H36.9z
	 M36.9,23.7v-1.4h1.4v1.4H36.9z M36.9,25v-1.4h1.4V25H36.9z M36.9,26.4V25h1.4v1.4H36.9z M38.3,26.4v1.4h-1.4v-1.4H38.3z M38.3,34.8
	v1.4h-1.4v-1.4H38.3z M38.3,36.2v1.4h-1.4v-1.4H38.3z M38.3,37.6V39h-1.4v-1.4H38.3z M38.3,39v1.4h-1.4V39H38.3z M38.3,40.3v1.4
	h-1.4v-1.4H38.3z M38.3,48.7v1.4h-1.4v-1.4H38.3z M38.3,50.1v1.4h-1.4v-1.4H38.3z M38.3,51.5v1.4h-1.4v-1.4H38.3z M38.3,52.9v1.4
	h-1.4v-1.4H38.3z M38.3,54.3v1.4h-1.4v-1.4H38.3z M38.3,22.2v-1.4h1.4v1.4H38.3z M38.3,23.6v-1.4h1.4v1.4H38.3z M38.3,25v-1.4h1.4
	V25H38.3z M38.3,26.4V25h1.4v1.4H38.3z M39.7,26.4v1.4h-1.4v-1.4H39.7z M39.7,34.8v1.4h-1.4v-1.4H39.7z M39.7,36.1v1.4h-1.4v-1.4
	H39.7z M39.7,37.5v1.4h-1.4v-1.4H39.7z M39.7,38.9v1.4h-1.4v-1.4H39.7z M39.7,40.3v1.4h-1.4v-1.4H39.7z M39.7,48.7v1.4h-1.4v-1.4
	H39.7z M39.7,50.1v1.4h-1.4v-1.4H39.7z M39.7,51.4v1.4h-1.4v-1.4H39.7z M39.7,52.8v1.4h-1.4v-1.4H39.7z M39.7,54.2v1.4h-1.4v-1.4
	H39.7z M39.7,22.2v-1.4h1.4v1.4H39.7z M39.7,23.6v-1.4h1.4v1.4H39.7z M39.7,25v-1.4h1.4V25H39.7z M39.7,26.4V25h1.4v1.4H39.7z
	 M39.7,27.8v-1.4h1.4v1.4H39.7z M41.1,27.8v1.4h-1.4v-1.4H41.1z M41.1,34.7v1.4h-1.4v-1.4H41.1z M41.1,36.1v1.4h-1.4v-1.4H41.1z
	 M41.1,37.5v1.4h-1.4v-1.4H41.1z M41.1,38.9v1.4h-1.4v-1.4H41.1z M41.1,40.3v1.4h-1.4v-1.4H41.1z M41.1,41.7v1.4h-1.4v-1.4H41.1z
	 M41.1,47.2v1.4h-1.4v-1.4H41.1z M41.1,48.6V50h-1.4v-1.4H41.1z M41.1,50v1.4h-1.4V50H41.1z M41.1,51.4v1.4h-1.4v-1.4H41.1z
	 M41.1,52.8v1.4h-1.4v-1.4H41.1z M41.1,54.2v1.4h-1.4v-1.4H41.1z M41.1,22.2v-1.4h1.4v1.4H41.1z M41.1,23.6v-1.4h1.4v1.4H41.1z
	 M41.1,25v-1.4h1.4V25H41.1z M41.1,26.3V25h1.4v1.4H41.1z M41.1,27.7v-1.4h1.4v1.4H41.1z M41.1,29.1v-1.4h1.4v1.4H41.1z M41.1,30.5
	v-1.4h1.4v1.4H41.1z M42.5,34.7v1.4h-1.4v-1.4H42.5z M42.5,36.1v1.4h-1.4v-1.4H42.5z M42.5,37.5v1.4h-1.4v-1.4H42.5z M42.5,38.9v1.4
	h-1.4v-1.4H42.5z M42.5,40.3v1.4h-1.4v-1.4H42.5z M42.5,41.6V43h-1.4v-1.4H42.5z M42.5,43v1.4h-1.4V43H42.5z M42.5,44.4v1.4h-1.4
	v-1.4H42.5z M42.5,45.8v1.4h-1.4v-1.4H42.5z M42.5,47.2v1.4h-1.4v-1.4H42.5z M42.5,48.6V50h-1.4v-1.4H42.5z M42.5,50v1.4h-1.4V50
	H42.5z M42.5,51.4v1.4h-1.4v-1.4H42.5z M42.5,52.8v1.4h-1.4v-1.4H42.5z M42.5,54.2v1.4h-1.4v-1.4H42.5z M42.5,23.5v-1.4h1.4v1.4
	H42.5z M42.5,24.9v-1.4h1.4v1.4H42.5z M42.5,26.3v-1.4h1.4v1.4H42.5z M42.5,27.7v-1.4h1.4v1.4H42.5z M42.5,29.1v-1.4h1.4v1.4H42.5z
	 M42.5,30.5v-1.4h1.4v1.4H42.5z M43.8,36v1.4h-1.4V36H43.8z M43.8,37.4v1.4h-1.4v-1.4H43.8z M43.8,38.8v1.4h-1.4v-1.4H43.8z
	 M43.8,40.2v1.4h-1.4v-1.4H43.8z M43.8,41.6V43h-1.4v-1.4H43.8z M43.8,43v1.4h-1.4V43H43.8z M43.8,44.4v1.4h-1.4v-1.4H43.8z
	 M43.8,45.8v1.4h-1.4v-1.4H43.8z M43.8,47.2v1.4h-1.4v-1.4H43.8z M43.8,48.6v1.4h-1.4v-1.4H43.8z M43.8,49.9v1.4h-1.4v-1.4H43.8z
	 M43.8,51.3v1.4h-1.4v-1.4H43.8z M43.8,52.7v1.4h-1.4v-1.4H43.8z M43.8,23.5v-1.4h1.4v1.4H43.8z M43.8,24.9v-1.4h1.4v1.4H43.8z
	 M43.8,26.3v-1.4h1.4v1.4H43.8z M43.8,27.7v-1.4h1.4v1.4H43.8z M43.8,29v-1.4h1.4V29H43.8z M43.8,30.4V29h1.4v1.4H43.8z M45.2,36
	v1.4h-1.4V36H45.2z M45.2,37.4v1.4h-1.4v-1.4H45.2z M45.2,38.8v1.4h-1.4v-1.4H45.2z M45.2,40.2v1.4h-1.4v-1.4H45.2z M45.2,41.6V43
	h-1.4v-1.4H45.2z M45.2,43v1.4h-1.4V43H45.2z M45.2,44.3v1.4h-1.4v-1.4H45.2z M45.2,45.7v1.4h-1.4v-1.4H45.2z M45.2,47.1v1.4h-1.4
	v-1.4H45.2z M45.2,48.5v1.4h-1.4v-1.4H45.2z M45.2,49.9v1.4h-1.4v-1.4H45.2z M45.2,51.3v1.4h-1.4v-1.4H45.2z M45.2,52.7v1.4h-1.4
	v-1.4H45.2z M45.2,24.8v-1.4h1.4v1.4H45.2z M45.2,26.2v-1.4h1.4v1.4H45.2z M45.2,27.6v-1.4h1.4v1.4H45.2z M45.2,29v-1.4h1.4V29H45.2
	z M45.2,30.4V29h1.4v1.4H45.2z M46.6,37.4v1.4h-1.4v-1.4H46.6z M46.6,38.7v1.4h-1.4v-1.4H46.6z M46.6,40.1v1.4h-1.4v-1.4H46.6z
	 M46.6,41.5v1.4h-1.4v-1.4H46.6z M46.6,42.9v1.4h-1.4v-1.4H46.6z M46.6,44.3v1.4h-1.4v-1.4H46.6z M46.6,45.7v1.4h-1.4v-1.4H46.6z
	 M46.6,47.1v1.4h-1.4v-1.4H46.6z M46.6,48.5v1.4h-1.4v-1.4H46.6z M46.6,49.9v1.4h-1.4v-1.4H46.6z M46.6,51.3v1.4h-1.4v-1.4H46.6z
	 M46.6,27.6v-1.4H48v1.4H46.6z M46.6,29v-1.4H48V29H46.6z M46.6,30.4V29H48v1.4H46.6z M48,40.1v1.4h-1.4v-1.4H48z M48,41.5v1.4h-1.4
	v-1.4H48z M48,42.9v1.4h-1.4v-1.4H48z M48,44.3v1.4h-1.4v-1.4H48z M48,45.7v1.4h-1.4v-1.4H48z M48,47.1v1.4h-1.4v-1.4H48z M48,48.5
	v1.4h-1.4v-1.4H48z"/>
<path class="st0" d="M53.6,35.1v1.4h-1.4v-1.4H53.6z M53.6,36.5v1.4h-1.4v-1.4H53.6z M53.6,37.9v1.4h-1.4v-1.4H53.6z M53.6,39.3v1.4
	h-1.4v-1.4H53.6z M53.6,40.7V42h-1.4v-1.4H53.6z M53.6,42v1.4h-1.4V42H53.6z M53.6,43.4v1.4h-1.4v-1.4H53.6z M53.6,44.8v1.4h-1.4
	v-1.4H53.6z M53.6,46.2v1.4h-1.4v-1.4H53.6z M53.6,47.6V49h-1.4v-1.4H53.6z M53.6,49v1.4h-1.4V49H53.6z M55,32.3v1.4h-1.4v-1.4H55z
	 M55,33.7v1.4h-1.4v-1.4H55z M55,35.1v1.4h-1.4v-1.4H55z M55,36.5v1.4h-1.4v-1.4H55z M55,37.8v1.4h-1.4v-1.4H55z M55,39.2v1.4h-1.4
	v-1.4H55z M55,40.6V42h-1.4v-1.4H55z M55,42v1.4h-1.4V42H55z M55,43.4v1.4h-1.4v-1.4H55z M55,44.8v1.4h-1.4v-1.4H55z M55,46.2v1.4
	h-1.4v-1.4H55z M55,47.6V49h-1.4v-1.4H55z M55,49v1.4h-1.4V49H55z M55,50.4v1.4h-1.4v-1.4H55z M55,51.7v1.4h-1.4v-1.4H55z
	 M56.4,30.9v1.4H55v-1.4C55,30.9,56.4,30.9,56.4,30.9z M56.4,32.3v1.4H55v-1.4H56.4z M56.4,33.6V35H55v-1.4H56.4z M56.4,35v1.4H55
	V35H56.4z M56.4,36.4v1.4H55v-1.4H56.4z M56.4,37.8v1.4H55v-1.4H56.4z M56.4,39.2v1.4H55v-1.4H56.4z M56.4,40.6V42H55v-1.4H56.4z
	 M56.4,42v1.4H55V42H56.4z M56.4,43.4v1.4H55v-1.4H56.4z M56.4,44.8v1.4H55v-1.4H56.4z M56.4,46.2v1.4H55v-1.4H56.4z M56.4,47.5v1.4
	H55v-1.4H56.4z M56.4,48.9v1.4H55v-1.4H56.4z M56.4,50.3v1.4H55v-1.4H56.4z M56.4,51.7v1.4H55v-1.4H56.4z M56.4,53.1v1.4H55v-1.4
	H56.4z M57.8,30.8v1.4h-1.4v-1.4C56.4,30.8,57.8,30.8,57.8,30.8z M57.8,32.2v1.4h-1.4v-1.4H57.8z M57.8,33.6V35h-1.4v-1.4H57.8z
	 M57.8,35v1.4h-1.4V35H57.8z M57.8,36.4v1.4h-1.4v-1.4H57.8z M57.8,37.8v1.4h-1.4v-1.4H57.8z M57.8,39.2v1.4h-1.4v-1.4H57.8z
	 M57.8,40.6v1.4h-1.4v-1.4H57.8z M57.8,41.9v1.4h-1.4v-1.4H57.8z M57.8,43.3v1.4h-1.4v-1.4H57.8z M57.8,44.7v1.4h-1.4v-1.4H57.8z
	 M57.8,46.1v1.4h-1.4v-1.4H57.8z M57.8,47.5v1.4h-1.4v-1.4H57.8z M57.8,48.9v1.4h-1.4v-1.4H57.8z M57.8,50.3v1.4h-1.4v-1.4H57.8z
	 M57.8,51.7v1.4h-1.4v-1.4H57.8z M57.8,53.1v1.4h-1.4v-1.4H57.8z M59.2,29.4v1.4h-1.4v-1.4H59.2z M59.2,30.8v1.4h-1.4v-1.4
	C57.8,30.8,59.2,30.8,59.2,30.8z M59.2,32.2v1.4h-1.4v-1.4H59.2z M59.2,33.6V35h-1.4v-1.4H59.2z M59.2,35v1.4h-1.4V35H59.2z
	 M59.2,36.3v1.4h-1.4v-1.4H59.2z M59.2,37.7v1.4h-1.4v-1.4H59.2z M59.2,39.1v1.4h-1.4v-1.4H59.2z M59.2,40.5v1.4h-1.4v-1.4H59.2z
	 M59.2,41.9v1.4h-1.4v-1.4H59.2z M59.2,43.3v1.4h-1.4v-1.4H59.2z M59.2,44.7v1.4h-1.4v-1.4H59.2z M59.2,46.1v1.4h-1.4v-1.4H59.2z
	 M59.2,47.5v1.4h-1.4v-1.4H59.2z M59.2,48.9v1.4h-1.4v-1.4H59.2z M59.2,50.2v1.4h-1.4v-1.4H59.2z M59.2,51.6V53h-1.4v-1.4H59.2z
	 M59.2,53v1.4h-1.4V53H59.2z M59.2,54.4v1.4h-1.4v-1.4H59.2z M60.6,29.4v1.4h-1.4v-1.4H60.6z M60.6,30.7v1.4h-1.4v-1.4
	C59.2,30.7,60.6,30.7,60.6,30.7z M60.6,32.1v1.4h-1.4v-1.4H60.6z M60.6,33.5v1.4h-1.4v-1.4H60.6z M60.6,34.9v1.4h-1.4v-1.4H60.6z
	 M60.6,48.8v1.4h-1.4v-1.4H60.6z M60.6,50.2v1.4h-1.4v-1.4H60.6z M60.6,51.6V53h-1.4v-1.4H60.6z M60.6,53v1.4h-1.4V53H60.6z
	 M60.6,54.4v1.4h-1.4v-1.4H60.6z M62,29.3v1.4h-1.4v-1.4H62z M62,30.7v1.4h-1.4v-1.4C60.6,30.7,62,30.7,62,30.7z M62,32.1v1.4h-1.4
	v-1.4H62z M62,33.5v1.4h-1.4v-1.4H62z M62,50.2v1.4h-1.4v-1.4H62z M62,51.6V53h-1.4v-1.4H62z M62,53v1.4h-1.4V53H62z M62,54.4v1.4
	h-1.4v-1.4H62z M63.4,29.3v1.4H62v-1.4H63.4z M63.4,30.7v1.4H62v-1.4C62,30.7,63.4,30.7,63.4,30.7z M63.4,32.1v1.4H62v-1.4H63.4z
	 M63.4,33.5v1.4H62v-1.4H63.4z M63.4,50.2v1.4H62v-1.4H63.4z M63.4,51.6V53H62v-1.4H63.4z M63.4,53v1.4H62V53H63.4z M63.4,54.4v1.4
	H62v-1.4H63.4z M64.8,29.3v1.4h-1.4v-1.4H64.8z M64.8,30.7v1.4h-1.4v-1.4C63.4,30.7,64.8,30.7,64.8,30.7z M64.8,32.1v1.4h-1.4v-1.4
	H64.8z M64.8,33.5v1.4h-1.4v-1.4H64.8z M64.8,50.2v1.4h-1.4v-1.4H64.8z M64.8,51.6V53h-1.4v-1.4H64.8z M64.8,53v1.4h-1.4V53H64.8z
	 M64.8,54.4v1.4h-1.4v-1.4H64.8z M66.1,29.3v1.4h-1.4v-1.4H66.1z M66.1,30.7v1.4h-1.4v-1.4C64.8,30.7,66.1,30.7,66.1,30.7z
	 M66.1,32.1v1.4h-1.4v-1.4H66.1z M66.1,33.5v1.4h-1.4v-1.4H66.1z M66.1,50.2v1.4h-1.4v-1.4H66.1z M66.1,51.6V53h-1.4v-1.4H66.1z
	 M66.1,53v1.4h-1.4V53H66.1z M66.1,54.4v1.4h-1.4v-1.4H66.1z M67.5,29.3v1.4h-1.4v-1.4H67.5z M67.5,30.7v1.4h-1.4v-1.4
	C66.1,30.7,67.5,30.7,67.5,30.7z M67.5,32.1v1.4h-1.4v-1.4H67.5z M67.5,33.5v1.4h-1.4v-1.4H67.5z M67.5,34.9v1.4h-1.4v-1.4H67.5z
	 M67.5,48.8v1.4h-1.4v-1.4H67.5z M67.5,50.2v1.4h-1.4v-1.4H67.5z M67.5,51.6v1.4h-1.4v-1.4H67.5z M67.5,52.9v1.4h-1.4v-1.4H67.5z
	 M67.5,54.3v1.4h-1.4v-1.4H67.5z M68.9,29.3v1.4h-1.4v-1.4H68.9z M68.9,30.7v1.4h-1.4v-1.4C67.5,30.7,68.9,30.7,68.9,30.7z
	 M68.9,32.1v1.4h-1.4v-1.4H68.9z M68.9,33.4v1.4h-1.4v-1.4H68.9z M68.9,34.8v1.4h-1.4v-1.4H68.9z M68.9,36.2v1.4h-1.4v-1.4H68.9z
	 M68.9,37.6V39h-1.4v-1.4H68.9z M68.9,46v1.4h-1.4V46H68.9z M68.9,47.4v1.4h-1.4v-1.4H68.9z M68.9,48.7v1.4h-1.4v-1.4H68.9z
	 M68.9,50.1v1.4h-1.4v-1.4H68.9z M68.9,51.5v1.4h-1.4v-1.4H68.9z M68.9,52.9v1.4h-1.4v-1.4H68.9z M68.9,54.3v1.4h-1.4v-1.4H68.9z
	 M70.3,30.6V32h-1.4v-1.4C68.9,30.6,70.3,30.6,70.3,30.6z M70.3,32v1.4h-1.4V32H70.3z M70.3,33.4v1.4h-1.4v-1.4H70.3z M70.3,34.8
	v1.4h-1.4v-1.4H70.3z M70.3,36.2v1.4h-1.4v-1.4H70.3z M70.3,37.6V39h-1.4v-1.4H70.3z M70.3,45.9v1.4h-1.4v-1.4H70.3z M70.3,47.3v1.4
	h-1.4v-1.4H70.3z M70.3,48.7v1.4h-1.4v-1.4H70.3z M70.3,50.1v1.4h-1.4v-1.4H70.3z M70.3,51.5v1.4h-1.4v-1.4H70.3z M70.3,52.9v1.4
	h-1.4v-1.4H70.3z M71.7,30.6V32h-1.4v-1.4H71.7z M71.7,32v1.4h-1.4V32C70.3,32,71.7,32,71.7,32z M71.7,33.4v1.4h-1.4v-1.4H71.7z
	 M71.7,34.8v1.4h-1.4v-1.4H71.7z M71.7,36.2v1.4h-1.4v-1.4H71.7z M71.7,37.6v1.4h-1.4v-1.4H71.7z M71.7,45.9v1.4h-1.4v-1.4H71.7z
	 M71.7,47.3v1.4h-1.4v-1.4H71.7z M71.7,48.7v1.4h-1.4v-1.4H71.7z M71.7,50.1v1.4h-1.4v-1.4H71.7z M71.7,51.5v1.4h-1.4v-1.4H71.7z
	 M71.7,52.9v1.4h-1.4v-1.4H71.7z M73.1,32v1.4h-1.4V32C71.7,32,73.1,32,73.1,32z M73.1,33.4v1.4h-1.4v-1.4H73.1z M73.1,34.8v1.4
	h-1.4v-1.4H73.1z M73.1,36.1v1.4h-1.4v-1.4H73.1z M73.1,37.5v1.4h-1.4v-1.4H73.1z M73.1,45.9v1.4h-1.4v-1.4H73.1z M73.1,47.3v1.4
	h-1.4v-1.4H73.1z M73.1,48.7v1.4h-1.4v-1.4H73.1z M73.1,50.1v1.4h-1.4v-1.4H73.1z M73.1,51.4v1.4h-1.4v-1.4H73.1z M74.5,34.7v1.4
	h-1.4v-1.4H74.5z M74.5,36.1v1.4h-1.4v-1.4H74.5z M74.5,37.5v1.4h-1.4v-1.4H74.5z M74.5,45.9v1.4h-1.4v-1.4H74.5z M74.5,47.3v1.4
	h-1.4v-1.4H74.5z M74.5,48.6V50h-1.4v-1.4H74.5z"/>
<path class="st0" d="M80.1,30.9v1.4h-1.4v-1.4H80.1z M80.1,32.3v1.4h-1.4v-1.4H80.1z M80.1,33.7v1.4h-1.4v-1.4H80.1z M80.1,35.1v1.4
	h-1.4v-1.4H80.1z M80.1,36.5v1.4h-1.4v-1.4H80.1z M80.1,37.9v1.4h-1.4v-1.4H80.1z M80.1,39.3v1.4h-1.4v-1.4H80.1z M80.1,40.7V42
	h-1.4v-1.4H80.1z M80.1,42v1.4h-1.4V42H80.1z M80.1,43.4v1.4h-1.4v-1.4H80.1z M80.1,44.8v1.4h-1.4v-1.4H80.1z M80.1,46.2v1.4h-1.4
	v-1.4H80.1z M80.1,47.6V49h-1.4v-1.4H80.1z M80.1,49v1.4h-1.4V49H80.1z M80.1,50.4v1.4h-1.4v-1.4H80.1z M80.1,51.8v1.4h-1.4v-1.4
	H80.1z M80.1,53.2v1.4h-1.4v-1.4H80.1z M80.1,54.6v1.4h-1.4v-1.4H80.1z M81.5,30.9v1.4h-1.4v-1.4C80.1,30.9,81.5,30.9,81.5,30.9z
	 M81.5,32.3v1.4h-1.4v-1.4H81.5z M81.5,33.7v1.4h-1.4v-1.4H81.5z M81.5,35.1v1.4h-1.4v-1.4H81.5z M81.5,36.4v1.4h-1.4v-1.4H81.5z
	 M81.5,37.8v1.4h-1.4v-1.4H81.5z M81.5,39.2v1.4h-1.4v-1.4H81.5z M81.5,40.6V42h-1.4v-1.4H81.5z M81.5,42v1.4h-1.4V42H81.5z
	 M81.5,43.4v1.4h-1.4v-1.4H81.5z M81.5,44.8v1.4h-1.4v-1.4H81.5z M81.5,46.2v1.4h-1.4v-1.4H81.5z M81.5,47.6V49h-1.4v-1.4H81.5z
	 M81.5,49v1.4h-1.4V49H81.5z M81.5,50.3v1.4h-1.4v-1.4H81.5z M81.5,51.7v1.4h-1.4v-1.4H81.5z M81.5,53.1v1.4h-1.4v-1.4H81.5z
	 M81.5,54.5v1.4h-1.4v-1.4H81.5z M82.9,30.8v1.4h-1.4v-1.4C81.5,30.8,82.9,30.8,82.9,30.8z M82.9,32.2v1.4h-1.4v-1.4H82.9z
	 M82.9,33.6V35h-1.4v-1.4H82.9z M82.9,35v1.4h-1.4V35H82.9z M82.9,36.4v1.4h-1.4v-1.4H82.9z M82.9,37.8v1.4h-1.4v-1.4H82.9z
	 M82.9,39.2v1.4h-1.4v-1.4H82.9z M82.9,40.6V42h-1.4v-1.4H82.9z M82.9,42v1.4h-1.4V42H82.9z M82.9,43.4v1.4h-1.4v-1.4H82.9z
	 M82.9,44.7v1.4h-1.4v-1.4H82.9z M82.9,46.1v1.4h-1.4v-1.4H82.9z M82.9,47.5v1.4h-1.4v-1.4H82.9z M82.9,48.9v1.4h-1.4v-1.4H82.9z
	 M82.9,50.3v1.4h-1.4v-1.4H82.9z M82.9,51.7v1.4h-1.4v-1.4H82.9z M82.9,53.1v1.4h-1.4v-1.4H82.9z M82.9,54.5v1.4h-1.4v-1.4H82.9z
	 M84.2,30.8v1.4h-1.4v-1.4C82.9,30.8,84.2,30.8,84.2,30.8z M84.2,32.2v1.4h-1.4v-1.4H84.2z M84.2,33.6V35h-1.4v-1.4H84.2z M84.2,35
	v1.4h-1.4V35H84.2z M84.2,36.4v1.4h-1.4v-1.4H84.2z M84.2,37.8v1.4h-1.4v-1.4H84.2z M84.2,39.1v1.4h-1.4v-1.4H84.2z M84.2,40.5v1.4
	h-1.4v-1.4H84.2z M84.2,41.9v1.4h-1.4v-1.4H84.2z M84.2,43.3v1.4h-1.4v-1.4H84.2z M84.2,44.7v1.4h-1.4v-1.4H84.2z M84.2,46.1v1.4
	h-1.4v-1.4H84.2z M84.2,47.5v1.4h-1.4v-1.4H84.2z M84.2,48.9v1.4h-1.4v-1.4H84.2z M84.2,50.3v1.4h-1.4v-1.4H84.2z M84.2,51.7V53
	h-1.4v-1.4H84.2z M84.2,53v1.4h-1.4V53H84.2z M84.2,54.4v1.4h-1.4v-1.4H84.2z M85.6,30.8v1.4h-1.4v-1.4
	C84.2,30.8,85.6,30.8,85.6,30.8z M85.6,32.2v1.4h-1.4v-1.4H85.6z M85.6,33.5v1.4h-1.4v-1.4H85.6z M85.6,34.9v1.4h-1.4v-1.4H85.6z
	 M85.6,36.3v1.4h-1.4v-1.4H85.6z M85.6,37.7v1.4h-1.4v-1.4H85.6z M85.6,39.1v1.4h-1.4v-1.4H85.6z M85.6,40.5v1.4h-1.4v-1.4H85.6z
	 M85.6,41.9v1.4h-1.4v-1.4H85.6z M85.6,43.3v1.4h-1.4v-1.4H85.6z M85.6,44.7v1.4h-1.4v-1.4H85.6z M85.6,46.1v1.4h-1.4v-1.4H85.6z
	 M85.6,47.4v1.4h-1.4v-1.4H85.6z M85.6,48.8v1.4h-1.4v-1.4H85.6z M85.6,50.2v1.4h-1.4v-1.4H85.6z M85.6,51.6V53h-1.4v-1.4H85.6z
	 M85.6,53v1.4h-1.4V53H85.6z M85.6,54.4v1.4h-1.4v-1.4H85.6z"/>
<path class="st0" d="M0,60.1v-1.4h1.3v1.4H0z M0,61.5v-1.4h1.3v1.4H0z M0,62.9v-1.4h1.3v1.4H0z M1.3,62.9v1.4H0v-1.4H1.3z M1.3,64.3
	v1.4H0v-1.4H1.3z M1.3,65.7v1.4H0v-1.4H1.3z M1.3,67.1v1.4H0v-1.4H1.3z M1.3,76.8v1.4H0v-1.4H1.3z M1.3,78.2v1.4H0v-1.4H1.3z
	 M1.3,79.6V81H0v-1.4H1.3z M1.3,81v1.4H0V81H1.3z M1.3,57.3v-1.4h1.3v1.4H1.3z M1.3,58.7v-1.4h1.3v1.4H1.3z M1.3,60.1v-1.4h1.3v1.4
	H1.3z M1.3,61.5v-1.4h1.3v1.4H1.3z M1.3,62.9v-1.4h1.3v1.4H1.3z M2.6,62.9v1.4H1.3v-1.4H2.6z M2.6,64.3v1.4H1.3v-1.4H2.6z M2.6,65.7
	v1.4H1.3v-1.4H2.6z M2.6,67.1v1.4H1.3v-1.4H2.6z M2.6,68.5v1.4H1.3v-1.4H2.6z M2.6,69.8v1.4H1.3v-1.4H2.6z M2.6,76.8v1.4H1.3v-1.4
	H2.6z M2.6,78.2v1.4H1.3v-1.4H2.6z M2.6,79.6V81H1.3v-1.4H2.6z M2.6,81v1.4H1.3V81H2.6z M2.6,82.4v1.4H1.3v-1.4H2.6z M2.6,83.8v1.4
	H1.3v-1.4H2.6z M2.6,55.9v-1.4h1.3v1.4H2.6z M2.6,57.3v-1.4h1.3v1.4H2.6z M2.6,58.7v-1.4h1.3v1.4H2.6z M2.6,60.1v-1.4h1.3v1.4H2.6z
	 M2.6,61.5v-1.4h1.3v1.4H2.6z M2.6,62.9v-1.4h1.3v1.4H2.6z M3.8,62.9v1.4H2.6v-1.4H3.8z M3.8,64.2v1.4H2.6v-1.4H3.8z M3.8,65.6V67
	H2.6v-1.4H3.8z M3.8,67v1.4H2.6V67H3.8z M3.8,68.4v1.4H2.6v-1.4H3.8z M3.8,69.8v1.4H2.6v-1.4H3.8z M3.8,71.2v1.4H2.6v-1.4H3.8z
	 M3.8,76.8v1.4H2.6v-1.4H3.8z M3.8,78.2v1.4H2.6v-1.4H3.8z M3.8,79.5v1.4H2.6v-1.4H3.8z M3.8,80.9v1.4H2.6v-1.4H3.8z M3.8,82.3v1.4
	H2.6v-1.4H3.8z M3.8,83.7v1.4H2.6v-1.4H3.8z M3.8,85.1v1.4H2.6v-1.4H3.8z M3.8,55.9v-1.4h1.3v1.4H3.8z M3.8,57.3v-1.4h1.3v1.4H3.8z
	 M3.8,58.6v-1.4h1.3v1.4H3.8z M3.8,60v-1.4h1.3V60H3.8z M3.8,61.4V60h1.3v1.4H3.8z M3.8,62.8v-1.4h1.3v1.4H3.8z M5.1,62.8v1.4H3.8
	v-1.4H5.1z M5.1,64.2v1.4H3.8v-1.4H5.1z M5.1,65.6V67H3.8v-1.4H5.1z M5.1,67v1.4H3.8V67H5.1z M5.1,68.4v1.4H3.8v-1.4H5.1z M5.1,69.8
	v1.4H3.8v-1.4H5.1z M5.1,71.2v1.4H3.8v-1.4H5.1z M5.1,76.7v1.4H3.8v-1.4H5.1z M5.1,78.1v1.4H3.8v-1.4H5.1z M5.1,79.5v1.4H3.8v-1.4
	H5.1z M5.1,80.9v1.4H3.8v-1.4H5.1z M5.1,82.3v1.4H3.8v-1.4H5.1z M5.1,83.7v1.4H3.8v-1.4H5.1z M5.1,85.1v1.4H3.8v-1.4H5.1z M5.1,54.4
	V53h1.3v1.4H5.1z M5.1,55.8v-1.4h1.3v1.4H5.1z M5.1,57.2v-1.4h1.3v1.4H5.1z M5.1,58.6v-1.4h1.3v1.4H5.1z M5.1,60v-1.4h1.3V60H5.1z
	 M5.1,61.4V60h1.3v1.4H5.1z M5.1,62.8v-1.4h1.3v1.4H5.1z M6.4,62.8v1.4H5.1v-1.4H6.4z M6.4,64.2v1.4H5.1v-1.4H6.4z M6.4,65.6v1.4
	H5.1v-1.4H6.4z M6.4,66.9v1.4H5.1v-1.4H6.4z M6.4,68.3v1.4H5.1v-1.4H6.4z M6.4,69.7v1.4H5.1v-1.4H6.4z M6.4,71.1v1.4H5.1v-1.4H6.4z
	 M6.4,72.5v1.4H5.1v-1.4H6.4z M6.4,76.7v1.4H5.1v-1.4H6.4z M6.4,78.1v1.4H5.1v-1.4H6.4z M6.4,79.5v1.4H5.1v-1.4H6.4z M6.4,80.9v1.4
	H5.1v-1.4H6.4z M6.4,82.2v1.4H5.1v-1.4H6.4z M6.4,83.6V85H5.1v-1.4H6.4z M6.4,85v1.4H5.1V85H6.4z M6.4,86.4v1.4H5.1v-1.4H6.4z
	 M6.4,54.4V53h1.3v1.4H6.4z M6.4,55.8v-1.4h1.3v1.4H6.4z M6.4,57.2v-1.4h1.3v1.4H6.4z M6.4,58.6v-1.4h1.3v1.4H6.4z M6.4,60v-1.4h1.3
	V60H6.4z M7.7,60v1.4H6.4V60H7.7z M7.7,65.5v1.4H6.4v-1.4H7.7z M7.7,66.9v1.4H6.4v-1.4H7.7z M7.7,68.3v1.4H6.4v-1.4H7.7z M7.7,69.7
	v1.4H6.4v-1.4H7.7z M7.7,71.1v1.4H6.4v-1.4H7.7z M7.7,72.5v1.4H6.4v-1.4H7.7z M7.7,79.4v1.4H6.4v-1.4H7.7z M7.7,80.8v1.4H6.4v-1.4
	H7.7z M7.7,82.2v1.4H6.4v-1.4H7.7z M7.7,83.6V85H6.4v-1.4H7.7z M7.7,85v1.4H6.4V85H7.7z M7.7,86.4v1.4H6.4v-1.4H7.7z M7.7,54.4V53H9
	v1.4H7.7z M7.7,55.8v-1.4H9v1.4H7.7z M7.7,57.1v-1.4H9v1.4H7.7z M7.7,58.5v-1.4H9v1.4H7.7z M9,58.5v1.4H7.7v-1.4H9z M9,66.9v1.4H7.7
	v-1.4H9z M9,68.3v1.4H7.7v-1.4H9z M9,69.7v1.4H7.7v-1.4H9z M9,71.1v1.4H7.7v-1.4H9z M9,72.4v1.4H7.7v-1.4H9z M9,80.8v1.4H7.7v-1.4H9
	z M9,82.2v1.4H7.7v-1.4H9z M9,83.6V85H7.7v-1.4H9z M9,85v1.4H7.7V85H9z M9,86.4v1.4H7.7v-1.4H9z M9,54.3v-1.4h1.3v1.4H9z M9,55.7
	v-1.4h1.3v1.4H9z M9,57.1v-1.4h1.3v1.4H9z M9,58.5v-1.4h1.3v1.4H9z M10.2,58.5v1.4H9v-1.4H10.2z M10.2,66.9v1.4H9v-1.4H10.2z
	 M10.2,68.2v1.4H9v-1.4H10.2z M10.2,69.6V71H9v-1.4H10.2z M10.2,71v1.4H9V71H10.2z M10.2,72.4v1.4H9v-1.4H10.2z M10.2,80.8v1.4H9
	v-1.4H10.2z M10.2,82.2v1.4H9v-1.4H10.2z M10.2,83.5v1.4H9v-1.4H10.2z M10.2,84.9v1.4H9v-1.4H10.2z M10.2,86.3v1.4H9v-1.4H10.2z
	 M11.5,52.9v1.4h-1.3v-1.4H11.5z M11.5,54.3v1.4h-1.3v-1.4H11.5z M11.5,55.7v1.4h-1.3v-1.4H11.5z M11.5,57.1v1.4h-1.3v-1.4H11.5z
	 M11.5,58.5v1.4h-1.3v-1.4H11.5z M11.5,66.8v1.4h-1.3v-1.4H11.5z M11.5,68.2v1.4h-1.3v-1.4H11.5z M11.5,69.6V71h-1.3v-1.4H11.5z
	 M11.5,71v1.4h-1.3V71H11.5z M11.5,72.4v1.4h-1.3v-1.4H11.5z M11.5,80.7v1.4h-1.3v-1.4H11.5z M11.5,82.1v1.4h-1.3v-1.4H11.5z
	 M11.5,83.5v1.4h-1.3v-1.4H11.5z M11.5,84.9v1.4h-1.3v-1.4H11.5z M11.5,86.3v1.4h-1.3v-1.4H11.5z M11.5,54.3v-1.4h1.3v1.4H11.5z
	 M11.5,55.7v-1.4h1.3v1.4H11.5z M11.5,57v-1.4h1.3V57H11.5z M11.5,58.4V57h1.3v1.4H11.5z M12.8,58.4v1.4h-1.3v-1.4H12.8z M12.8,66.8
	v1.4h-1.3v-1.4H12.8z M12.8,68.2v1.4h-1.3v-1.4H12.8z M12.8,69.6V71h-1.3v-1.4H12.8z M12.8,71v1.4h-1.3V71H12.8z M12.8,72.3v1.4
	h-1.3v-1.4H12.8z M12.8,80.7v1.4h-1.3v-1.4H12.8z M12.8,82.1v1.4h-1.3v-1.4H12.8z M12.8,83.5v1.4h-1.3v-1.4H12.8z M12.8,84.9v1.4
	h-1.3v-1.4H12.8z M12.8,86.3v1.4h-1.3v-1.4H12.8z M12.8,54.2v-1.4h1.3v1.4H12.8z M12.8,55.6v-1.4h1.3v1.4H12.8z M12.8,57v-1.4h1.3
	V57H12.8z M12.8,58.4V57h1.3v1.4H12.8z M14.1,58.4v1.4h-1.3v-1.4H14.1z M14.1,66.8v1.4h-1.3v-1.4H14.1z M14.1,68.1v1.4h-1.3v-1.4
	H14.1z M14.1,69.5v1.4h-1.3v-1.4H14.1z M14.1,70.9v1.4h-1.3v-1.4H14.1z M14.1,72.3v1.4h-1.3v-1.4H14.1z M14.1,80.7v1.4h-1.3v-1.4
	H14.1z M14.1,82.1v1.4h-1.3v-1.4H14.1z M14.1,83.4v1.4h-1.3v-1.4H14.1z M14.1,84.8v1.4h-1.3v-1.4H14.1z M14.1,86.2v1.4h-1.3v-1.4
	H14.1z M14.1,54.2v-1.4h1.3v1.4H14.1z M14.1,55.6v-1.4h1.3v1.4H14.1z M14.1,57v-1.4h1.3V57H14.1z M14.1,58.4V57h1.3v1.4H14.1z
	 M14.1,59.8v-1.4h1.3v1.4H14.1z M15.4,59.8v1.4h-1.3v-1.4H15.4z M15.4,66.7v1.4h-1.3v-1.4H15.4z M15.4,68.1v1.4h-1.3v-1.4H15.4z
	 M15.4,69.5v1.4h-1.3v-1.4H15.4z M15.4,70.9v1.4h-1.3v-1.4H15.4z M15.4,72.3v1.4h-1.3v-1.4H15.4z M15.4,73.7v1.4h-1.3v-1.4H15.4z
	 M15.4,79.2v1.4h-1.3v-1.4H15.4z M15.4,80.6V82h-1.3v-1.4H15.4z M15.4,82v1.4h-1.3V82H15.4z M15.4,83.4v1.4h-1.3v-1.4H15.4z
	 M15.4,84.8v1.4h-1.3v-1.4H15.4z M15.4,86.2v1.4h-1.3v-1.4H15.4z M15.4,54.2v-1.4h1.3v1.4H15.4z M15.4,55.6v-1.4h1.3v1.4H15.4z
	 M15.4,57v-1.4h1.3V57H15.4z M15.4,58.3V57h1.3v1.4H15.4z M15.4,59.7v-1.4h1.3v1.4H15.4z M15.4,61.1v-1.4h1.3v1.4H15.4z M15.4,62.5
	v-1.4h1.3v1.4H15.4z M16.6,66.7v1.4h-1.3v-1.4H16.6z M16.6,68.1v1.4h-1.3v-1.4H16.6z M16.6,69.5v1.4h-1.3v-1.4H16.6z M16.6,70.9v1.4
	h-1.3v-1.4H16.6z M16.6,72.3v1.4h-1.3v-1.4H16.6z M16.6,73.6V75h-1.3v-1.4H16.6z M16.6,75v1.4h-1.3V75H16.6z M16.6,76.4v1.4h-1.3
	v-1.4H16.6z M16.6,77.8v1.4h-1.3v-1.4H16.6z M16.6,79.2v1.4h-1.3v-1.4H16.6z M16.6,80.6V82h-1.3v-1.4H16.6z M16.6,82v1.4h-1.3V82
	H16.6z M16.6,83.4v1.4h-1.3v-1.4H16.6z M16.6,84.8v1.4h-1.3v-1.4H16.6z M16.6,86.2v1.4h-1.3v-1.4H16.6z M16.6,55.5v-1.4h1.3v1.4
	H16.6z M16.6,56.9v-1.4h1.3v1.4H16.6z M16.6,58.3v-1.4h1.3v1.4H16.6z M16.6,59.7v-1.4h1.3v1.4H16.6z M16.6,61.1v-1.4h1.3v1.4H16.6z
	 M16.6,62.5v-1.4h1.3v1.4H16.6z M17.9,68v1.4h-1.3V68H17.9z M17.9,69.4v1.4h-1.3v-1.4H17.9z M17.9,70.8v1.4h-1.3v-1.4H17.9z
	 M17.9,72.2v1.4h-1.3v-1.4H17.9z M17.9,73.6V75h-1.3v-1.4H17.9z M17.9,75v1.4h-1.3V75H17.9z M17.9,76.4v1.4h-1.3v-1.4H17.9z
	 M17.9,77.8v1.4h-1.3v-1.4H17.9z M17.9,79.2v1.4h-1.3v-1.4H17.9z M17.9,80.6v1.4h-1.3v-1.4H17.9z M17.9,81.9v1.4h-1.3v-1.4H17.9z
	 M17.9,83.3v1.4h-1.3v-1.4H17.9z M17.9,84.7v1.4h-1.3v-1.4H17.9z M17.9,55.5v-1.4h1.3v1.4H17.9z M17.9,56.9v-1.4h1.3v1.4H17.9z
	 M17.9,58.3v-1.4h1.3v1.4H17.9z M17.9,59.7v-1.4h1.3v1.4H17.9z M17.9,61v-1.4h1.3V61H17.9z M17.9,62.4V61h1.3v1.4H17.9z M19.2,68
	v1.4h-1.3V68H19.2z M19.2,69.4v1.4h-1.3v-1.4H19.2z M19.2,70.8v1.4h-1.3v-1.4H19.2z M19.2,72.2v1.4h-1.3v-1.4H19.2z M19.2,73.6V75
	h-1.3v-1.4H19.2z M19.2,75v1.4h-1.3V75H19.2z M19.2,76.3v1.4h-1.3v-1.4H19.2z M19.2,77.7v1.4h-1.3v-1.4H19.2z M19.2,79.1v1.4h-1.3
	v-1.4H19.2z M19.2,80.5v1.4h-1.3v-1.4H19.2z M19.2,81.9v1.4h-1.3v-1.4H19.2z M19.2,83.3v1.4h-1.3v-1.4H19.2z M19.2,84.7v1.4h-1.3
	v-1.4H19.2z M19.2,56.8v-1.4h1.3v1.4H19.2z M19.2,58.2v-1.4h1.3v1.4H19.2z M19.2,59.6v-1.4h1.3v1.4H19.2z M19.2,61v-1.4h1.3V61H19.2
	z M19.2,62.4V61h1.3v1.4H19.2z M20.5,69.4v1.4h-1.3v-1.4H20.5z M20.5,70.7v1.4h-1.3v-1.4H20.5z M20.5,72.1v1.4h-1.3v-1.4H20.5z
	 M20.5,73.5v1.4h-1.3v-1.4H20.5z M20.5,74.9v1.4h-1.3v-1.4H20.5z M20.5,76.3v1.4h-1.3v-1.4H20.5z M20.5,77.7v1.4h-1.3v-1.4H20.5z
	 M20.5,79.1v1.4h-1.3v-1.4H20.5z M20.5,80.5v1.4h-1.3v-1.4H20.5z M20.5,81.9v1.4h-1.3v-1.4H20.5z M20.5,83.3v1.4h-1.3v-1.4H20.5z
	 M20.5,59.6v-1.4h1.3v1.4H20.5z M20.5,61v-1.4h1.3V61H20.5z M20.5,62.4V61h1.3v1.4H20.5z M21.8,72.1v1.4h-1.3v-1.4H21.8z M21.8,73.5
	v1.4h-1.3v-1.4H21.8z M21.8,74.9v1.4h-1.3v-1.4H21.8z M21.8,76.3v1.4h-1.3v-1.4H21.8z M21.8,77.7v1.4h-1.3v-1.4H21.8z M21.8,79.1
	v1.4h-1.3v-1.4H21.8z M21.8,80.5v1.4h-1.3v-1.4H21.8z"/>
<path class="st0" d="M27,67.1v1.4h-1.3v-1.4H27z M27,68.5v1.4h-1.3v-1.4H27z M27,69.9v1.4h-1.3v-1.4H27z M27,71.3v1.4h-1.3v-1.4H27z
	 M27,72.7V74h-1.3v-1.4H27z M27,74v1.4h-1.3V74H27z M27,75.4v1.4h-1.3v-1.4H27z M27,76.8v1.4h-1.3v-1.4H27z M27,78.2v1.4h-1.3v-1.4
	H27z M27,79.6V81h-1.3v-1.4H27z M27,81v1.4h-1.3V81H27z M28.2,64.3v1.4H27v-1.4H28.2z M28.2,65.7v1.4H27v-1.4H28.2z M28.2,67.1v1.4
	H27v-1.4H28.2z M28.2,68.5v1.4H27v-1.4H28.2z M28.2,69.8v1.4H27v-1.4H28.2z M28.2,71.2v1.4H27v-1.4H28.2z M28.2,72.6V74H27v-1.4
	H28.2z M28.2,74v1.4H27V74H28.2z M28.2,75.4v1.4H27v-1.4H28.2z M28.2,76.8v1.4H27v-1.4H28.2z M28.2,78.2v1.4H27v-1.4H28.2z
	 M28.2,79.6V81H27v-1.4H28.2z M28.2,81v1.4H27V81H28.2z M28.2,82.4v1.4H27v-1.4H28.2z M28.2,83.7v1.4H27v-1.4H28.2z M29.5,62.9v1.4
	h-1.3v-1.4H29.5z M29.5,64.3v1.4h-1.3v-1.4H29.5z M29.5,65.6V67h-1.3v-1.4H29.5z M29.5,67v1.4h-1.3V67H29.5z M29.5,68.4v1.4h-1.3
	v-1.4H29.5z M29.5,69.8v1.4h-1.3v-1.4H29.5z M29.5,71.2v1.4h-1.3v-1.4H29.5z M29.5,72.6V74h-1.3v-1.4H29.5z M29.5,74v1.4h-1.3V74
	H29.5z M29.5,75.4v1.4h-1.3v-1.4H29.5z M29.5,76.8v1.4h-1.3v-1.4H29.5z M29.5,78.2v1.4h-1.3v-1.4H29.5z M29.5,79.5v1.4h-1.3v-1.4
	H29.5z M29.5,80.9v1.4h-1.3v-1.4H29.5z M29.5,82.3v1.4h-1.3v-1.4H29.5z M29.5,83.7v1.4h-1.3v-1.4H29.5z M29.5,85.1v1.4h-1.3v-1.4
	H29.5z M30.8,62.8v1.4h-1.3v-1.4H30.8z M30.8,64.2v1.4h-1.3v-1.4H30.8z M30.8,65.6V67h-1.3v-1.4H30.8z M30.8,67v1.4h-1.3V67H30.8z
	 M30.8,68.4v1.4h-1.3v-1.4H30.8z M30.8,69.8v1.4h-1.3v-1.4H30.8z M30.8,71.2v1.4h-1.3v-1.4H30.8z M30.8,72.6v1.4h-1.3v-1.4H30.8z
	 M30.8,73.9v1.4h-1.3v-1.4H30.8z M30.8,75.3v1.4h-1.3v-1.4H30.8z M30.8,76.7v1.4h-1.3v-1.4H30.8z M30.8,78.1v1.4h-1.3v-1.4H30.8z
	 M30.8,79.5v1.4h-1.3v-1.4H30.8z M30.8,80.9v1.4h-1.3v-1.4H30.8z M30.8,82.3v1.4h-1.3v-1.4H30.8z M30.8,83.7v1.4h-1.3v-1.4H30.8z
	 M30.8,85.1v1.4h-1.3v-1.4H30.8z M32.1,61.4v1.4h-1.3v-1.4H32.1z M32.1,62.8v1.4h-1.3v-1.4H32.1z M32.1,64.2v1.4h-1.3v-1.4H32.1z
	 M32.1,65.6V67h-1.3v-1.4H32.1z M32.1,67v1.4h-1.3V67H32.1z M32.1,68.3v1.4h-1.3v-1.4H32.1z M32.1,69.7v1.4h-1.3v-1.4H32.1z
	 M32.1,71.1v1.4h-1.3v-1.4H32.1z M32.1,72.5v1.4h-1.3v-1.4H32.1z M32.1,73.9v1.4h-1.3v-1.4H32.1z M32.1,75.3v1.4h-1.3v-1.4H32.1z
	 M32.1,76.7v1.4h-1.3v-1.4H32.1z M32.1,78.1v1.4h-1.3v-1.4H32.1z M32.1,79.5v1.4h-1.3v-1.4H32.1z M32.1,80.9v1.4h-1.3v-1.4H32.1z
	 M32.1,82.2v1.4h-1.3v-1.4H32.1z M32.1,83.6V85h-1.3v-1.4H32.1z M32.1,85v1.4h-1.3V85H32.1z M32.1,86.4v1.4h-1.3v-1.4H32.1z
	 M33.4,61.4v1.4h-1.3v-1.4H33.4z M33.4,62.7v1.4h-1.3v-1.4H33.4z M33.4,64.1v1.4h-1.3v-1.4H33.4z M33.4,65.5v1.4h-1.3v-1.4H33.4z
	 M33.4,66.9v1.4h-1.3v-1.4H33.4z M33.4,72.5v1.4h-1.3v-1.4H33.4z M33.4,73.9v1.4h-1.3v-1.4H33.4z M33.4,75.3v1.4h-1.3v-1.4H33.4z
	 M33.4,80.8v1.4h-1.3v-1.4H33.4z M33.4,82.2v1.4h-1.3v-1.4H33.4z M33.4,83.6V85h-1.3v-1.4H33.4z M33.4,85v1.4h-1.3V85H33.4z
	 M33.4,86.4v1.4h-1.3v-1.4H33.4z M34.6,61.3v1.4h-1.3v-1.4H34.6z M34.6,62.7v1.4h-1.3v-1.4H34.6z M34.6,64.1v1.4h-1.3v-1.4H34.6z
	 M34.6,65.5v1.4h-1.3v-1.4H34.6z M34.6,72.5v1.4h-1.3v-1.4H34.6z M34.6,73.9v1.4h-1.3v-1.4H34.6z M34.6,75.2v1.4h-1.3v-1.4H34.6z
	 M34.6,82.2v1.4h-1.3v-1.4H34.6z M34.6,83.6V85h-1.3v-1.4H34.6z M34.6,85v1.4h-1.3V85H34.6z M34.6,86.4v1.4h-1.3v-1.4H34.6z
	 M35.9,61.3v1.4h-1.3v-1.4H35.9z M35.9,62.7v1.4h-1.3v-1.4H35.9z M35.9,64.1v1.4h-1.3v-1.4H35.9z M35.9,65.5v1.4h-1.3v-1.4H35.9z
	 M35.9,72.4v1.4h-1.3v-1.4H35.9z M35.9,73.8v1.4h-1.3v-1.4H35.9z M35.9,75.2v1.4h-1.3v-1.4H35.9z M35.9,82.2v1.4h-1.3v-1.4H35.9z
	 M35.9,83.6V85h-1.3v-1.4H35.9z M35.9,85v1.4h-1.3V85H35.9z M35.9,86.4v1.4h-1.3v-1.4H35.9z M37.2,61.3v1.4h-1.3v-1.4H37.2z
	 M37.2,62.7v1.4h-1.3v-1.4H37.2z M37.2,64.1v1.4h-1.3v-1.4H37.2z M37.2,65.5v1.4h-1.3v-1.4H37.2z M37.2,72.4v1.4h-1.3v-1.4H37.2z
	 M37.2,73.8v1.4h-1.3v-1.4H37.2z M37.2,75.2v1.4h-1.3v-1.4H37.2z M37.2,82.2v1.4h-1.3v-1.4H37.2z M37.2,83.6v1.4h-1.3v-1.4H37.2z
	 M37.2,84.9v1.4h-1.3v-1.4H37.2z M37.2,86.3v1.4h-1.3v-1.4H37.2z M38.5,61.3v1.4h-1.3v-1.4H38.5z M38.5,62.7v1.4h-1.3v-1.4H38.5z
	 M38.5,64.1v1.4h-1.3v-1.4H38.5z M38.5,65.4v1.4h-1.3v-1.4H38.5z M38.5,72.4v1.4h-1.3v-1.4H38.5z M38.5,73.8v1.4h-1.3v-1.4H38.5z
	 M38.5,75.2v1.4h-1.3v-1.4H38.5z M38.5,82.1v1.4h-1.3v-1.4H38.5z M38.5,83.5v1.4h-1.3v-1.4H38.5z M38.5,84.9v1.4h-1.3v-1.4H38.5z
	 M38.5,86.3v1.4h-1.3v-1.4H38.5z M39.8,61.3v1.4h-1.3v-1.4H39.8z M39.8,62.6V64h-1.3v-1.4H39.8z M39.8,64v1.4h-1.3V64H39.8z
	 M39.8,65.4v1.4h-1.3v-1.4H39.8z M39.8,66.8v1.4h-1.3v-1.4H39.8z M39.8,72.4v1.4h-1.3v-1.4H39.8z M39.8,73.8v1.4h-1.3v-1.4H39.8z
	 M39.8,75.2v1.4h-1.3v-1.4H39.8z M39.8,80.7v1.4h-1.3v-1.4H39.8z M39.8,82.1v1.4h-1.3v-1.4H39.8z M39.8,83.5v1.4h-1.3v-1.4H39.8z
	 M39.8,84.9v1.4h-1.3v-1.4H39.8z M39.8,86.3v1.4h-1.3v-1.4H39.8z M41,61.2v1.4h-1.3v-1.4H41z M41,62.6V64h-1.3v-1.4H41z M41,64v1.4
	h-1.3V64H41z M41,65.4v1.4h-1.3v-1.4H41z M41,66.8v1.4h-1.3v-1.4H41z M41,68.2v1.4h-1.3v-1.4H41z M41,69.6V71h-1.3v-1.4H41z M41,71
	v1.4h-1.3V71H41z M41,72.4v1.4h-1.3v-1.4H41z M41,73.7v1.4h-1.3v-1.4H41z M41,75.1v1.4h-1.3v-1.4H41z M41,79.3v1.4h-1.3v-1.4H41z
	 M41,80.7v1.4h-1.3v-1.4H41z M41,82.1v1.4h-1.3v-1.4H41z M41,83.5v1.4h-1.3v-1.4H41z M41,84.9v1.4h-1.3v-1.4H41z M41,86.3v1.4h-1.3
	v-1.4H41z M42.3,62.6V64H41v-1.4H42.3z M42.3,64v1.4H41V64H42.3z M42.3,65.4v1.4H41v-1.4H42.3z M42.3,66.8v1.4H41v-1.4H42.3z
	 M42.3,68.2v1.4H41v-1.4H42.3z M42.3,69.5v1.4H41v-1.4H42.3z M42.3,70.9v1.4H41v-1.4H42.3z M42.3,72.3v1.4H41v-1.4H42.3z M42.3,73.7
	v1.4H41v-1.4H42.3z M42.3,75.1v1.4H41v-1.4H42.3z M42.3,79.3v1.4H41v-1.4H42.3z M42.3,80.7v1.4H41v-1.4H42.3z M42.3,82.1v1.4H41
	v-1.4H42.3z M42.3,83.5v1.4H41v-1.4H42.3z M42.3,84.8v1.4H41v-1.4H42.3z M43.6,62.6V64h-1.3v-1.4H43.6z M43.6,64v1.4h-1.3V64H43.6z
	 M43.6,65.3v1.4h-1.3v-1.4H43.6z M43.6,66.7v1.4h-1.3v-1.4H43.6z M43.6,68.1v1.4h-1.3v-1.4H43.6z M43.6,69.5v1.4h-1.3v-1.4H43.6z
	 M43.6,70.9v1.4h-1.3v-1.4H43.6z M43.6,72.3v1.4h-1.3v-1.4H43.6z M43.6,73.7v1.4h-1.3v-1.4H43.6z M43.6,75.1v1.4h-1.3v-1.4H43.6z
	 M43.6,79.3v1.4h-1.3v-1.4H43.6z M43.6,80.6V82h-1.3v-1.4H43.6z M43.6,82v1.4h-1.3V82H43.6z M43.6,83.4v1.4h-1.3v-1.4H43.6z
	 M43.6,84.8v1.4h-1.3v-1.4H43.6z M44.9,63.9v1.4h-1.3v-1.4H44.9z M44.9,65.3v1.4h-1.3v-1.4H44.9z M44.9,66.7v1.4h-1.3v-1.4H44.9z
	 M44.9,68.1v1.4h-1.3v-1.4H44.9z M44.9,69.5v1.4h-1.3v-1.4H44.9z M44.9,70.9v1.4h-1.3v-1.4H44.9z M44.9,72.3v1.4h-1.3v-1.4H44.9z
	 M44.9,73.7v1.4h-1.3v-1.4H44.9z M44.9,75.1v1.4h-1.3v-1.4H44.9z M44.9,79.2v1.4h-1.3v-1.4H44.9z M44.9,80.6V82h-1.3v-1.4H44.9z
	 M44.9,82v1.4h-1.3V82H44.9z M44.9,83.4v1.4h-1.3v-1.4H44.9z M46.2,66.7v1.4h-1.3v-1.4H46.2z M46.2,68.1v1.4h-1.3v-1.4H46.2z
	 M46.2,69.5v1.4h-1.3v-1.4H46.2z M46.2,70.9v1.4h-1.3v-1.4H46.2z M46.2,72.3v1.4h-1.3v-1.4H46.2z M46.2,73.6V75h-1.3v-1.4H46.2z
	 M46.2,75v1.4h-1.3V75H46.2z M46.2,79.2v1.4h-1.3v-1.4H46.2z M46.2,80.6V82h-1.3v-1.4H46.2z"/>
<path class="st0" d="M51.4,61.5v1.4h-1.3v-1.4H51.4z M51.4,62.9v1.4h-1.3v-1.4H51.4z M51.4,64.3v1.4h-1.3v-1.4H51.4z M51.4,65.7v1.4
	h-1.3v-1.4H51.4z M51.4,67.1v1.4h-1.3v-1.4H51.4z M51.4,68.5v1.4h-1.3v-1.4H51.4z M51.4,69.9v1.4h-1.3v-1.4H51.4z M51.4,71.3v1.4
	h-1.3v-1.4H51.4z M51.4,72.6V74h-1.3v-1.4H51.4z M51.4,74v1.4h-1.3V74H51.4z M51.4,75.4v1.4h-1.3v-1.4H51.4z M51.4,76.8v1.4h-1.3
	v-1.4H51.4z M51.4,78.2v1.4h-1.3v-1.4H51.4z M51.4,79.6V81h-1.3v-1.4H51.4z M51.4,81v1.4h-1.3V81H51.4z M51.4,82.4v1.4h-1.3v-1.4
	H51.4z M51.4,83.8v1.4h-1.3v-1.4H51.4z M51.4,85.2v1.4h-1.3v-1.4H51.4z M51.4,86.5v1.4h-1.3v-1.4H51.4z M52.6,61.5v1.4h-1.3v-1.4
	H52.6z M52.6,62.9v1.4h-1.3v-1.4H52.6z M52.6,64.3v1.4h-1.3v-1.4H52.6z M52.6,65.7V67h-1.3v-1.4H52.6z M52.6,67v1.4h-1.3V67H52.6z
	 M52.6,68.4v1.4h-1.3v-1.4H52.6z M52.6,69.8v1.4h-1.3v-1.4H52.6z M52.6,71.2v1.4h-1.3v-1.4H52.6z M52.6,72.6V74h-1.3v-1.4H52.6z
	 M52.6,74v1.4h-1.3V74H52.6z M52.6,75.4v1.4h-1.3v-1.4H52.6z M52.6,76.8v1.4h-1.3v-1.4H52.6z M52.6,78.2v1.4h-1.3v-1.4H52.6z
	 M52.6,79.6v1.4h-1.3v-1.4H52.6z M52.6,80.9v1.4h-1.3v-1.4H52.6z M52.6,82.3v1.4h-1.3v-1.4H52.6z M52.6,83.7v1.4h-1.3v-1.4H52.6z
	 M52.6,85.1v1.4h-1.3v-1.4H52.6z M52.6,86.5v1.4h-1.3v-1.4H52.6z M53.9,61.4v1.4h-1.3v-1.4H53.9z M53.9,62.8v1.4h-1.3v-1.4H53.9z
	 M53.9,64.2v1.4h-1.3v-1.4H53.9z M53.9,65.6V67h-1.3v-1.4H53.9z M53.9,67v1.4h-1.3V67H53.9z M53.9,68.4v1.4h-1.3v-1.4H53.9z
	 M53.9,69.8v1.4h-1.3v-1.4H53.9z M53.9,71.2v1.4h-1.3v-1.4H53.9z M53.9,72.6V74h-1.3v-1.4H53.9z M53.9,74v1.4h-1.3V74H53.9z
	 M53.9,75.3v1.4h-1.3v-1.4H53.9z M53.9,76.7v1.4h-1.3v-1.4H53.9z M53.9,78.1v1.4h-1.3v-1.4H53.9z M53.9,79.5v1.4h-1.3v-1.4H53.9z
	 M53.9,80.9v1.4h-1.3v-1.4H53.9z M53.9,82.3v1.4h-1.3v-1.4H53.9z M53.9,83.7v1.4h-1.3v-1.4H53.9z M53.9,85.1v1.4h-1.3v-1.4H53.9z
	 M53.9,86.5v1.4h-1.3v-1.4H53.9z M55.2,61.4v1.4h-1.3v-1.4H55.2z M55.2,62.8v1.4h-1.3v-1.4H55.2z M55.2,64.2v1.4h-1.3v-1.4H55.2z
	 M55.2,65.6V67h-1.3v-1.4H55.2z M55.2,67v1.4h-1.3V67H55.2z M55.2,68.4v1.4h-1.3v-1.4H55.2z M55.2,69.7v1.4h-1.3v-1.4H55.2z
	 M55.2,71.1v1.4h-1.3v-1.4H55.2z M55.2,72.5v1.4h-1.3v-1.4H55.2z M55.2,73.9v1.4h-1.3v-1.4H55.2z M55.2,75.3v1.4h-1.3v-1.4H55.2z
	 M55.2,76.7v1.4h-1.3v-1.4H55.2z M55.2,78.1v1.4h-1.3v-1.4H55.2z M55.2,79.5v1.4h-1.3v-1.4H55.2z M55.2,80.9v1.4h-1.3v-1.4H55.2z
	 M55.2,82.3v1.4h-1.3v-1.4H55.2z M55.2,83.6V85h-1.3v-1.4H55.2z M55.2,85v1.4h-1.3V85H55.2z M55.2,86.4v1.4h-1.3v-1.4H55.2z
	 M56.5,61.4v1.4h-1.3v-1.4H56.5z M56.5,62.8v1.4h-1.3v-1.4H56.5z M56.5,64.1v1.4h-1.3v-1.4H56.5z M56.5,65.5v1.4h-1.3v-1.4H56.5z
	 M56.5,66.9v1.4h-1.3v-1.4H56.5z M56.5,68.3v1.4h-1.3v-1.4H56.5z M56.5,69.7v1.4h-1.3v-1.4H56.5z M56.5,71.1v1.4h-1.3v-1.4H56.5z
	 M56.5,72.5v1.4h-1.3v-1.4H56.5z M56.5,73.9v1.4h-1.3v-1.4H56.5z M56.5,75.3v1.4h-1.3v-1.4H56.5z M56.5,76.7V78h-1.3v-1.4H56.5z
	 M56.5,78v1.4h-1.3V78H56.5z M56.5,79.4v1.4h-1.3v-1.4H56.5z M56.5,80.8v1.4h-1.3v-1.4H56.5z M56.5,82.2v1.4h-1.3v-1.4H56.5z
	 M56.5,83.6V85h-1.3v-1.4H56.5z M56.5,85v1.4h-1.3V85H56.5z M56.5,86.4v1.4h-1.3v-1.4H56.5z M57.8,62.7v1.4h-1.3v-1.4H57.8z
	 M57.8,64.1v1.4h-1.3v-1.4H57.8z M57.8,65.5v1.4h-1.3v-1.4H57.8z M57.8,66.9v1.4h-1.3v-1.4H57.8z M59,61.3v1.4h-1.3v-1.4H59z
	 M59,62.7v1.4h-1.3v-1.4H59z M59,64.1v1.4h-1.3v-1.4H59z M59,65.5v1.4h-1.3v-1.4H59z M60.3,61.3v1.4H59v-1.4H60.3z M60.3,62.7v1.4
	H59v-1.4H60.3z M60.3,64.1v1.4H59v-1.4H60.3z M60.3,65.5v1.4H59v-1.4H60.3z M61.6,61.3v1.4h-1.3v-1.4H61.6z M61.6,62.7v1.4h-1.3
	v-1.4H61.6z M61.6,64.1v1.4h-1.3v-1.4H61.6z M61.6,65.5v1.4h-1.3v-1.4H61.6z M62.9,61.3v1.4h-1.3v-1.4H62.9z M62.9,62.7v1.4h-1.3
	v-1.4H62.9z M62.9,64.1v1.4h-1.3v-1.4H62.9z M62.9,65.5v1.4h-1.3v-1.4H62.9z M62.9,66.8v1.4h-1.3v-1.4H62.9z M64.2,61.3v1.4h-1.3
	v-1.4H64.2z M64.2,62.7v1.4h-1.3v-1.4H64.2z M64.2,64.1v1.4h-1.3v-1.4H64.2z M64.2,65.4v1.4h-1.3v-1.4H64.2z M64.2,66.8v1.4h-1.3
	v-1.4H64.2z M64.2,68.2v1.4h-1.3v-1.4H64.2z M65.4,61.3v1.4h-1.3v-1.4H65.4z M65.4,62.7V64h-1.3v-1.4H65.4z M65.4,64v1.4h-1.3V64
	H65.4z M65.4,65.4v1.4h-1.3v-1.4H65.4z M65.4,66.8v1.4h-1.3v-1.4H65.4z M66.7,62.6V64h-1.3v-1.4H66.7z M66.7,64v1.4h-1.3V64H66.7z
	 M66.7,65.4v1.4h-1.3v-1.4H66.7z M68,64v1.4h-1.3V64H68z"/>
<path class="st0" d="M71.5,61.5v1.4h-1.3v-1.4H71.5z M71.5,62.9v1.4h-1.3v-1.4H71.5z M71.5,64.3v1.4h-1.3v-1.4H71.5z M71.5,65.7v1.4
	h-1.3v-1.4H71.5z M71.5,67.1v1.4h-1.3v-1.4H71.5z M71.5,68.5v1.4h-1.3v-1.4H71.5z M71.5,69.9v1.4h-1.3v-1.4H71.5z M71.5,71.3v1.4
	h-1.3v-1.4H71.5z M71.5,72.6V74h-1.3v-1.4H71.5z M71.5,74v1.4h-1.3V74H71.5z M71.5,75.4v1.4h-1.3v-1.4H71.5z M71.5,76.8v1.4h-1.3
	v-1.4H71.5z M71.5,78.2v1.4h-1.3v-1.4H71.5z M72.8,61.5v1.4h-1.3v-1.4H72.8z M72.8,62.9v1.4h-1.3v-1.4H72.8z M72.8,64.3v1.4h-1.3
	v-1.4H72.8z M72.8,65.7v1.4h-1.3v-1.4H72.8z M72.8,67.1v1.4h-1.3v-1.4H72.8z M72.8,68.4v1.4h-1.3v-1.4H72.8z M72.8,69.8v1.4h-1.3
	v-1.4H72.8z M72.8,71.2v1.4h-1.3v-1.4H72.8z M72.8,72.6V74h-1.3v-1.4H72.8z M72.8,74v1.4h-1.3V74H72.8z M72.8,75.4v1.4h-1.3v-1.4
	H72.8z M72.8,76.8v1.4h-1.3v-1.4H72.8z M72.8,78.2v1.4h-1.3v-1.4H72.8z M72.8,79.6V81h-1.3v-1.4H72.8z M74.1,61.5v1.4h-1.3v-1.4
	H74.1z M74.1,62.9v1.4h-1.3v-1.4H74.1z M74.1,64.2v1.4h-1.3v-1.4H74.1z M74.1,65.6V67h-1.3v-1.4H74.1z M74.1,67v1.4h-1.3V67H74.1z
	 M74.1,68.4v1.4h-1.3v-1.4H74.1z M74.1,69.8v1.4h-1.3v-1.4H74.1z M74.1,71.2v1.4h-1.3v-1.4H74.1z M74.1,72.6V74h-1.3v-1.4H74.1z
	 M74.1,74v1.4h-1.3V74H74.1z M74.1,75.4v1.4h-1.3v-1.4H74.1z M74.1,76.8v1.4h-1.3v-1.4H74.1z M74.1,78.1v1.4h-1.3v-1.4H74.1z
	 M74.1,79.5v1.4h-1.3v-1.4H74.1z M74.1,80.9v1.4h-1.3v-1.4H74.1z M75.3,61.4v1.4h-1.3v-1.4H75.3z M75.3,62.8v1.4h-1.3v-1.4H75.3z
	 M75.3,64.2v1.4h-1.3v-1.4H75.3z M75.3,65.6V67h-1.3v-1.4H75.3z M75.3,67v1.4h-1.3V67H75.3z M75.3,68.4v1.4h-1.3v-1.4H75.3z
	 M75.3,69.8v1.4h-1.3v-1.4H75.3z M75.3,71.2v1.4h-1.3v-1.4H75.3z M75.3,72.6v1.4h-1.3v-1.4H75.3z M75.3,73.9v1.4h-1.3v-1.4H75.3z
	 M75.3,75.3v1.4h-1.3v-1.4H75.3z M75.3,76.7v1.4h-1.3v-1.4H75.3z M75.3,78.1v1.4h-1.3v-1.4H75.3z M75.3,79.5v1.4h-1.3v-1.4H75.3z
	 M75.3,80.9v1.4h-1.3v-1.4H75.3z M75.3,82.3v1.4h-1.3v-1.4H75.3z M76.6,61.4v1.4h-1.3v-1.4H76.6z M76.6,62.8v1.4h-1.3v-1.4H76.6z
	 M76.6,64.2v1.4h-1.3v-1.4H76.6z M76.6,65.6V67h-1.3v-1.4H76.6z M76.6,67v1.4h-1.3V67H76.6z M76.6,68.4v1.4h-1.3v-1.4H76.6z
	 M76.6,69.7v1.4h-1.3v-1.4H76.6z M76.6,71.1v1.4h-1.3v-1.4H76.6z M76.6,72.5v1.4h-1.3v-1.4H76.6z M76.6,73.9v1.4h-1.3v-1.4H76.6z
	 M76.6,75.3v1.4h-1.3v-1.4H76.6z M76.6,76.7v1.4h-1.3v-1.4H76.6z M76.6,78.1v1.4h-1.3v-1.4H76.6z M76.6,79.5v1.4h-1.3v-1.4H76.6z
	 M76.6,80.9v1.4h-1.3v-1.4H76.6z M76.6,82.3v1.4h-1.3v-1.4H76.6z M76.6,83.6V85h-1.3v-1.4H76.6z M77.9,78.1v1.4h-1.3v-1.4H77.9z
	 M77.9,79.5v1.4h-1.3v-1.4H77.9z M77.9,80.9v1.4h-1.3v-1.4H77.9z M77.9,82.2v1.4h-1.3v-1.4H77.9z M77.9,83.6V85h-1.3v-1.4H77.9z
	 M77.9,85v1.4h-1.3V85H77.9z M79.2,79.5v1.4h-1.3v-1.4H79.2z M79.2,80.8v1.4h-1.3v-1.4H79.2z M79.2,82.2v1.4h-1.3v-1.4H79.2z
	 M79.2,83.6V85h-1.3v-1.4H79.2z M79.2,85v1.4h-1.3V85H79.2z M79.2,86.4v1.4h-1.3v-1.4H79.2z M80.5,80.8v1.4h-1.3v-1.4H80.5z
	 M80.5,82.2v1.4h-1.3v-1.4H80.5z M80.5,83.6V85h-1.3v-1.4H80.5z M80.5,85v1.4h-1.3V85H80.5z M80.5,86.4v1.4h-1.3v-1.4H80.5z
	 M81.7,80.8v1.4h-1.3v-1.4H81.7z M81.7,82.2v1.4h-1.3v-1.4H81.7z M81.7,83.6V85h-1.3v-1.4H81.7z M81.7,85v1.4h-1.3V85H81.7z
	 M81.7,86.4v1.4h-1.3v-1.4H81.7z M83,79.4v1.4h-1.3v-1.4H83z M83,80.8v1.4h-1.3v-1.4H83z M83,82.2v1.4h-1.3v-1.4H83z M83,83.6V85
	h-1.3v-1.4H83z M83,85v1.4h-1.3V85H83z M83,86.4v1.4h-1.3v-1.4H83z M84.3,78v1.4H83V78H84.3z M84.3,79.4v1.4H83v-1.4H84.3z
	 M84.3,80.8v1.4H83v-1.4H84.3z M84.3,82.2v1.4H83v-1.4H84.3z M84.3,83.6V85H83v-1.4H84.3z M84.3,85v1.4H83V85H84.3z M85.6,61.3v1.4
	h-1.3v-1.4H85.6z M85.6,62.7v1.4h-1.3v-1.4H85.6z M85.6,64.1v1.4h-1.3v-1.4H85.6z M85.6,65.5v1.4h-1.3v-1.4H85.6z M85.6,66.9v1.4
	h-1.3v-1.4H85.6z M85.6,68.3v1.4h-1.3v-1.4H85.6z M85.6,69.6V71h-1.3v-1.4H85.6z M85.6,71v1.4h-1.3V71H85.6z M85.6,72.4v1.4h-1.3
	v-1.4H85.6z M85.6,73.8v1.4h-1.3v-1.4H85.6z M85.6,75.2v1.4h-1.3v-1.4H85.6z M85.6,76.6V78h-1.3v-1.4H85.6z M85.6,78v1.4h-1.3V78
	H85.6z M85.6,79.4v1.4h-1.3v-1.4H85.6z M85.6,80.8v1.4h-1.3v-1.4H85.6z M85.6,82.2v1.4h-1.3v-1.4H85.6z M85.6,83.5v1.4h-1.3v-1.4
	H85.6z M86.9,61.3v1.4h-1.3v-1.4H86.9z M86.9,62.7V64h-1.3v-1.4H86.9z M86.9,64v1.4h-1.3V64H86.9z M86.9,65.4v1.4h-1.3v-1.4H86.9z
	 M86.9,66.8v1.4h-1.3v-1.4H86.9z M86.9,68.2v1.4h-1.3v-1.4H86.9z M86.9,69.6V71h-1.3v-1.4H86.9z M86.9,71v1.4h-1.3V71H86.9z
	 M86.9,72.4v1.4h-1.3v-1.4H86.9z M86.9,73.8v1.4h-1.3v-1.4H86.9z M86.9,75.2v1.4h-1.3v-1.4H86.9z M86.9,76.6v1.4h-1.3v-1.4H86.9z
	 M86.9,77.9v1.4h-1.3v-1.4H86.9z M86.9,79.3v1.4h-1.3v-1.4H86.9z M86.9,80.7v1.4h-1.3v-1.4H86.9z M86.9,82.1v1.4h-1.3v-1.4H86.9z
	 M88.1,61.2v1.4h-1.3v-1.4H88.1z M88.1,62.6V64h-1.3v-1.4H88.1z M88.1,64v1.4h-1.3V64H88.1z M88.1,65.4v1.4h-1.3v-1.4H88.1z
	 M88.1,66.8v1.4h-1.3v-1.4H88.1z M88.1,68.2v1.4h-1.3v-1.4H88.1z M88.1,69.6V71h-1.3v-1.4H88.1z M88.1,71v1.4h-1.3V71H88.1z
	 M88.1,72.4v1.4h-1.3v-1.4H88.1z M88.1,73.7v1.4h-1.3v-1.4H88.1z M88.1,75.1v1.4h-1.3v-1.4H88.1z M88.1,76.5v1.4h-1.3v-1.4H88.1z
	 M88.1,77.9v1.4h-1.3v-1.4H88.1z M88.1,79.3v1.4h-1.3v-1.4H88.1z M88.1,80.7v1.4h-1.3v-1.4H88.1z M89.4,61.2v1.4h-1.3v-1.4H89.4z
	 M89.4,62.6V64h-1.3v-1.4H89.4z M89.4,64v1.4h-1.3V64H89.4z M89.4,65.4v1.4h-1.3v-1.4H89.4z M89.4,66.8v1.4h-1.3v-1.4H89.4z
	 M89.4,68.2v1.4h-1.3v-1.4H89.4z M89.4,69.5v1.4h-1.3v-1.4H89.4z M89.4,70.9v1.4h-1.3v-1.4H89.4z M89.4,72.3v1.4h-1.3v-1.4H89.4z
	 M89.4,73.7v1.4h-1.3v-1.4H89.4z M89.4,75.1v1.4h-1.3v-1.4H89.4z M89.4,76.5v1.4h-1.3v-1.4H89.4z M89.4,77.9v1.4h-1.3v-1.4H89.4z
	 M89.4,79.3v1.4h-1.3v-1.4H89.4z M90.7,61.2v1.4h-1.3v-1.4H90.7z M90.7,62.6V64h-1.3v-1.4H90.7z M90.7,64v1.4h-1.3V64H90.7z
	 M90.7,65.3v1.4h-1.3v-1.4H90.7z M90.7,66.7v1.4h-1.3v-1.4H90.7z M90.7,68.1v1.4h-1.3v-1.4H90.7z M90.7,69.5v1.4h-1.3v-1.4H90.7z
	 M90.7,70.9v1.4h-1.3v-1.4H90.7z M90.7,72.3v1.4h-1.3v-1.4H90.7z M90.7,73.7v1.4h-1.3v-1.4H90.7z M90.7,75.1v1.4h-1.3v-1.4H90.7z
	 M90.7,76.5v1.4h-1.3v-1.4H90.7z M90.7,77.9v1.4h-1.3v-1.4H90.7z"/>
<path class="st0" d="M95.9,67.1v1.4h-1.3v-1.4H95.9z M95.9,68.5v1.4h-1.3v-1.4H95.9z M95.9,69.9v1.4h-1.3v-1.4H95.9z M95.9,71.3v1.4
	h-1.3v-1.4H95.9z M95.9,72.7V74h-1.3v-1.4H95.9z M95.9,74v1.4h-1.3V74H95.9z M95.9,75.4v1.4h-1.3v-1.4H95.9z M95.9,76.8v1.4h-1.3
	v-1.4H95.9z M95.9,78.2v1.4h-1.3v-1.4H95.9z M95.9,79.6V81h-1.3v-1.4H95.9z M95.9,81v1.4h-1.3V81H95.9z M97.2,64.3v1.4h-1.3v-1.4
	H97.2z M97.2,65.7v1.4h-1.3v-1.4H97.2z M97.2,67.1v1.4h-1.3v-1.4H97.2z M97.2,68.5v1.4h-1.3v-1.4H97.2z M97.2,69.8v1.4h-1.3v-1.4
	H97.2z M97.2,71.2v1.4h-1.3v-1.4H97.2z M97.2,72.6V74h-1.3v-1.4H97.2z M97.2,74v1.4h-1.3V74H97.2z M97.2,75.4v1.4h-1.3v-1.4H97.2z
	 M97.2,76.8v1.4h-1.3v-1.4H97.2z M97.2,78.2v1.4h-1.3v-1.4H97.2z M97.2,79.6V81h-1.3v-1.4H97.2z M97.2,81v1.4h-1.3V81H97.2z
	 M97.2,82.4v1.4h-1.3v-1.4H97.2z M97.2,83.7v1.4h-1.3v-1.4H97.2z M98.5,62.9v1.4h-1.3v-1.4H98.5z M98.5,64.3v1.4h-1.3v-1.4H98.5z
	 M98.5,65.6V67h-1.3v-1.4H98.5z M98.5,67v1.4h-1.3V67H98.5z M98.5,68.4v1.4h-1.3v-1.4H98.5z M98.5,69.8v1.4h-1.3v-1.4H98.5z
	 M98.5,71.2v1.4h-1.3v-1.4H98.5z M98.5,72.6V74h-1.3v-1.4H98.5z M98.5,74v1.4h-1.3V74H98.5z M98.5,75.4v1.4h-1.3v-1.4H98.5z
	 M98.5,76.8v1.4h-1.3v-1.4H98.5z M98.5,78.2v1.4h-1.3v-1.4H98.5z M98.5,79.5v1.4h-1.3v-1.4H98.5z M98.5,80.9v1.4h-1.3v-1.4H98.5z
	 M98.5,82.3v1.4h-1.3v-1.4H98.5z M98.5,83.7v1.4h-1.3v-1.4H98.5z M98.5,85.1v1.4h-1.3v-1.4H98.5z M99.7,62.8v1.4h-1.3v-1.4H99.7z
	 M99.7,64.2v1.4h-1.3v-1.4H99.7z M99.7,65.6V67h-1.3v-1.4H99.7z M99.7,67v1.4h-1.3V67H99.7z M99.7,68.4v1.4h-1.3v-1.4H99.7z
	 M99.7,69.8v1.4h-1.3v-1.4H99.7z M99.7,71.2v1.4h-1.3v-1.4H99.7z M99.7,72.6v1.4h-1.3v-1.4H99.7z M99.7,73.9v1.4h-1.3v-1.4H99.7z
	 M99.7,75.3v1.4h-1.3v-1.4H99.7z M99.7,76.7v1.4h-1.3v-1.4H99.7z M99.7,78.1v1.4h-1.3v-1.4H99.7z M99.7,79.5v1.4h-1.3v-1.4H99.7z
	 M99.7,80.9v1.4h-1.3v-1.4H99.7z M99.7,82.3v1.4h-1.3v-1.4H99.7z M99.7,83.7v1.4h-1.3v-1.4H99.7z M99.7,85.1v1.4h-1.3v-1.4H99.7z
	 M101,61.4v1.4h-1.3v-1.4H101z M101,62.8v1.4h-1.3v-1.4H101z M101,64.2v1.4h-1.3v-1.4H101z M101,65.6V67h-1.3v-1.4H101z M101,67v1.4
	h-1.3V67H101z M101,68.3v1.4h-1.3v-1.4H101z M101,69.7v1.4h-1.3v-1.4H101z M101,71.1v1.4h-1.3v-1.4H101z M101,72.5v1.4h-1.3v-1.4
	H101z M101,73.9v1.4h-1.3v-1.4H101z M101,75.3v1.4h-1.3v-1.4H101z M101,76.7v1.4h-1.3v-1.4H101z M101,78.1v1.4h-1.3v-1.4H101z
	 M101,79.5v1.4h-1.3v-1.4H101z M101,80.9v1.4h-1.3v-1.4H101z M101,82.2v1.4h-1.3v-1.4H101z M101,83.6V85h-1.3v-1.4H101z M101,85v1.4
	h-1.3V85H101z M101,86.4v1.4h-1.3v-1.4H101z M102.3,61.4v1.4H101v-1.4H102.3z M102.3,62.7v1.4H101v-1.4H102.3z M102.3,64.1v1.4H101
	v-1.4H102.3z M102.3,65.5v1.4H101v-1.4H102.3z M102.3,66.9v1.4H101v-1.4H102.3z M102.3,72.5v1.4H101v-1.4H102.3z M102.3,73.9v1.4
	H101v-1.4H102.3z M102.3,75.3v1.4H101v-1.4H102.3z M102.3,80.8v1.4H101v-1.4H102.3z M102.3,82.2v1.4H101v-1.4H102.3z M102.3,83.6V85
	H101v-1.4H102.3z M102.3,85v1.4H101V85H102.3z M102.3,86.4v1.4H101v-1.4H102.3z M103.6,61.3v1.4h-1.3v-1.4H103.6z M103.6,62.7v1.4
	h-1.3v-1.4H103.6z M103.6,64.1v1.4h-1.3v-1.4H103.6z M103.6,65.5v1.4h-1.3v-1.4H103.6z M103.6,72.5v1.4h-1.3v-1.4H103.6z
	 M103.6,73.9v1.4h-1.3v-1.4H103.6z M103.6,75.2v1.4h-1.3v-1.4H103.6z M103.6,82.2v1.4h-1.3v-1.4H103.6z M103.6,83.6V85h-1.3v-1.4
	H103.6z M103.6,85v1.4h-1.3V85H103.6z M103.6,86.4v1.4h-1.3v-1.4H103.6z M104.9,61.3v1.4h-1.3v-1.4H104.9z M104.9,62.7v1.4h-1.3
	v-1.4H104.9z M104.9,64.1v1.4h-1.3v-1.4H104.9z M104.9,65.5v1.4h-1.3v-1.4H104.9z M104.9,72.4v1.4h-1.3v-1.4H104.9z M104.9,73.8v1.4
	h-1.3v-1.4H104.9z M104.9,75.2v1.4h-1.3v-1.4H104.9z M104.9,82.2v1.4h-1.3v-1.4H104.9z M104.9,83.6V85h-1.3v-1.4H104.9z M104.9,85
	v1.4h-1.3V85H104.9z M104.9,86.4v1.4h-1.3v-1.4H104.9z M106.1,61.3v1.4h-1.3v-1.4H106.1z M106.1,62.7v1.4h-1.3v-1.4H106.1z
	 M106.1,64.1v1.4h-1.3v-1.4H106.1z M106.1,65.5v1.4h-1.3v-1.4H106.1z M106.1,72.4v1.4h-1.3v-1.4H106.1z M106.1,73.8v1.4h-1.3v-1.4
	H106.1z M106.1,75.2v1.4h-1.3v-1.4H106.1z M106.1,82.2v1.4h-1.3v-1.4H106.1z M106.1,83.6v1.4h-1.3v-1.4H106.1z M106.1,84.9v1.4h-1.3
	v-1.4H106.1z M106.1,86.3v1.4h-1.3v-1.4H106.1z M107.4,61.3v1.4h-1.3v-1.4H107.4z M107.4,62.7v1.4h-1.3v-1.4H107.4z M107.4,64.1v1.4
	h-1.3v-1.4H107.4z M107.4,65.4v1.4h-1.3v-1.4H107.4z M107.4,72.4v1.4h-1.3v-1.4H107.4z M107.4,73.8v1.4h-1.3v-1.4H107.4z
	 M107.4,75.2v1.4h-1.3v-1.4H107.4z M107.4,82.1v1.4h-1.3v-1.4H107.4z M107.4,83.5v1.4h-1.3v-1.4H107.4z M107.4,84.9v1.4h-1.3v-1.4
	H107.4z M107.4,86.3v1.4h-1.3v-1.4H107.4z M108.7,61.3v1.4h-1.3v-1.4H108.7z M108.7,62.6V64h-1.3v-1.4H108.7z M108.7,64v1.4h-1.3V64
	H108.7z M108.7,65.4v1.4h-1.3v-1.4H108.7z M108.7,66.8v1.4h-1.3v-1.4H108.7z M108.7,72.4v1.4h-1.3v-1.4H108.7z M108.7,73.8v1.4h-1.3
	v-1.4H108.7z M108.7,75.2v1.4h-1.3v-1.4H108.7z M108.7,80.7v1.4h-1.3v-1.4H108.7z M108.7,82.1v1.4h-1.3v-1.4H108.7z M108.7,83.5v1.4
	h-1.3v-1.4H108.7z M108.7,84.9v1.4h-1.3v-1.4H108.7z M108.7,86.3v1.4h-1.3v-1.4H108.7z M110,61.2v1.4h-1.3v-1.4H110z M110,62.6V64
	h-1.3v-1.4H110z M110,64v1.4h-1.3V64H110z M110,65.4v1.4h-1.3v-1.4H110z M110,66.8v1.4h-1.3v-1.4H110z M110,68.2v1.4h-1.3v-1.4H110z
	 M110,69.6V71h-1.3v-1.4H110z M110,71v1.4h-1.3V71H110z M110,72.4v1.4h-1.3v-1.4H110z M110,73.7v1.4h-1.3v-1.4H110z M110,75.1v1.4
	h-1.3v-1.4H110z M110,79.3v1.4h-1.3v-1.4H110z M110,80.7v1.4h-1.3v-1.4H110z M110,82.1v1.4h-1.3v-1.4H110z M110,83.5v1.4h-1.3v-1.4
	H110z M110,84.9v1.4h-1.3v-1.4H110z M110,86.3v1.4h-1.3v-1.4H110z M111.3,62.6V64H110v-1.4H111.3z M111.3,64v1.4H110V64H111.3z
	 M111.3,65.4v1.4H110v-1.4H111.3z M111.3,66.8v1.4H110v-1.4H111.3z M111.3,68.2v1.4H110v-1.4H111.3z M111.3,69.5v1.4H110v-1.4H111.3
	z M111.3,70.9v1.4H110v-1.4H111.3z M111.3,72.3v1.4H110v-1.4H111.3z M111.3,73.7v1.4H110v-1.4H111.3z M111.3,75.1v1.4H110v-1.4
	H111.3z M111.3,79.3v1.4H110v-1.4H111.3z M111.3,80.7v1.4H110v-1.4H111.3z M111.3,82.1v1.4H110v-1.4H111.3z M111.3,83.5v1.4H110
	v-1.4H111.3z M111.3,84.8v1.4H110v-1.4H111.3z M112.6,62.6V64h-1.3v-1.4H112.6z M112.6,64v1.4h-1.3V64H112.6z M112.6,65.3v1.4h-1.3
	v-1.4H112.6z M112.6,66.7v1.4h-1.3v-1.4H112.6z M112.6,68.1v1.4h-1.3v-1.4H112.6z M112.6,69.5v1.4h-1.3v-1.4H112.6z M112.6,70.9v1.4
	h-1.3v-1.4H112.6z M112.6,72.3v1.4h-1.3v-1.4H112.6z M112.6,73.7v1.4h-1.3v-1.4H112.6z M112.6,75.1v1.4h-1.3v-1.4H112.6z
	 M112.6,79.3v1.4h-1.3v-1.4H112.6z M112.6,80.6V82h-1.3v-1.4H112.6z M112.6,82v1.4h-1.3V82H112.6z M112.6,83.4v1.4h-1.3v-1.4H112.6z
	 M112.6,84.8v1.4h-1.3v-1.4H112.6z M113.8,63.9v1.4h-1.3v-1.4H113.8z M113.8,65.3v1.4h-1.3v-1.4H113.8z M113.8,66.7v1.4h-1.3v-1.4
	H113.8z M113.8,68.1v1.4h-1.3v-1.4H113.8z M113.8,69.5v1.4h-1.3v-1.4H113.8z M113.8,70.9v1.4h-1.3v-1.4H113.8z M113.8,72.3v1.4h-1.3
	v-1.4H113.8z M113.8,73.7v1.4h-1.3v-1.4H113.8z M113.8,75.1v1.4h-1.3v-1.4H113.8z M113.8,79.2v1.4h-1.3v-1.4H113.8z M113.8,80.6V82
	h-1.3v-1.4H113.8z M113.8,82v1.4h-1.3V82H113.8z M113.8,83.4v1.4h-1.3v-1.4H113.8z M115.1,66.7v1.4h-1.3v-1.4H115.1z M115.1,68.1
	v1.4h-1.3v-1.4H115.1z M115.1,69.5v1.4h-1.3v-1.4H115.1z M115.1,70.9v1.4h-1.3v-1.4H115.1z M115.1,72.3v1.4h-1.3v-1.4H115.1z
	 M115.1,73.6V75h-1.3v-1.4H115.1z M115.1,75v1.4h-1.3V75H115.1z M115.1,79.2v1.4h-1.3v-1.4H115.1z M115.1,80.6V82h-1.3v-1.4H115.1z"
	/>
<path class="st0" d="M120.3,61.5v1.4H119v-1.4H120.3z M120.3,62.9v1.4H119v-1.4H120.3z M120.3,64.3v1.4H119v-1.4H120.3z M120.3,65.7
	v1.4H119v-1.4H120.3z M120.3,67.1v1.4H119v-1.4H120.3z M120.3,68.5v1.4H119v-1.4H120.3z M120.3,69.9v1.4H119v-1.4H120.3z
	 M120.3,71.3v1.4H119v-1.4H120.3z M120.3,72.6V74H119v-1.4H120.3z M120.3,74v1.4H119V74H120.3z M120.3,75.4v1.4H119v-1.4H120.3z
	 M120.3,76.8v1.4H119v-1.4H120.3z M120.3,78.2v1.4H119v-1.4H120.3z M120.3,79.6V81H119v-1.4H120.3z M120.3,81v1.4H119V81H120.3z
	 M120.3,82.4v1.4H119v-1.4H120.3z M120.3,83.8v1.4H119v-1.4H120.3z M120.3,85.2v1.4H119v-1.4H120.3z M120.3,86.5v1.4H119v-1.4H120.3
	z M121.6,61.5v1.4h-1.3v-1.4H121.6z M121.6,62.9v1.4h-1.3v-1.4H121.6z M121.6,64.3v1.4h-1.3v-1.4H121.6z M121.6,65.7V67h-1.3v-1.4
	H121.6z M121.6,67v1.4h-1.3V67H121.6z M121.6,68.4v1.4h-1.3v-1.4H121.6z M121.6,69.8v1.4h-1.3v-1.4H121.6z M121.6,71.2v1.4h-1.3
	v-1.4H121.6z M121.6,72.6V74h-1.3v-1.4H121.6z M121.6,74v1.4h-1.3V74H121.6z M121.6,75.4v1.4h-1.3v-1.4H121.6z M121.6,76.8v1.4h-1.3
	v-1.4H121.6z M121.6,78.2v1.4h-1.3v-1.4H121.6z M121.6,79.6v1.4h-1.3v-1.4H121.6z M121.6,80.9v1.4h-1.3v-1.4H121.6z M121.6,82.3v1.4
	h-1.3v-1.4H121.6z M121.6,83.7v1.4h-1.3v-1.4H121.6z M121.6,85.1v1.4h-1.3v-1.4H121.6z M121.6,86.5v1.4h-1.3v-1.4H121.6z
	 M122.9,61.4v1.4h-1.3v-1.4H122.9z M122.9,62.8v1.4h-1.3v-1.4H122.9z M122.9,64.2v1.4h-1.3v-1.4H122.9z M122.9,65.6V67h-1.3v-1.4
	H122.9z M122.9,67v1.4h-1.3V67H122.9z M122.9,68.4v1.4h-1.3v-1.4H122.9z M122.9,69.8v1.4h-1.3v-1.4H122.9z M122.9,71.2v1.4h-1.3
	v-1.4H122.9z M122.9,72.6V74h-1.3v-1.4H122.9z M122.9,74v1.4h-1.3V74H122.9z M122.9,75.3v1.4h-1.3v-1.4H122.9z M122.9,76.7v1.4h-1.3
	v-1.4H122.9z M122.9,78.1v1.4h-1.3v-1.4H122.9z M122.9,79.5v1.4h-1.3v-1.4H122.9z M122.9,80.9v1.4h-1.3v-1.4H122.9z M122.9,82.3v1.4
	h-1.3v-1.4H122.9z M122.9,83.7v1.4h-1.3v-1.4H122.9z M122.9,85.1v1.4h-1.3v-1.4H122.9z M122.9,86.5v1.4h-1.3v-1.4H122.9z
	 M124.2,61.4v1.4h-1.3v-1.4H124.2z M124.2,62.8v1.4h-1.3v-1.4H124.2z M124.2,64.2v1.4h-1.3v-1.4H124.2z M124.2,65.6V67h-1.3v-1.4
	H124.2z M124.2,67v1.4h-1.3V67H124.2z M124.2,68.4v1.4h-1.3v-1.4H124.2z M124.2,69.7v1.4h-1.3v-1.4H124.2z M124.2,71.1v1.4h-1.3
	v-1.4H124.2z M124.2,72.5v1.4h-1.3v-1.4H124.2z M124.2,73.9v1.4h-1.3v-1.4H124.2z M124.2,75.3v1.4h-1.3v-1.4H124.2z M124.2,76.7v1.4
	h-1.3v-1.4H124.2z M124.2,78.1v1.4h-1.3v-1.4H124.2z M124.2,79.5v1.4h-1.3v-1.4H124.2z M124.2,80.9v1.4h-1.3v-1.4H124.2z
	 M124.2,82.3v1.4h-1.3v-1.4H124.2z M124.2,83.6V85h-1.3v-1.4H124.2z M124.2,85v1.4h-1.3V85H124.2z M124.2,86.4v1.4h-1.3v-1.4H124.2z
	 M125.4,61.4v1.4h-1.3v-1.4H125.4z M125.4,62.8v1.4h-1.3v-1.4H125.4z M125.4,64.1v1.4h-1.3v-1.4H125.4z M125.4,65.5v1.4h-1.3v-1.4
	H125.4z M125.4,66.9v1.4h-1.3v-1.4H125.4z M125.4,68.3v1.4h-1.3v-1.4H125.4z M125.4,69.7v1.4h-1.3v-1.4H125.4z M125.4,71.1v1.4h-1.3
	v-1.4H125.4z M125.4,72.5v1.4h-1.3v-1.4H125.4z M125.4,73.9v1.4h-1.3v-1.4H125.4z M125.4,75.3v1.4h-1.3v-1.4H125.4z M125.4,76.7V78
	h-1.3v-1.4H125.4z M125.4,78v1.4h-1.3V78H125.4z M125.4,79.4v1.4h-1.3v-1.4H125.4z M125.4,80.8v1.4h-1.3v-1.4H125.4z M125.4,82.2
	v1.4h-1.3v-1.4H125.4z M125.4,83.6V85h-1.3v-1.4H125.4z M125.4,85v1.4h-1.3V85H125.4z M125.4,86.4v1.4h-1.3v-1.4H125.4z M126.7,62.7
	v1.4h-1.3v-1.4H126.7z M126.7,64.1v1.4h-1.3v-1.4H126.7z M126.7,65.5v1.4h-1.3v-1.4H126.7z M126.7,66.9v1.4h-1.3v-1.4H126.7z
	 M128,61.3v1.4h-1.3v-1.4H128z M128,62.7v1.4h-1.3v-1.4H128z M128,64.1v1.4h-1.3v-1.4H128z M128,65.5v1.4h-1.3v-1.4H128z
	 M129.3,61.3v1.4H128v-1.4H129.3z M129.3,62.7v1.4H128v-1.4H129.3z M129.3,64.1v1.4H128v-1.4H129.3z M129.3,65.5v1.4H128v-1.4H129.3
	z M130.6,61.3v1.4h-1.3v-1.4H130.6z M130.6,62.7v1.4h-1.3v-1.4H130.6z M130.6,64.1v1.4h-1.3v-1.4H130.6z M130.6,65.5v1.4h-1.3v-1.4
	H130.6z M131.8,61.3v1.4h-1.3v-1.4H131.8z M131.8,62.7v1.4h-1.3v-1.4H131.8z M131.8,64.1v1.4h-1.3v-1.4H131.8z M131.8,65.5v1.4h-1.3
	v-1.4H131.8z M131.8,66.8v1.4h-1.3v-1.4H131.8z M133.1,61.3v1.4h-1.3v-1.4H133.1z M133.1,62.7v1.4h-1.3v-1.4H133.1z M133.1,64.1v1.4
	h-1.3v-1.4H133.1z M133.1,65.4v1.4h-1.3v-1.4H133.1z M133.1,66.8v1.4h-1.3v-1.4H133.1z M133.1,68.2v1.4h-1.3v-1.4H133.1z
	 M134.4,61.3v1.4h-1.3v-1.4H134.4z M134.4,62.7V64h-1.3v-1.4H134.4z M134.4,64v1.4h-1.3V64H134.4z M134.4,65.4v1.4h-1.3v-1.4H134.4z
	 M134.4,66.8v1.4h-1.3v-1.4H134.4z M135.7,62.6V64h-1.3v-1.4H135.7z M135.7,64v1.4h-1.3V64H135.7z M135.7,65.4v1.4h-1.3v-1.4H135.7z
	 M137,64v1.4h-1.3V64H137z"/>
<g class="st1">
	<path class="st2" d="M110,84.7c-7.7,0-11.8-21.7-11.8-42.1S102.4,0.5,110,0.5s11.8,21.7,11.8,42.1S117.7,84.7,110,84.7z M110,2.8
		c-4.5,0-9.4,16.3-9.4,39.7s5,39.7,9.4,39.7s9.4-16.3,9.4-39.7S114.5,2.8,110,2.8z"/>
	<path class="st2" d="M110,54.4c-20.4,0-42.1-4.1-42.1-11.8S89.6,30.8,110,30.8s42.1,4.1,42.1,11.8S130.4,54.4,110,54.4z M110,33.2
		c-23.4,0-39.7,5-39.7,9.4S86.6,52,110,52s39.7-5,39.7-9.4S133.5,33.2,110,33.2z"/>
	<path class="st2" d="M83.9,73.7c-1.4,0-2.7-0.4-3.6-1.3c-5.4-5.4,7-23.7,21.4-38.1c7.8-7.8,15.9-14.4,22.9-18.4
		c5.2-3.1,12.1-6.1,15.2-3s0.1,10-3,15.2c-4.1,7-10.7,15.1-18.4,22.9c-7.8,7.8-15.9,14.3-22.9,18.4C91.8,71.5,87.3,73.7,83.9,73.7z
		 M136.1,13.9c-2,0-5.4,1.1-10.4,4c-6.8,4-14.8,10.4-22.4,18.1C86.8,52.5,78.8,67.6,81.9,70.7c1.2,1.2,5.1,0.9,12.3-3.3
		c6.8-4,14.8-10.4,22.4-18.1s14.1-15.6,18.1-22.4c4.3-7.3,4.5-11.2,3.4-12.4C137.8,14.1,137.1,13.9,136.1,13.9z"/>
	<path class="st2" d="M136.2,73.7c-3.4,0-7.9-2.1-11.6-4.3c-7-4.1-15.1-10.7-22.9-18.4C87.3,36.5,74.9,18.2,80.3,12.8
		c3.1-3.1,10-0.1,15.2,3c7,4.1,15.1,10.6,22.9,18.4c7.8,7.8,14.3,15.9,18.4,22.9c3.1,5.2,6.1,12.1,3,15.2
		C138.9,73.3,137.6,73.7,136.2,73.7z M83.9,13.9c-1,0-1.6,0.2-2,0.6c-3.2,3.1,4.9,18.2,21.4,34.8c7.7,7.7,15.6,14.1,22.4,18.1
		c7.3,4.3,11.2,4.5,12.3,3.3s0.9-5.1-3.4-12.3c-4-6.8-10.4-14.8-18.1-22.4s-15.6-14.1-22.4-18.1C89.3,14.9,86,13.9,83.9,13.9z"/>
</g>
<circle class="st3" cx="82.2" cy="24" r="4.5"/>
</svg>
