<?xml version="1.0" encoding="UTF-8"?><svg id="Layer_1" xmlns="http://www.w3.org/2000/svg" viewBox="0 0 924.39 924.41"><defs><style>.cls-1{fill:#979797;}.cls-2{fill:#1b3764;}</style></defs><g><path class="cls-2" d="M462.2,924.41C207.34,924.41,0,717.07,0,462.2H101.54c0,198.88,161.8,360.68,360.66,360.68v101.54Z"/><path class="cls-2" d="M924.39,462.2h-101.54c0-198.87-161.79-360.67-360.66-360.67V0c254.86,0,462.2,207.34,462.2,462.2Z"/></g><g><path class="cls-1" d="M198.84,462.2H97.3c0-201.2,163.69-364.89,364.9-364.89v101.54c-145.22,0-263.37,118.14-263.37,263.36Z"/><path class="cls-1" d="M462.21,827.11v-101.54c145.21,0,263.35-118.15,263.35-263.37h101.54c0,201.21-163.68,364.9-364.88,364.9Z"/></g><path class="cls-2" d="M338.15,618.67l-35.44-212.63h318.94l-35.44,212.63h-248.06Zm29.68-35.44h188.7l22.59-141.75h-233.89l22.59,141.75Zm58.91-70.88h70.88c5.02,0,9.23-1.7,12.62-5.09,3.4-3.4,5.09-7.6,5.09-12.62s-1.7-9.23-5.09-12.62c-3.4-3.4-7.6-5.09-12.62-5.09h-70.88c-5.02,0-9.23,1.7-12.62,5.09s-5.09,7.6-5.09,12.62,1.7,9.23,5.09,12.62,7.6,5.09,12.62,5.09Zm-70.88-124.03c-5.02,0-9.23-1.7-12.62-5.09s-5.09-7.6-5.09-12.62,1.7-9.23,5.09-12.62c3.4-3.4,7.6-5.09,12.62-5.09h212.63c5.02,0,9.23,1.7,12.62,5.09s5.09,7.6,5.09,12.62-1.7,9.23-5.09,12.62c-3.4,3.4-7.6,5.09-12.62,5.09h-212.63Zm35.44-53.16c-5.02,0-9.23-1.7-12.62-5.09s-5.09-7.6-5.09-12.62,1.7-9.23,5.09-12.62,7.6-5.09,12.62-5.09h141.75c5.02,0,9.23,1.7,12.62,5.09s5.09,7.6,5.09,12.62-1.7,9.23-5.09,12.62c-3.4,3.4-7.6,5.09-12.62,5.09h-141.75Zm-23.48,248.06h0Z"/></svg>